<svg xmlns:xlink="http://www.w3.org/1999/xlink" id="SvgjsSvg1078" width="300" height="148" xmlns="http://www.w3.org/2000/svg" version="1.1" xlink="http://www.w3.org/1999/xlink" xmlns:svgjs="http://svgjs.com/svgjs" preserveAspectRatio="xMidYMid meet" viewBox="0 9.367070674670686e-8 200.80599975585938 146.99998474121094" overflow="visible"><defs id="SvgjsDefs1079"><linearGradient id="SvgjsLinearGradientXr0WHO8bD3" gradientUnits="userSpaceOnUse" x1="8.474729537963894" y1="91.28910493850707" x2="91.1774959564209" y2="8.586338520050047"><stop id="SvgjsStop1082" stop-color="#f48515" offset="0.05"></stop><stop id="SvgjsStop1083" stop-color="#834506" offset="0.95"></stop></linearGradient><linearGradient id="SvgjsLinearGradientXr0WHO8bD3" gradientUnits="userSpaceOnUse" x1="8.474729537963894" y1="91.28910493850707" x2="91.1774959564209" y2="8.586338520050047"><stop id="SvgjsStop1082" stop-color="#f48515" offset="0.05"></stop><stop id="SvgjsStop1083" stop-color="#834506" offset="0.95"></stop></linearGradient><linearGradient id="SvgjsLinearGradientXr0WHO8bD3" gradientUnits="userSpaceOnUse" x1="8.474729537963894" y1="91.28910493850707" x2="91.1774959564209" y2="8.586338520050047"><stop id="SvgjsStop1082" stop-color="#f48515" offset="0.05"></stop><stop id="SvgjsStop1083" stop-color="#834506" offset="0.95"></stop></linearGradient></defs><g id="SvgjsG1080" transform="scale(0.37178037249809226)" opacity="1"><g id="SvgjsG1084" class="ncSkwKP92" transform="translate(108.19224521367124, -15.212968654345376) scale(3.248653082924871)" light-content="false" non-strokable="false" fill="url(&quot;#SvgjsLinearGradientXr0WHO8bD3&quot;)"><path d="M30.758 7.82c.246-.468.633-1.156 1.04-1.707.456-.617.98-1.07 1.401-1.254a1.926 1.926 0 0 1 1.387-.086c.395.125.797.383 1.11.91.41.696.57 1.606.554 2.54-.012.605-.105 1.222-.16 1.71a12.81 12.81 0 0 1 2.25.915c2.21 1.18 5.45 3.11 5.793 3.43.727.68.617 1.351.387 1.867-.106.23-.282.48-.586.683a1.893 1.893 0 0 1-.39.2c.26.472.581 1.038.862 1.523.899 1.55 1.723 3.246 1.81 4.16a1.56 1.56 0 0 1-.99 1.602c.4 1.117.805 2.523.99 4.023.37 3.047.398 4.121 1.003 5.664.387.984.93 3.8 1.914 6.148.281.665.598 1.29.969 1.79.254.343.52.632.851.765 1.57.637 2.844 1.582 3.977 2.445.848.645 1.57 1.262 2.363 1.461.77.192 1.797.864 2.867 1.918 1.973 1.942 4.344 5.227 5.875 7.528 1.883 2.828 1.762 2.675 4.883 4.261 2.008 1.024 2.578 1.567 3.055 2.032.336.324.602.601 1.719 1.152 2.672 1.312 5.812 2.57 7.703 3.086a1.56 1.56 0 0 1 .351 2.867l-1.851.855c1.09 1.297 2.43 3.024 3.355 4.649 1.883 3.312 1.887 6.765 2 8.61.118 1.859-.234 3-.304 3.21-.375 1.18-1.496 1.117-1.496 1.117-.672 0-1.27-.43-1.485-1.07 0 0-.539-1.813-2.047-2.352l-1.222.496c-.52.395-1.012.34-1.364.243-.383-.11-.863-.36-1.086-1.055-.043-.137-.086-.574-.062-1.168a5.41 5.41 0 0 0-.028-1.05c-.023-.18-.039-.372-.156-.505-.219-.254-.472-.676-.715-1.242-.379-.879-.816-2.234-1.379-3.613-.648-1.586-1.386-3.29-2.62-3.895-3.423-1.68-4.333-1.832-5.981-4.34a35.32 35.32 0 0 0-.824-1.203 40.872 40.872 0 0 1-.395 1.618c-.305 1.117-.66 2.062-.965 2.523-.23.348-.476.683-.668 1.016-.054.093-.117.238-.16.335.98.82 2.207 2.067 2.801 3.165.41.761.55 1.503.453 2.113-.172 1.09-1.203 9.828-1.34 11.102-.117 1.101-.93 2.402-1.14 2.73-.07.305-.246.668-.649.996-.777.637-4.789 2.336-4.789 2.336-.187.078-.39.118-.598.118 0 0-.675.039-1.164-.524a1.605 1.605 0 0 1-.273-.43l-.012-.027c-.168-.383-.836-2.379.145-3.871.351-.54.82-1.074 1.234-1.637.274-.367.54-.738.645-1.152.199-.805.586-3.55.62-5.434.009-.41-.038-.937-.054-1.105-.281-.371-.976-.875-1.64-1.395-1.04-.82-2.051-1.644-2.36-2.07-.375-.523-2.441-2.937-3.644-4.68-.09.141-.133.293-.055.473.34.742.945 1.46 1.414 2.121.473.652.84 1.274 1 1.805.164.543.16 1.047.02 1.504-.149.488-.457.949-1.036 1.32-1.347.867-1.972.945-3.789 2.512-1.074.93-2.062 1.8-2.687 2.527-.153.18-.336.45-.383.527-.102.649-.613 1.164-1.04 1.496.09.653.169 1.297.184 1.454.18 1.523-1.546 1.777-1.546 1.777l.187-.008-4.602.555-.187.011c-.406 0-.8-.16-1.094-.445a1.567 1.567 0 0 1-.46-1.27s.183-1.831.616-3.242c.246-.816.614-1.5.993-1.894l.18-.848c.21-.91.616-1.918 2.16-2.867.898-.55 1.773-1.227 2.386-1.898.227-.243.461-.645.54-.778-.497-1.695-2.942-10.367-3.157-12.656-.074-.832-.066-1.492-.008-2.015-3.242-1.492-11.605-5.883-16.18-13.34-1.09-.602-4.242-2.352-5.472-3.285.085.308.222.648.25.726.632.555 1.484 1.586 2.007 2.637.47.941.653 1.906.496 2.672-.144.718-.195 1.191-.316 1.496a1.98 1.98 0 0 1-.773.96c-.305.204-.735.376-1.434.387-1.559.028-3.93-.656-4.32-2.882-.141-.793-.48-1.137-.946-1.442-.445-.289-.715-.55-.914-.82-.343-.477-.445-1.055-.617-2.637-.129-1.176-.207-3.43-.144-4.933.039-.848.148-1.508.261-1.805.297-.773.996-1.691 1.696-2.148.523-.348 1.07-.48 1.543-.446.453.035 3.636.403 5.558.66.047-.972.086-2.5-.055-2.894-.21-.586-.445-1.68-.746-2.621-.113-.356-.195-.696-.351-.867-.14-.149-.461-.258-.567-.293l-2.02 1.351-.456.906c.07.133.117.266.148.407.094.394.075.949-.332 1.53-.59.845-3.207 2.485-3.207 2.485a1.573 1.573 0 0 1-1.285.141 1.563 1.563 0 0 1-.953-.867s-.898-2.102-.594-4.336c.196-1.461 1.008-3.457 1.715-4.61.52-.84 1.129-1.304 1.484-1.433.508-.188 1.352-.906 2.114-1.531.265-.215.39-.493.558-.7.282-.351.602-.64 1.02-.851.523-.258 1.258-.43 2.46-.176 1.665.352 3.895.977 5.583 2.871l.27-.812c.175-.633.034-1.899-.067-2.602-1.387-.09-3.832-.226-4.777-.133l-.024.004c-1.035.399-3.07.883-4.547-.14-.851-.59-1.68-1.055-2.07-1.485-.535-.586-.68-1.207-.566-1.82.078-.414.07-1.922.398-2.95.289-.902.836-1.535 1.477-1.82.921-.402 1.777-.78 3.027-1.511.68-.399 1.32-.688 1.883-.989.343-.183.656-.351.875-.625.906-1.132 2.297-2.566 4.11-2.789.386-.047.71-.086.995-.133.301-.05.508-.113.711-.367a5.02 5.02 0 0 1 1.68-1.351zm-9.742 10.82a1.151 1.151 0 0 1-.172.032c-.168.011-.34.003-.496 0a.657.657 0 0 0-.66.648.656.656 0 0 0 .648.66c.29.004.629.02.922-.047.312-.07.586-.222.785-.476.188-.235.328-.582.305-1.11a.655.655 0 1 0-1.309.051c.004.074 0 .14-.008.195-.003.012-.007.032-.011.043zm6.703-5.148a.282.282 0 0 0-.207.223.29.29 0 0 0 .105.285c1.235.937 2.149 1.078 2.793.937 1.04-.222 1.442-1.18 1.442-1.18a.292.292 0 0 0-.149-.374c-.547-.239-1.304-.274-2.023-.22-1.027.079-1.961.333-1.961.333z" fill-rule="evenodd" fill="url(&quot;#SvgjsLinearGradientXr0WHO8bD3&quot;)"></path></g><g id="SvgjsG1085" class="text" transform="translate(269.1000061035156, 358.0347299914395) scale(1)" light-content="false" fill="#2B2B2B"><path d="M-254.76 0L-241.11 0L-241.11 -33.54L-226.77 -33.54L-226.77 -44.4L-269.1 -44.4L-269.1 -33.54L-254.76 -33.54Z M-211.66 -4.62C-208.22 -1.14 -202.78 0.6 -195.36 0.6C-188.06 0.6 -182.7 -1.14 -179.26 -4.63C-175.83 -8.13 -174.12 -13.29 -174.12 -20.13L-174.12 -44.4L-187.53 -44.4L-187.53 -18.96C-187.53 -15.98 -188.18 -13.8 -189.48 -12.4C-190.78 -11.01 -192.74 -10.32 -195.36 -10.32C-197.98 -10.32 -199.94 -11.01 -201.25 -12.4C-202.57 -13.8 -203.22 -15.98 -203.22 -18.96L-203.22 -44.4L-216.84 -44.4L-216.84 -20.13C-216.84 -13.27 -215.11 -8.1 -211.66 -4.62Z M-149.88 0L-136.23 0L-136.23 -33.54L-121.89 -33.54L-121.89 -44.4L-164.22 -44.4L-164.22 -33.54L-149.88 -33.54Z M-111.78 0L-98.16 0L-98.16 -44.4L-111.78 -44.4Z M-79.42 -5.08C-74.87 -1.29 -68.14 0.6 -59.22 0.6C-57.44 0.6 -55.62 0.49 -53.78 0.26C-51.93 0.02 -50.23 -0.28 -48.69 -0.66L-48.69 -11.58C-52.09 -10.8 -55.23 -10.41 -58.11 -10.41C-62.95 -10.41 -66.47 -11.37 -68.68 -13.29C-70.9 -15.21 -72 -18.18 -72 -22.2C-72 -26.2 -70.86 -29.16 -68.58 -31.09C-66.3 -33.03 -62.66 -33.99 -57.66 -33.99C-54.74 -33.99 -51.75 -33.71 -48.69 -33.15L-48.69 -44.04C-51.81 -44.68 -55.19 -45 -58.83 -45C-64.75 -45 -69.76 -44.1 -73.84 -42.28C-77.93 -40.48 -81.03 -37.86 -83.11 -34.42C-85.2 -31 -86.25 -26.88 -86.25 -22.08C-86.25 -14.54 -83.98 -8.88 -79.42 -5.08Z M-28.39 -2.07C-24.76 -0.29 -20.47 0.6 -15.51 0.6C-10.57 0.6 -6.28 -0.29 -2.64 -2.08C1 -3.88 3.8 -6.48 5.76 -9.9C7.72 -13.32 8.7 -17.42 8.7 -22.2C8.7 -26.98 7.73 -31.08 5.78 -34.5C3.83 -37.92 1.03 -40.53 -2.61 -42.31C-6.25 -44.1 -10.55 -45 -15.51 -45C-20.49 -45 -24.79 -44.11 -28.42 -42.33C-32.05 -40.55 -34.84 -37.95 -36.79 -34.54C-38.74 -31.14 -39.72 -27.02 -39.72 -22.2C-39.72 -17.38 -38.74 -13.26 -36.78 -9.85C-34.82 -6.45 -32.02 -3.85 -28.39 -2.07ZM-7.81 -13.08C-9.57 -11.1 -12.13 -10.11 -15.51 -10.11C-18.91 -10.11 -21.48 -11.11 -23.22 -13.12C-24.96 -15.13 -25.83 -18.24 -25.83 -22.44C-25.83 -26.42 -24.94 -29.39 -23.17 -31.35C-21.4 -33.31 -18.85 -34.29 -15.51 -34.29C-12.17 -34.29 -9.61 -33.27 -7.84 -31.21C-6.07 -29.17 -5.19 -26.08 -5.19 -21.96C-5.19 -18.02 -6.06 -15.06 -7.81 -13.08Z M25.61 -4.62C29.05 -1.14 34.49 0.6 41.91 0.6C49.21 0.6 54.57 -1.14 58.01 -4.63C61.44 -8.13 63.15 -13.29 63.15 -20.13L63.15 -44.4L49.74 -44.4L49.74 -18.96C49.74 -15.98 49.09 -13.8 47.79 -12.4C46.49 -11.01 44.53 -10.32 41.91 -10.32C39.29 -10.32 37.33 -11.01 36.02 -12.4C34.7 -13.8 34.05 -15.98 34.05 -18.96L34.05 -44.4L20.43 -44.4L20.43 -20.13C20.43 -13.27 22.15 -8.1 25.61 -4.62Z M107.07 -44.4L107.07 -19.41L89.76 -44.4L76.14 -44.4L76.14 0L88.95 0L88.95 -24.99L106.26 0L119.88 0L119.88 -44.4Z M144.33 0L157.98 0L157.98 -33.54L172.32 -33.54L172.32 -44.4L129.99 -44.4L129.99 -33.54L144.33 -33.54Z M209.13 0L223.98 0L211.86 -17.22C214.42 -18.46 216.39 -20.15 217.76 -22.29C219.12 -24.43 219.81 -26.99 219.81 -29.97C219.81 -35.07 218.02 -38.85 214.46 -41.31C210.89 -43.77 205.58 -45 198.54 -45C196.02 -45 193.29 -44.82 190.35 -44.47C187.41 -44.13 184.77 -43.67 182.43 -43.11L182.43 0L195.78 0L195.78 -14.94L198.84 -14.85ZM195.78 -24.78L195.78 -35.07C197.3 -35.33 198.69 -35.46 199.95 -35.46C202.35 -35.46 204.15 -35.01 205.35 -34.11C206.55 -33.21 207.15 -31.83 207.15 -29.97C207.15 -28.01 206.57 -26.61 205.43 -25.77C204.28 -24.93 202.52 -24.51 200.16 -24.51C198.66 -24.51 197.2 -24.6 195.78 -24.78Z M271.02 -44.4L257.67 -44.4L248.28 -29.13L238.74 -44.4L224.37 -44.4L241.23 -18.06L241.23 0L254.85 0L254.85 -18.27Z" fill="#2B2B2B"></path></g><rect id="SvgjsRect1086" width="205.04" height="2" fill="#834506" transform="translate(0, 384.01472999143954) scale(1)" light-content="false"></rect><g id="SvgjsG1087" class="text" transform="translate(269.9900007629394, 390.79472983885165) scale(1)" light-content="false" fill="#834506"><path d="M-54.74 -0.27C-53.72 0.04 -52.57 0.2 -51.3 0.2C-50.29 0.2 -49.43 0.07 -48.73 -0.2C-48.03 -0.47 -47.5 -0.85 -47.14 -1.34C-46.79 -1.83 -46.61 -2.42 -46.61 -3.1C-46.61 -3.97 -46.85 -4.65 -47.34 -5.11C-47.83 -5.58 -48.59 -5.91 -49.64 -6.1L-51.39 -6.41C-51.94 -6.52 -52.33 -6.69 -52.56 -6.92C-52.79 -7.15 -52.9 -7.46 -52.9 -7.84C-52.9 -8.91 -51.96 -9.44 -50.08 -9.44C-49.08 -9.44 -48.12 -9.31 -47.21 -9.06L-47.21 -10.68C-48.1 -10.93 -49.06 -11.05 -50.11 -11.05C-51.2 -11.05 -52.1 -10.91 -52.82 -10.64C-53.55 -10.37 -54.08 -9.99 -54.43 -9.5C-54.78 -9.01 -54.95 -8.43 -54.95 -7.77C-54.95 -6.94 -54.71 -6.27 -54.24 -5.78C-53.78 -5.29 -53.02 -4.94 -51.97 -4.75L-50.22 -4.45C-49.64 -4.34 -49.23 -4.17 -49 -3.94C-48.77 -3.72 -48.66 -3.4 -48.66 -2.99C-48.66 -2.48 -48.87 -2.08 -49.28 -1.81C-49.7 -1.54 -50.37 -1.41 -51.3 -1.41C-52.5 -1.41 -53.65 -1.57 -54.74 -1.89Z M-44.37 0L-42.21 0L-42.21 -16.16L-44.37 -16.16Z M-37.32 -0.41C-36.54 0 -35.63 0.2 -34.57 0.2C-33.52 0.2 -32.61 -0.01 -31.84 -0.42C-31.07 -0.84 -30.47 -1.47 -30.04 -2.31C-29.62 -3.15 -29.41 -4.19 -29.41 -5.43C-29.41 -7.3 -29.86 -8.71 -30.77 -9.64C-31.67 -10.58 -32.94 -11.05 -34.57 -11.05C-36.2 -11.05 -37.46 -10.58 -38.37 -9.64C-39.28 -8.7 -39.73 -7.3 -39.73 -5.43C-39.73 -4.18 -39.52 -3.13 -39.1 -2.29C-38.68 -1.45 -38.08 -0.82 -37.32 -0.41ZM-32.36 -2.43C-32.86 -1.81 -33.6 -1.51 -34.57 -1.51C-35.54 -1.51 -36.28 -1.82 -36.79 -2.43C-37.3 -3.04 -37.55 -4.05 -37.55 -5.45C-37.55 -6.83 -37.29 -7.82 -36.79 -8.43C-36.28 -9.04 -35.54 -9.34 -34.57 -9.34C-33.6 -9.34 -32.86 -9.03 -32.36 -8.43C-31.85 -7.81 -31.59 -6.81 -31.59 -5.42C-31.59 -4.03 -31.85 -3.04 -32.36 -2.43Z M-24.88 4.47C-24.25 4.56 -23.63 4.6 -23.04 4.6C-21.77 4.6 -20.72 4.42 -19.9 4.05C-19.08 3.68 -18.47 3.11 -18.05 2.34C-17.65 1.56 -17.44 0.55 -17.44 -0.7L-17.44 -10.49C-18.02 -10.67 -18.65 -10.81 -19.34 -10.9C-20.03 -11 -20.7 -11.05 -21.37 -11.05C-23.36 -11.05 -24.87 -10.56 -25.88 -9.57C-26.9 -8.58 -27.41 -7.13 -27.41 -5.22C-27.41 -4.02 -27.21 -3.02 -26.82 -2.22C-26.43 -1.43 -25.89 -0.84 -25.22 -0.46C-24.55 -0.09 -23.79 0.1 -22.94 0.1C-22.27 0.1 -21.66 -0.01 -21.11 -0.24C-20.56 -0.47 -20.1 -0.79 -19.71 -1.2L-19.6 -1.2L-19.6 -0.33C-19.6 0.45 -19.73 1.08 -19.98 1.55C-20.23 2.02 -20.61 2.36 -21.13 2.58C-21.66 2.79 -22.34 2.9 -23.18 2.9C-24.28 2.9 -25.45 2.72 -26.68 2.35L-26.68 4.09C-26.12 4.26 -25.52 4.38 -24.88 4.47ZM-20.79 -1.96C-21.25 -1.78 -21.73 -1.69 -22.24 -1.69C-23.18 -1.69 -23.91 -1.97 -24.44 -2.54C-24.97 -3.11 -25.23 -4.07 -25.23 -5.41C-25.23 -6.76 -24.92 -7.76 -24.31 -8.4C-23.7 -9.04 -22.78 -9.36 -21.56 -9.36C-20.85 -9.36 -20.2 -9.28 -19.6 -9.13L-19.6 -2.79C-19.93 -2.42 -20.33 -2.15 -20.79 -1.96Z M-8.09 -10.65C-8.77 -10.92 -9.65 -11.05 -10.73 -11.05C-11.3 -11.05 -11.89 -11.01 -12.51 -10.92C-13.13 -10.83 -13.69 -10.71 -14.19 -10.55L-14.19 -8.88C-13.68 -9.05 -13.15 -9.17 -12.6 -9.25C-12.05 -9.33 -11.53 -9.37 -11.05 -9.37C-10.36 -9.37 -9.81 -9.3 -9.39 -9.15C-8.98 -9.01 -8.67 -8.76 -8.46 -8.42C-8.26 -8.06 -8.16 -7.58 -8.16 -6.96L-8.16 -6.37L-10.64 -6.12C-12.15 -5.99 -13.24 -5.65 -13.93 -5.11C-14.62 -4.58 -14.97 -3.82 -14.97 -2.85C-14.97 -2.24 -14.83 -1.7 -14.55 -1.25C-14.27 -0.79 -13.86 -0.44 -13.33 -0.19C-12.8 0.06 -12.16 0.18 -11.41 0.18C-10.74 0.18 -10.12 0.06 -9.54 -0.17C-8.96 -0.41 -8.49 -0.75 -8.12 -1.18L-8 -1.18L-7.84 0L-6.04 0L-6.04 -6.84C-6.04 -7.89 -6.21 -8.72 -6.55 -9.33C-6.89 -9.94 -7.4 -10.38 -8.09 -10.65ZM-9.38 -1.65C-9.84 -1.46 -10.32 -1.37 -10.81 -1.37C-11.48 -1.37 -11.98 -1.51 -12.31 -1.8C-12.64 -2.09 -12.81 -2.5 -12.81 -3.03C-12.81 -3.56 -12.63 -3.97 -12.26 -4.25C-11.89 -4.54 -11.3 -4.73 -10.47 -4.82L-8.16 -5.05L-8.16 -2.49C-8.52 -2.12 -8.93 -1.84 -9.38 -1.65Z M-3.11 -10.88L-3.11 0L-0.95 0L-0.95 -7.89C-0.58 -8.32 -0.13 -8.64 0.4 -8.85C0.93 -9.06 1.46 -9.17 2 -9.17C2.74 -9.17 3.3 -8.98 3.69 -8.61C4.07 -8.24 4.26 -7.62 4.26 -6.75L4.26 0L6.42 0L6.42 -6.85C6.42 -8.3 6.08 -9.36 5.39 -10.03C4.7 -10.71 3.76 -11.05 2.56 -11.05C1.87 -11.05 1.22 -10.93 0.6 -10.69C-0.03 -10.46 -0.58 -10.12 -1.05 -9.68L-1.17 -9.68L-1.32 -10.88Z M14.63 -16.16L14.63 0L16.79 0L16.79 -7.88C17.16 -8.31 17.6 -8.63 18.13 -8.84C18.65 -9.05 19.19 -9.16 19.74 -9.16C20.47 -9.16 21.03 -8.97 21.42 -8.6C21.81 -8.23 22 -7.62 22 -6.76L22 0L24.16 0L24.16 -6.88C24.16 -8.31 23.82 -9.37 23.15 -10.04C22.47 -10.71 21.55 -11.05 20.4 -11.05C19.72 -11.05 19.08 -10.94 18.49 -10.71C17.89 -10.48 17.36 -10.15 16.9 -9.71L16.79 -9.71L16.79 -16.16Z M36.04 -4.78L36.04 -5.38C36.04 -7.23 35.64 -8.64 34.85 -9.6C34.05 -10.57 32.9 -11.05 31.39 -11.05C30.36 -11.05 29.49 -10.84 28.76 -10.41C28.03 -9.98 27.47 -9.35 27.09 -8.51C26.7 -7.68 26.51 -6.65 26.51 -5.44C26.51 -3.5 26.99 -2.08 27.94 -1.16C28.89 -0.25 30.32 0.2 32.25 0.2C33.29 0.2 34.36 0.05 35.46 -0.24L35.46 -1.9C34.41 -1.61 33.43 -1.47 32.54 -1.47C31.66 -1.47 30.94 -1.58 30.39 -1.8C29.84 -2.03 29.42 -2.38 29.15 -2.86C28.87 -3.35 28.71 -3.99 28.68 -4.78ZM29.39 -8.77C29.84 -9.32 30.5 -9.6 31.37 -9.6C32.22 -9.6 32.87 -9.32 33.31 -8.77C33.74 -8.22 33.97 -7.33 34 -6.12L28.67 -6.12C28.7 -7.33 28.94 -8.22 29.39 -8.77Z M38.36 -10.88L38.36 0L40.52 0L40.52 -7.68C40.87 -8.12 41.33 -8.45 41.9 -8.68C42.47 -8.92 43.04 -9.03 43.61 -9.03C44.03 -9.03 44.4 -9 44.71 -8.95L44.71 -10.91C44.4 -10.97 44.08 -11 43.73 -11C43.07 -11 42.45 -10.87 41.87 -10.6C41.28 -10.33 40.81 -9.95 40.44 -9.46L40.31 -9.46L40.14 -10.88Z M55.09 -4.78L55.09 -5.38C55.09 -7.23 54.69 -8.64 53.9 -9.6C53.1 -10.57 51.95 -11.05 50.44 -11.05C49.41 -11.05 48.54 -10.84 47.81 -10.41C47.08 -9.98 46.52 -9.35 46.14 -8.51C45.75 -7.68 45.56 -6.65 45.56 -5.44C45.56 -3.5 46.04 -2.08 46.99 -1.16C47.94 -0.25 49.37 0.2 51.3 0.2C52.34 0.2 53.41 0.05 54.51 -0.24L54.51 -1.9C53.46 -1.61 52.48 -1.47 51.59 -1.47C50.71 -1.47 49.99 -1.58 49.44 -1.8C48.89 -2.03 48.47 -2.38 48.2 -2.86C47.92 -3.35 47.76 -3.99 47.73 -4.78ZM48.44 -8.77C48.89 -9.32 49.55 -9.6 50.42 -9.6C51.27 -9.6 51.92 -9.32 52.36 -8.77C52.79 -8.22 53.02 -7.33 53.05 -6.12L47.72 -6.12C47.75 -7.33 47.99 -8.22 48.44 -8.77Z" fill="#834506"></path></g><rect id="SvgjsRect1088" width="205.04000000000002" height="2" fill="#834506" transform="translate(335.08, 384.01472999143954) scale(1)" light-content="false"></rect></g></svg>