<svg xmlns:xlink="http://www.w3.org/1999/xlink" xmlns="http://www.w3.org/2000/svg" class="css-ze2te4 css-qd6ojx" viewBox="0 0 140 177.50830414581168" width="140"  height="177.50830414581168" ><g transform="translate(-29.478604430793183, -10.723487556927187) scale(1.9895125498663455)" class="css-1mun45u" fill="#111111"><path xmlns="http://www.w3.org/2000/svg" d="M83.484,72.887l-0.717-4.756l-0.707-4.263l-2.525-3.21l-7.468-1.068l-3.626-0.46l-2.45-3.986l-5.915-7.155l-2.885-4.048  l-1.544-4.298l-0.301-4.773l-0.698-5.324l0.112-9.656l-0.585-3.81l-2.446-4.403l-3.618-2.472l-4.597-1.326l-2.783-0.594  l-2.582-1.895l-0.151,0.207l-0.134,0.038l0.03,0.105l-0.012,0.016l0.959,3.276l-2.377,2.988l-5.322,8.876l2.918,2.542l2.577-1.825  l4.236-1.793l3.386-1.039l-1.47,4.326l-7.505,4.145l-1.741,1.957l-3.115-2.663l-7.692-1.921l-2.928-0.449l-2.001,1.629l-1.689,2.637  l-1.301,4.229l4.894-2.686l-0.348-1.91l1.382-1.383l4.513,2.407l-3.108,7.015l3.302,6.642l1.772-4.908l-1.317-1.437l-0.659-1.251  l2.564-3.855l4.97,9.267l3.317,3.218l2.359,4.568l4.194,5.133l5.047,4.803l4.568,3.771l-0.349,3.857l0.227,3.444l1.533,4.231  c0.378,3.19,1.078,9.093,1.157,9.827c-0.322,0.363-1.122,1.479-3.52,4.83l-2.527,2.207l-2.701,4.151h10.328l-0.69-2.659l4.663-7.328  l0.906-3.832l-0.732-4.317l2.232-5.347l3.53-2.36l1.74-4.79l1.936-0.563l0.799,2.852l4.6,0.618l1.682,4.937l2.908,1.415l5.197,6.224  L83.484,72.887z" fill="#111111"></path></g></svg>