<svg xmlns:xlink="http://www.w3.org/1999/xlink" xmlns="http://www.w3.org/2000/svg" width="300" height="148" preserveAspectRatio="xMidYMid meet" viewBox="0 6.327517354520751e-8 247.33364868164062 147.00001525878906" overflow="visible"><defs id="SvgjsDefs1016"></defs><g id="SvgjsG1017" transform="scale(0.5983202519789597)" opacity="1"><g id="SvgjsG1018" class="fEKU0aa3I" transform="translate(124.18692976863193, -7.7539632459464) scale(1.6558199241825657)" light-content="false" non-strokable="false" fill="#FFFFFF"><path d="M30.758 7.82c.246-.468.633-1.156 1.04-1.707.456-.617.98-1.07 1.401-1.254a1.926 1.926 0 0 1 1.387-.086c.395.125.797.383 1.11.91.41.696.57 1.606.554 2.54-.012.605-.105 1.222-.16 1.71a12.81 12.81 0 0 1 2.25.915c2.21 1.18 5.45 3.11 5.793 3.43.727.68.617 1.351.387 1.867-.106.23-.282.48-.586.683a1.893 1.893 0 0 1-.39.2c.26.472.581 1.038.862 1.523.899 1.55 1.723 3.246 1.81 4.16a1.56 1.56 0 0 1-.99 1.602c.4 1.117.805 2.523.99 4.023.37 3.047.398 4.121 1.003 5.664.387.984.93 3.8 1.914 6.148.281.665.598 1.29.969 1.79.254.343.52.632.851.765 1.57.637 2.844 1.582 3.977 2.445.848.645 1.57 1.262 2.363 1.461.77.192 1.797.864 2.867 1.918 1.973 1.942 4.344 5.227 5.875 7.528 1.883 2.828 1.762 2.675 4.883 4.261 2.008 1.024 2.578 1.567 3.055 2.032.336.324.602.601 1.719 1.152 2.672 1.312 5.812 2.57 7.703 3.086a1.56 1.56 0 0 1 .351 2.867l-1.851.855c1.09 1.297 2.43 3.024 3.355 4.649 1.883 3.312 1.887 6.765 2 8.61.118 1.859-.234 3-.304 3.21-.375 1.18-1.496 1.117-1.496 1.117-.672 0-1.27-.43-1.485-1.07 0 0-.539-1.813-2.047-2.352l-1.222.496c-.52.395-1.012.34-1.364.243-.383-.11-.863-.36-1.086-1.055-.043-.137-.086-.574-.062-1.168a5.41 5.41 0 0 0-.028-1.05c-.023-.18-.039-.372-.156-.505-.219-.254-.472-.676-.715-1.242-.379-.879-.816-2.234-1.379-3.613-.648-1.586-1.386-3.29-2.62-3.895-3.423-1.68-4.333-1.832-5.981-4.34a35.32 35.32 0 0 0-.824-1.203 40.872 40.872 0 0 1-.395 1.618c-.305 1.117-.66 2.062-.965 2.523-.23.348-.476.683-.668 1.016-.054.093-.117.238-.16.335.98.82 2.207 2.067 2.801 3.165.41.761.55 1.503.453 2.113-.172 1.09-1.203 9.828-1.34 11.102-.117 1.101-.93 2.402-1.14 2.73-.07.305-.246.668-.649.996-.777.637-4.789 2.336-4.789 2.336-.187.078-.39.118-.598.118 0 0-.675.039-1.164-.524a1.605 1.605 0 0 1-.273-.43l-.012-.027c-.168-.383-.836-2.379.145-3.871.351-.54.82-1.074 1.234-1.637.274-.367.54-.738.645-1.152.199-.805.586-3.55.62-5.434.009-.41-.038-.937-.054-1.105-.281-.371-.976-.875-1.64-1.395-1.04-.82-2.051-1.644-2.36-2.07-.375-.523-2.441-2.937-3.644-4.68-.09.141-.133.293-.055.473.34.742.945 1.46 1.414 2.121.473.652.84 1.274 1 1.805.164.543.16 1.047.02 1.504-.149.488-.457.949-1.036 1.32-1.347.867-1.972.945-3.789 2.512-1.074.93-2.062 1.8-2.687 2.527-.153.18-.336.45-.383.527-.102.649-.613 1.164-1.04 1.496.09.653.169 1.297.184 1.454.18 1.523-1.546 1.777-1.546 1.777l.187-.008-4.602.555-.187.011c-.406 0-.8-.16-1.094-.445a1.567 1.567 0 0 1-.46-1.27s.183-1.831.616-3.242c.246-.816.614-1.5.993-1.894l.18-.848c.21-.91.616-1.918 2.16-2.867.898-.55 1.773-1.227 2.386-1.898.227-.243.461-.645.54-.778-.497-1.695-2.942-10.367-3.157-12.656-.074-.832-.066-1.492-.008-2.015-3.242-1.492-11.605-5.883-16.18-13.34-1.09-.602-4.242-2.352-5.472-3.285.085.308.222.648.25.726.632.555 1.484 1.586 2.007 2.637.47.941.653 1.906.496 2.672-.144.718-.195 1.191-.316 1.496a1.98 1.98 0 0 1-.773.96c-.305.204-.735.376-1.434.387-1.559.028-3.93-.656-4.32-2.882-.141-.793-.48-1.137-.946-1.442-.445-.289-.715-.55-.914-.82-.343-.477-.445-1.055-.617-2.637-.129-1.176-.207-3.43-.144-4.933.039-.848.148-1.508.261-1.805.297-.773.996-1.691 1.696-2.148.523-.348 1.07-.48 1.543-.446.453.035 3.636.403 5.558.66.047-.972.086-2.5-.055-2.894-.21-.586-.445-1.68-.746-2.621-.113-.356-.195-.696-.351-.867-.14-.149-.461-.258-.567-.293l-2.02 1.351-.456.906c.07.133.117.266.148.407.094.394.075.949-.332 1.53-.59.845-3.207 2.485-3.207 2.485a1.573 1.573 0 0 1-1.285.141 1.563 1.563 0 0 1-.953-.867s-.898-2.102-.594-4.336c.196-1.461 1.008-3.457 1.715-4.61.52-.84 1.129-1.304 1.484-1.433.508-.188 1.352-.906 2.114-1.531.265-.215.39-.493.558-.7.282-.351.602-.64 1.02-.851.523-.258 1.258-.43 2.46-.176 1.665.352 3.895.977 5.583 2.871l.27-.812c.175-.633.034-1.899-.067-2.602-1.387-.09-3.832-.226-4.777-.133l-.024.004c-1.035.399-3.07.883-4.547-.14-.851-.59-1.68-1.055-2.07-1.485-.535-.586-.68-1.207-.566-1.82.078-.414.07-1.922.398-2.95.289-.902.836-1.535 1.477-1.82.921-.402 1.777-.78 3.027-1.511.68-.399 1.32-.688 1.883-.989.343-.183.656-.351.875-.625.906-1.132 2.297-2.566 4.11-2.789.386-.047.71-.086.995-.133.301-.05.508-.113.711-.367a5.02 5.02 0 0 1 1.68-1.351zm-9.742 10.82a1.151 1.151 0 0 1-.172.032c-.168.011-.34.003-.496 0a.657.657 0 0 0-.66.648.656.656 0 0 0 .648.66c.29.004.629.02.922-.047.312-.07.586-.222.785-.476.188-.235.328-.582.305-1.11a.655.655 0 1 0-1.309.051c.004.074 0 .14-.008.195-.003.012-.007.032-.011.043zm6.703-5.148a.282.282 0 0 0-.207.223.29.29 0 0 0 .105.285c1.235.937 2.149 1.078 2.793.937 1.04-.222 1.442-1.18 1.442-1.18a.292.292 0 0 0-.149-.374c-.547-.239-1.304-.274-2.023-.22-1.027.079-1.961.333-1.961.333z" fill-rule="evenodd" fill="#FFFFFF"></path></g><g id="SvgjsG1019" class="text" transform="translate(206.52999877929688, 207.8778210448886) scale(1)" light-content="false" fill="#FFFFFF"><path d="M-181.27 -36.3C-180.28 -36.3 -179.56 -36.5 -179.11 -36.91C-178.58 -37.38 -178.12 -37.98 -177.73 -38.7C-177.34 -39.42 -177.14 -39.92 -177.14 -40.2C-177.14 -40.8 -177.56 -41.1 -178.4 -41.1L-202.4 -41.1C-203.39 -41.1 -204.12 -40.9 -204.57 -40.49C-205.09 -40.02 -205.55 -39.42 -205.94 -38.7C-206.33 -37.98 -206.53 -37.48 -206.53 -37.21C-206.53 -36.6 -206.11 -36.3 -205.27 -36.3ZM-195.31 -0.97C-195.31 -0.13 -194.97 0.29 -194.28 0.29C-193.74 0.29 -193.02 0.04 -192.13 -0.45C-191.24 -0.95 -190.54 -1.5 -190.03 -2.11C-189.64 -2.58 -189.45 -3.23 -189.45 -4.07L-189.45 -32.78C-189.45 -33.49 -189.67 -33.95 -190.11 -34.17C-190.55 -34.4 -191.31 -34.51 -192.41 -34.51C-193.4 -34.51 -194.14 -34.4 -194.62 -34.17C-195.1 -33.95 -195.34 -33.49 -195.34 -32.78Z M-136.57 -40.43C-136.57 -41.27 -136.92 -41.69 -137.6 -41.69C-138.34 -41.69 -139.21 -41.35 -140.19 -40.68C-141.18 -40 -141.67 -39.08 -141.67 -37.91L-141.67 -16.32C-141.67 -10.28 -142.3 -5.97 -143.55 -3.37C-143.7 -3.04 -143.89 -2.71 -144.12 -2.37C-144.34 -2.04 -144.51 -1.78 -144.63 -1.6C-144.75 -1.41 -144.81 -1.24 -144.81 -1.08C-144.81 -0.67 -144.6 -0.47 -144.19 -0.47C-143.35 -0.47 -142.44 -0.96 -141.47 -1.95C-140.49 -2.93 -139.62 -4.29 -138.86 -6.01C-137.33 -9.46 -136.57 -14.94 -136.57 -22.44ZM-160.45 -40.43C-160.45 -41.27 -160.79 -41.69 -161.48 -41.69C-162.04 -41.69 -162.76 -41.44 -163.64 -40.94C-164.52 -40.44 -165.22 -39.89 -165.72 -39.29C-166.13 -38.8 -166.34 -38.14 -166.34 -37.32L-166.34 -19.19C-166.34 -16.61 -166.23 -14.35 -166.02 -12.41C-165.8 -10.46 -165.42 -8.62 -164.86 -6.88C-164.3 -5.15 -163.56 -3.73 -162.62 -2.64C-161.68 -1.54 -160.46 -0.68 -158.97 -0.04C-157.48 0.59 -155.71 0.91 -153.68 0.91C-152.37 0.91 -151.15 0.71 -150.02 0.31C-148.89 -0.09 -147.99 -0.59 -147.33 -1.19C-146.66 -1.78 -146.14 -2.38 -145.77 -2.99C-145.4 -3.59 -145.22 -4.14 -145.22 -4.63C-145.22 -5.1 -145.44 -5.33 -145.89 -5.33C-146.07 -5.33 -146.39 -5.21 -146.87 -4.98C-147.35 -4.75 -148.04 -4.51 -148.94 -4.26C-149.83 -4.02 -150.87 -3.9 -152.04 -3.9C-153.16 -3.9 -154.15 -4.07 -155.03 -4.41C-155.91 -4.75 -156.64 -5.18 -157.21 -5.7C-157.79 -6.22 -158.29 -6.91 -158.71 -7.79C-159.13 -8.67 -159.44 -9.52 -159.66 -10.33C-159.87 -11.14 -160.04 -12.14 -160.17 -13.33C-160.3 -14.52 -160.38 -15.56 -160.41 -16.45C-160.44 -17.34 -160.45 -18.42 -160.45 -19.69Z M-100.51 -36.3C-99.52 -36.3 -98.8 -36.5 -98.35 -36.91C-97.82 -37.38 -97.36 -37.98 -96.97 -38.7C-96.58 -39.42 -96.38 -39.92 -96.38 -40.2C-96.38 -40.8 -96.8 -41.1 -97.64 -41.1L-121.64 -41.1C-122.63 -41.1 -123.36 -40.9 -123.81 -40.49C-124.33 -40.02 -124.79 -39.42 -125.18 -38.7C-125.57 -37.98 -125.77 -37.48 -125.77 -37.21C-125.77 -36.6 -125.35 -36.3 -124.51 -36.3ZM-114.55 -0.97C-114.55 -0.13 -114.21 0.29 -113.52 0.29C-112.98 0.29 -112.26 0.04 -111.37 -0.45C-110.48 -0.95 -109.78 -1.5 -109.27 -2.11C-108.88 -2.58 -108.69 -3.23 -108.69 -4.07L-108.69 -32.78C-108.69 -33.49 -108.91 -33.95 -109.35 -34.17C-109.79 -34.4 -110.55 -34.51 -111.65 -34.51C-112.64 -34.51 -113.38 -34.4 -113.86 -34.17C-114.34 -33.95 -114.58 -33.49 -114.58 -32.78Z M-79.69 -40.43C-79.69 -41.27 -80.03 -41.69 -80.72 -41.69C-81.28 -41.69 -82 -41.44 -82.88 -40.94C-83.76 -40.44 -84.46 -39.89 -84.96 -39.29C-85.37 -38.8 -85.58 -38.14 -85.58 -37.32L-85.58 -0.97C-85.58 -0.13 -85.24 0.29 -84.55 0.29C-83.99 0.29 -83.26 0.07 -82.37 -0.38C-81.48 -0.83 -80.79 -1.35 -80.31 -1.93C-79.9 -2.4 -79.69 -3.12 -79.69 -4.07Z M-59.36 -30.79C-59.36 -31.4 -59.66 -31.7 -60.24 -31.7C-61.1 -31.7 -62.05 -31.33 -63.1 -30.6C-64.14 -29.87 -64.91 -29.01 -65.4 -28.04C-65.79 -27.28 -66.12 -26.01 -66.4 -24.23C-66.67 -22.45 -66.81 -20.46 -66.81 -18.25C-66.81 -15.13 -66.58 -12.44 -66.12 -10.2C-65.66 -7.95 -64.88 -5.97 -63.77 -4.25C-62.67 -2.53 -61.14 -1.24 -59.19 -0.38C-57.24 0.48 -54.83 0.91 -51.98 0.91C-50.18 0.91 -48.53 0.7 -47.03 0.28C-45.53 -0.14 -44.33 -0.65 -43.44 -1.26C-42.55 -1.87 -41.8 -2.52 -41.17 -3.22C-40.55 -3.93 -40.11 -4.54 -39.87 -5.07C-39.62 -5.6 -39.5 -6.01 -39.5 -6.3C-39.5 -6.79 -39.74 -7.03 -40.2 -7.03C-40.42 -7.03 -40.79 -6.88 -41.33 -6.56C-41.87 -6.25 -42.46 -5.9 -43.09 -5.52C-43.72 -5.14 -44.65 -4.79 -45.86 -4.48C-47.07 -4.17 -48.37 -4.01 -49.75 -4.01C-51.26 -4.01 -52.6 -4.21 -53.77 -4.61C-54.94 -5.01 -55.92 -5.59 -56.7 -6.34C-57.48 -7.09 -58.14 -7.94 -58.68 -8.88C-59.21 -9.81 -59.62 -10.9 -59.91 -12.14C-60.19 -13.38 -60.39 -14.59 -60.51 -15.78C-60.62 -16.96 -60.68 -18.26 -60.68 -19.69C-60.68 -21.52 -60.57 -23.26 -60.35 -24.9C-60.12 -26.54 -59.9 -27.86 -59.69 -28.86C-59.47 -29.85 -59.36 -30.5 -59.36 -30.79ZM-40.09 -38.53C-40.09 -38.86 -40.22 -39.17 -40.5 -39.46C-40.77 -39.76 -40.99 -39.95 -41.16 -40.03C-41.32 -40.12 -41.59 -40.25 -41.96 -40.43C-44.11 -41.48 -46.48 -42.01 -49.08 -42.01C-52.46 -42.01 -55.33 -41.43 -57.68 -40.25C-60.03 -39.08 -62.11 -37.38 -63.91 -35.16C-64.96 -33.83 -65.49 -32.85 -65.49 -32.23C-65.49 -31.74 -65.26 -31.49 -64.81 -31.49C-64.74 -31.49 -64.64 -31.52 -64.54 -31.57C-64.43 -31.62 -64.3 -31.69 -64.15 -31.8C-64.01 -31.91 -63.88 -32.01 -63.77 -32.09C-63.67 -32.18 -63.51 -32.3 -63.32 -32.46L-62.88 -32.81C-59.56 -35.74 -56.14 -37.21 -52.63 -37.21C-50.87 -37.21 -48.95 -36.77 -46.88 -35.89C-46.77 -35.83 -46.58 -35.74 -46.31 -35.62C-46.05 -35.51 -45.86 -35.43 -45.74 -35.39C-45.62 -35.35 -45.47 -35.3 -45.27 -35.23C-45.08 -35.16 -44.9 -35.11 -44.75 -35.08C-44.59 -35.05 -44.42 -35.04 -44.25 -35.04C-43.5 -35.04 -42.84 -35.28 -42.25 -35.77C-40.81 -36.81 -40.09 -37.72 -40.09 -38.53Z M3.94 -21.83C3.94 -25.3 3.6 -28.31 2.93 -30.85C2.26 -33.39 1.25 -35.48 -0.09 -37.13C-1.43 -38.78 -3.1 -40.01 -5.1 -40.81C-7.1 -41.61 -9.43 -42.01 -12.08 -42.01C-14.72 -42.01 -17.23 -41.43 -19.61 -40.27C-22 -39.11 -24.07 -37.4 -25.83 -35.16C-26.67 -34.08 -27.08 -33.24 -27.08 -32.64C-27.08 -32.25 -26.88 -32.05 -26.47 -32.05C-26.37 -32.05 -26.22 -32.11 -26 -32.23C-25.79 -32.34 -25.59 -32.48 -25.42 -32.64L-24.48 -33.37C-22.86 -34.64 -21.23 -35.6 -19.58 -36.24C-17.94 -36.88 -16.26 -37.21 -14.55 -37.21C-12.34 -37.21 -10.5 -36.85 -9.02 -36.14C-7.55 -35.42 -6.35 -34.49 -5.43 -33.34C-4.52 -32.19 -3.83 -30.88 -3.38 -29.41C-2.93 -27.95 -2.62 -26.46 -2.43 -24.95C-2.25 -23.43 -2.15 -21.96 -2.15 -20.54L-2.15 -16.79C-2.15 -10.79 -2.93 -6.32 -4.5 -3.37C-4.77 -2.84 -5.05 -2.39 -5.35 -2.01C-5.64 -1.63 -5.79 -1.36 -5.79 -1.2C-5.79 -0.71 -5.58 -0.47 -5.17 -0.47C-4.33 -0.47 -3.33 -0.99 -2.15 -2.02C-1.18 -2.86 -0.31 -3.87 0.44 -5.05C1.19 -6.24 1.83 -7.63 2.34 -9.24C2.86 -10.85 3.26 -12.7 3.53 -14.77C3.8 -16.84 3.94 -19.19 3.94 -21.83ZM-21.14 -31.03C-21.14 -31.75 -21.44 -32.11 -22.05 -32.11C-22.73 -32.11 -23.58 -31.79 -24.59 -31.16C-25.61 -30.52 -26.39 -29.7 -26.94 -28.68C-27.92 -26.83 -28.4 -23.49 -28.4 -18.66C-28.4 -15.48 -28.18 -12.73 -27.74 -10.43C-27.3 -8.13 -26.57 -6.09 -25.55 -4.34C-24.52 -2.58 -23.1 -1.26 -21.28 -0.4C-19.47 0.47 -17.24 0.91 -14.6 0.91C-13.3 0.91 -12.08 0.71 -10.94 0.31C-9.81 -0.09 -8.91 -0.59 -8.25 -1.19C-7.58 -1.78 -7.07 -2.38 -6.69 -2.99C-6.32 -3.59 -6.14 -4.14 -6.14 -4.63C-6.14 -5.1 -6.35 -5.33 -6.78 -5.33C-6.96 -5.33 -7.29 -5.21 -7.78 -4.98C-8.27 -4.75 -8.96 -4.51 -9.86 -4.26C-10.76 -4.02 -11.79 -3.9 -12.96 -3.9C-14.29 -3.9 -15.47 -4.11 -16.51 -4.53C-17.54 -4.95 -18.39 -5.55 -19.06 -6.34C-19.72 -7.13 -20.28 -8 -20.73 -8.95C-21.18 -9.9 -21.51 -11.01 -21.72 -12.28C-21.94 -13.54 -22.09 -14.76 -22.18 -15.91C-22.27 -17.06 -22.31 -18.34 -22.31 -19.75C-22.31 -21.56 -22.21 -23.33 -22.02 -25.05C-21.82 -26.77 -21.63 -28.15 -21.43 -29.19C-21.24 -30.24 -21.14 -30.85 -21.14 -31.03Z M46.62 -40.43C46.62 -41.27 46.28 -41.69 45.59 -41.69C44.85 -41.69 43.99 -41.35 43 -40.68C42.02 -40 41.52 -39.08 41.52 -37.91L41.52 -16.32C41.52 -10.28 40.9 -5.97 39.65 -3.37C39.49 -3.04 39.3 -2.71 39.08 -2.37C38.85 -2.04 38.68 -1.78 38.56 -1.6C38.45 -1.41 38.39 -1.24 38.39 -1.08C38.39 -0.67 38.59 -0.47 39 -0.47C39.84 -0.47 40.75 -0.96 41.73 -1.95C42.7 -2.93 43.57 -4.29 44.33 -6.01C45.86 -9.46 46.62 -14.94 46.62 -22.44ZM22.74 -40.43C22.74 -41.27 22.4 -41.69 21.72 -41.69C21.15 -41.69 20.43 -41.44 19.55 -40.94C18.67 -40.44 17.98 -39.89 17.47 -39.29C17.06 -38.8 16.85 -38.14 16.85 -37.32L16.85 -19.19C16.85 -16.61 16.96 -14.35 17.18 -12.41C17.39 -10.46 17.78 -8.62 18.33 -6.88C18.89 -5.15 19.64 -3.73 20.58 -2.64C21.51 -1.54 22.73 -0.68 24.22 -0.04C25.72 0.59 27.48 0.91 29.51 0.91C30.82 0.91 32.04 0.71 33.17 0.31C34.31 -0.09 35.2 -0.59 35.87 -1.19C36.53 -1.78 37.05 -2.38 37.42 -2.99C37.79 -3.59 37.98 -4.14 37.98 -4.63C37.98 -5.1 37.75 -5.33 37.3 -5.33C37.13 -5.33 36.8 -5.21 36.32 -4.98C35.84 -4.75 35.16 -4.51 34.26 -4.26C33.36 -4.02 32.32 -3.9 31.15 -3.9C30.04 -3.9 29.04 -4.07 28.16 -4.41C27.28 -4.75 26.56 -5.18 25.98 -5.7C25.4 -6.22 24.91 -6.91 24.49 -7.79C24.07 -8.67 23.75 -9.52 23.53 -10.33C23.32 -11.14 23.15 -12.14 23.02 -13.33C22.89 -14.52 22.82 -15.56 22.79 -16.45C22.76 -17.34 22.74 -18.42 22.74 -19.69Z M84.47 -1.26C84.47 -0.79 84.52 -0.43 84.63 -0.19C84.73 0.05 84.84 0.2 84.95 0.23C85.06 0.27 85.2 0.29 85.37 0.29C85.8 0.29 86.38 0.07 87.12 -0.38C87.85 -0.83 88.47 -1.35 88.98 -1.93C89.37 -2.38 89.56 -3.1 89.56 -4.07L89.56 -40.43C89.56 -41.27 89.23 -41.69 88.57 -41.69C87.81 -41.69 86.93 -41.35 85.95 -40.66C84.96 -39.98 84.47 -39.06 84.47 -37.91ZM80.6 -5.83C80.62 -5.79 80.66 -5.74 80.72 -5.68C81.07 -5.14 81.37 -4.86 81.62 -4.86C82.35 -4.86 82.71 -6.58 82.71 -10.02C82.71 -11.56 82.65 -12.68 82.53 -13.37C82.42 -14.07 82.09 -14.82 81.57 -15.64L65.69 -40.75C65.3 -41.38 64.86 -41.69 64.37 -41.69C63.35 -41.69 62.26 -41.07 61.09 -39.84C60.64 -39.36 60.41 -38.9 60.41 -38.47C60.41 -38.15 60.53 -37.81 60.76 -37.44ZM65.1 -26.95C64.71 -27.81 64.12 -28.83 63.34 -30C62.66 -31.02 62.17 -31.7 61.86 -32.05C61.56 -32.4 61.28 -32.58 61.03 -32.58C60.66 -32.58 60.47 -32.34 60.47 -31.87L60.47 -0.97C60.47 -0.13 60.78 0.29 61.41 0.29C61.8 0.29 62.37 0.07 63.12 -0.38C63.88 -0.83 64.5 -1.35 64.98 -1.93C65.37 -2.38 65.57 -3.1 65.57 -4.07L65.57 -24.29C65.57 -25.34 65.41 -26.23 65.1 -26.95Z M125.65 -36.3C126.65 -36.3 127.37 -36.5 127.82 -36.91C128.35 -37.38 128.81 -37.98 129.2 -38.7C129.59 -39.42 129.78 -39.92 129.78 -40.2C129.78 -40.8 129.36 -41.1 128.52 -41.1L104.53 -41.1C103.53 -41.1 102.81 -40.9 102.36 -40.49C101.83 -40.02 101.37 -39.42 100.98 -38.7C100.59 -37.98 100.4 -37.48 100.4 -37.21C100.4 -36.6 100.82 -36.3 101.66 -36.3ZM111.62 -0.97C111.62 -0.13 111.96 0.29 112.64 0.29C113.19 0.29 113.91 0.04 114.8 -0.45C115.69 -0.95 116.38 -1.5 116.89 -2.11C117.28 -2.58 117.48 -3.23 117.48 -4.07L117.48 -32.78C117.48 -33.49 117.26 -33.95 116.82 -34.17C116.38 -34.4 115.61 -34.51 114.52 -34.51C113.52 -34.51 112.79 -34.4 112.31 -34.17C111.83 -33.95 111.59 -33.49 111.59 -32.78Z M159.78 -27.1C159.78 -25.17 159.28 -23.38 158.3 -21.74C157.31 -20.1 155.86 -18.74 153.95 -17.67C153.2 -17.24 152.83 -16.75 152.83 -16.2C152.83 -15.87 152.95 -15.53 153.18 -15.18L161.3 -0.97C161.79 -0.13 162.35 0.29 163 0.29C163.7 0.29 164.47 0.03 165.31 -0.5C166.35 -1.1 166.87 -1.8 166.87 -2.58C166.87 -3.09 166.65 -3.69 166.22 -4.39L159.37 -15.41C159.03 -15.92 158.87 -16.35 158.87 -16.7C158.87 -17.17 159.17 -17.62 159.78 -18.05C163.94 -20.92 166.02 -24.44 166.02 -28.62C166.02 -30.22 165.82 -31.68 165.42 -32.99C165.02 -34.3 164.51 -35.38 163.89 -36.24C163.28 -37.1 162.52 -37.85 161.61 -38.48C160.7 -39.12 159.82 -39.6 158.96 -39.93C158.1 -40.26 157.15 -40.53 156.11 -40.74C155.08 -40.94 154.2 -41.07 153.48 -41.12C152.75 -41.17 151.99 -41.19 151.19 -41.19L145.63 -41.1C144.49 -41.06 143.37 -40.59 142.26 -39.67C141.14 -38.75 140.59 -37.87 140.59 -37.03C140.59 -36.84 140.64 -36.68 140.75 -36.58C140.86 -36.47 140.98 -36.41 141.13 -36.39C141.28 -36.37 141.48 -36.36 141.73 -36.36L148.7 -36.36C149.97 -36.36 151.12 -36.28 152.14 -36.12C153.17 -35.97 154.17 -35.68 155.15 -35.26C156.12 -34.84 156.94 -34.29 157.59 -33.62C158.25 -32.94 158.78 -32.06 159.18 -30.95C159.58 -29.85 159.78 -28.56 159.78 -27.1ZM140.59 -18.87C140.59 -18.14 140.76 -17.61 141.1 -17.26C141.44 -16.9 142.11 -16.73 143.11 -16.73C146.35 -16.73 148.38 -16.86 149.2 -17.11C150.55 -17.52 151.68 -18.03 152.6 -18.65C153.52 -19.26 153.98 -19.8 153.98 -20.27C153.98 -20.76 153.56 -21.01 152.72 -21.01L147.59 -21.01C146.85 -21.01 146.48 -21.43 146.48 -22.27L146.48 -32.93C146.48 -33.63 146.26 -34.1 145.82 -34.32C145.38 -34.55 144.61 -34.66 143.52 -34.66C142.52 -34.66 141.78 -34.55 141.3 -34.32C140.83 -34.1 140.59 -33.63 140.59 -32.93ZM146.48 -13.15C146.48 -13.88 146.26 -14.36 145.83 -14.6C145.4 -14.85 144.65 -14.97 143.58 -14.97C142.58 -14.97 141.83 -14.84 141.33 -14.59C140.84 -14.34 140.59 -13.86 140.59 -13.15L140.59 -0.97C140.59 -0.13 140.93 0.29 141.61 0.29C142.18 0.29 142.91 0.07 143.79 -0.38C144.68 -0.83 145.37 -1.35 145.86 -1.93C146.27 -2.4 146.48 -3.12 146.48 -4.07Z M186.69 -17.72C187.07 -17 187.47 -16.64 187.9 -16.64C188.21 -16.64 188.54 -16.83 188.88 -17.2C189.22 -17.57 189.54 -18.02 189.83 -18.54C190.12 -19.07 190.37 -19.63 190.56 -20.21C190.76 -20.8 190.85 -21.32 190.85 -21.77C190.85 -22.41 190.62 -23.23 190.15 -24.23L182.53 -40.49C182.16 -41.29 181.6 -41.69 180.83 -41.69C180.48 -41.69 180.06 -41.6 179.58 -41.43C179.09 -41.25 178.61 -41.01 178.15 -40.71C177.7 -40.41 177.3 -40.06 176.98 -39.67C176.66 -39.28 176.5 -38.87 176.5 -38.44C176.5 -38.05 176.64 -37.64 176.91 -37.21ZM206.41 -39.43C206.7 -40.1 206.85 -40.58 206.85 -40.87C206.85 -41.42 206.53 -41.69 205.88 -41.69C205.22 -41.69 204.35 -41.46 203.26 -41.02C202.18 -40.57 201.33 -40.01 200.73 -39.35C200.34 -38.92 199.92 -38.16 199.47 -37.09L190.42 -15.12C189.69 -13.36 189.31 -11.62 189.27 -9.9L189.1 -0.88C189.1 -0.1 189.43 0.29 190.09 0.29C190.66 0.29 191.39 0.07 192.29 -0.38C193.19 -0.83 193.88 -1.35 194.37 -1.93C194.72 -2.36 194.92 -3.08 194.96 -4.07L195.13 -11.19C195.13 -11.91 195.19 -12.59 195.31 -13.21C195.42 -13.84 195.55 -14.33 195.67 -14.69C195.8 -15.05 196 -15.56 196.27 -16.2Z" fill="#FFFFFF"></path></g><g id="SvgjsG1020" class="text" transform="translate(206.67000137329103, 239.78782272335542) scale(1)" light-content="false" fill="#FFFFFF"><path d="M-40.18 -2.22C-40.18 -1.59 -40.33 -1.03 -40.63 -0.54C-40.74 -0.38 -40.79 -0.28 -40.79 -0.24C-40.79 -0.15 -40.74 -0.1 -40.63 -0.1C-40.48 -0.1 -40.3 -0.17 -40.09 -0.31C-39.88 -0.45 -39.67 -0.64 -39.47 -0.87C-39.27 -1.11 -39.1 -1.42 -38.96 -1.8C-38.82 -2.18 -38.75 -2.58 -38.75 -3C-38.75 -3.37 -38.79 -3.7 -38.88 -3.99C-38.96 -4.29 -39.1 -4.57 -39.31 -4.84C-39.51 -5.12 -39.81 -5.35 -40.21 -5.53C-40.6 -5.72 -41.08 -5.85 -41.65 -5.92C-42.01 -5.96 -42.28 -6 -42.48 -6.04C-42.67 -6.07 -42.87 -6.11 -43.08 -6.17C-43.29 -6.22 -43.45 -6.28 -43.55 -6.35C-43.65 -6.42 -43.75 -6.51 -43.85 -6.63C-43.95 -6.74 -44.03 -6.87 -44.09 -7.02C-44.14 -7.17 -44.2 -7.36 -44.25 -7.58C-44.3 -7.78 -44.4 -7.88 -44.55 -7.88C-44.77 -7.88 -45.03 -7.76 -45.34 -7.52C-45.65 -7.29 -45.81 -7.01 -45.81 -6.71C-45.81 -6.41 -45.75 -6.13 -45.64 -5.87C-45.53 -5.62 -45.34 -5.38 -45.09 -5.15C-44.83 -4.93 -44.48 -4.74 -44.02 -4.58C-43.57 -4.42 -43.02 -4.32 -42.39 -4.26C-41.68 -4.19 -41.13 -4.01 -40.75 -3.71C-40.37 -3.41 -40.18 -2.91 -40.18 -2.22ZM-39.53 -9.74C-39.77 -9.92 -40.1 -10.06 -40.53 -10.16C-40.96 -10.25 -41.38 -10.3 -41.79 -10.3C-43.34 -10.3 -44.55 -9.78 -45.41 -8.74C-45.61 -8.49 -45.71 -8.29 -45.71 -8.14C-45.71 -8.03 -45.67 -7.98 -45.58 -7.98C-45.54 -7.98 -45.5 -7.99 -45.45 -8.02C-45.41 -8.05 -45.34 -8.09 -45.26 -8.14C-45.18 -8.2 -45.11 -8.24 -45.07 -8.26C-44.37 -8.68 -43.56 -8.9 -42.65 -8.9C-42.16 -8.9 -41.61 -8.77 -41 -8.52C-40.95 -8.5 -40.88 -8.47 -40.78 -8.43C-40.68 -8.39 -40.6 -8.36 -40.55 -8.34C-40.49 -8.33 -40.44 -8.32 -40.37 -8.32C-40.15 -8.32 -39.9 -8.44 -39.63 -8.68C-39.36 -8.91 -39.23 -9.11 -39.23 -9.28C-39.23 -9.43 -39.33 -9.58 -39.53 -9.74ZM-43.96 -1.6C-44.18 -1.73 -44.37 -1.8 -44.53 -1.8C-44.78 -1.8 -45.04 -1.69 -45.31 -1.48C-45.58 -1.27 -45.71 -1.06 -45.71 -0.86C-45.71 -0.59 -45.46 -0.33 -44.96 -0.08C-44.46 0.18 -43.94 0.3 -43.39 0.3C-43 0.3 -42.64 0.25 -42.31 0.14C-41.98 0.03 -41.72 -0.11 -41.53 -0.27C-41.34 -0.43 -41.2 -0.58 -41.09 -0.74C-40.99 -0.89 -40.94 -1.02 -40.94 -1.12C-40.94 -1.28 -41.01 -1.36 -41.16 -1.36C-41.18 -1.36 -41.32 -1.32 -41.6 -1.23C-41.88 -1.15 -42.16 -1.1 -42.45 -1.1C-42.68 -1.1 -42.89 -1.13 -43.09 -1.19C-43.29 -1.24 -43.43 -1.29 -43.51 -1.34C-43.59 -1.38 -43.74 -1.47 -43.96 -1.6Z M-36.75 -0.32C-36.75 -0.04 -36.63 0.1 -36.41 0.1C-36.1 0.1 -35.79 -0.02 -35.47 -0.24C-35.15 -0.47 -34.99 -0.76 -34.99 -1.12L-34.99 -14.58C-34.99 -14.86 -35.1 -15 -35.33 -15C-35.64 -15 -35.95 -14.88 -36.27 -14.65C-36.59 -14.42 -36.75 -14.13 -36.75 -13.78Z M-28.67 -10.3C-30.08 -10.3 -31.26 -9.69 -32.21 -8.48C-32.26 -8.41 -32.32 -8.31 -32.4 -8.17C-32.47 -8.04 -32.51 -7.93 -32.51 -7.86C-32.51 -7.75 -32.46 -7.7 -32.37 -7.7C-32.35 -7.7 -32.31 -7.71 -32.28 -7.72C-32.24 -7.74 -32.2 -7.77 -32.16 -7.79C-32.13 -7.82 -32.08 -7.85 -32.01 -7.9C-31.95 -7.94 -31.9 -7.97 -31.87 -8C-30.99 -8.6 -30.15 -8.9 -29.33 -8.9C-28.73 -8.9 -28.23 -8.79 -27.82 -8.57C-27.41 -8.35 -27.09 -8.03 -26.86 -7.61C-26.63 -7.18 -26.46 -6.7 -26.36 -6.16C-26.26 -5.61 -26.21 -4.97 -26.21 -4.24C-26.21 -2.9 -26.34 -1.87 -26.61 -1.14C-26.67 -0.97 -26.74 -0.81 -26.82 -0.68C-26.89 -0.55 -26.96 -0.45 -27 -0.38C-27.05 -0.32 -27.07 -0.26 -27.07 -0.22C-27.07 -0.1 -27 -0.04 -26.87 -0.04C-26.64 -0.04 -26.35 -0.21 -26 -0.56C-25.64 -0.9 -25.34 -1.32 -25.09 -1.82C-24.86 -2.29 -24.68 -2.82 -24.55 -3.42C-24.41 -4.03 -24.35 -4.59 -24.35 -5.12C-24.35 -6.82 -24.7 -8.11 -25.4 -8.99C-26.1 -9.86 -27.19 -10.3 -28.67 -10.3ZM-31.05 -5.39C-31.05 -5.76 -31.02 -6.18 -30.95 -6.65C-30.88 -7.12 -30.85 -7.37 -30.85 -7.4C-30.85 -7.6 -30.93 -7.7 -31.09 -7.7C-31.31 -7.7 -31.57 -7.6 -31.87 -7.4C-32.17 -7.21 -32.39 -6.99 -32.53 -6.76C-32.64 -6.56 -32.73 -6.28 -32.79 -5.91C-32.86 -5.55 -32.89 -5.2 -32.89 -4.86C-32.89 -4.27 -32.86 -3.74 -32.81 -3.27C-32.76 -2.8 -32.66 -2.34 -32.5 -1.87C-32.35 -1.41 -32.15 -1.03 -31.89 -0.72C-31.64 -0.42 -31.3 -0.17 -30.88 0.02C-30.46 0.21 -29.97 0.3 -29.4 0.3C-28.79 0.3 -28.28 0.14 -27.86 -0.2C-27.44 -0.54 -27.23 -0.85 -27.23 -1.14C-27.23 -1.29 -27.29 -1.36 -27.43 -1.36C-27.46 -1.36 -27.6 -1.32 -27.83 -1.23C-28.06 -1.15 -28.33 -1.1 -28.63 -1.1C-28.99 -1.1 -29.3 -1.15 -29.57 -1.25C-29.84 -1.34 -30.06 -1.48 -30.23 -1.68C-30.4 -1.87 -30.55 -2.09 -30.66 -2.32C-30.77 -2.56 -30.86 -2.85 -30.91 -3.2C-30.97 -3.55 -31.01 -3.89 -31.03 -4.22C-31.04 -4.54 -31.05 -4.93 -31.05 -5.39Z M-21.96 -7.34C-22.28 -7.06 -22.43 -6.61 -22.43 -6C-22.43 -5.54 -22.37 -5.13 -22.25 -4.78C-22.12 -4.42 -21.96 -4.13 -21.76 -3.91C-21.56 -3.68 -21.32 -3.5 -21.04 -3.35C-20.76 -3.21 -20.47 -3.11 -20.19 -3.05C-19.9 -2.99 -19.6 -2.96 -19.29 -2.96C-18.58 -2.96 -18.02 -3.11 -17.62 -3.42C-17.22 -3.73 -17.02 -4.02 -17.02 -4.28C-17.02 -4.41 -17.08 -4.48 -17.19 -4.48C-17.23 -4.48 -17.36 -4.44 -17.58 -4.35C-17.79 -4.26 -18.06 -4.22 -18.37 -4.22C-18.58 -4.22 -18.77 -4.23 -18.94 -4.25C-19.11 -4.27 -19.31 -4.32 -19.54 -4.41C-19.78 -4.5 -19.97 -4.62 -20.12 -4.78C-20.28 -4.93 -20.41 -5.16 -20.52 -5.47C-20.64 -5.78 -20.69 -6.15 -20.69 -6.57C-20.69 -6.77 -20.68 -6.98 -20.66 -7.2C-20.64 -7.42 -20.62 -7.56 -20.62 -7.61C-20.62 -7.8 -20.71 -7.89 -20.88 -7.89C-21.02 -7.89 -21.2 -7.83 -21.43 -7.7C-21.65 -7.57 -21.83 -7.45 -21.96 -7.34ZM-15.71 -7.78C-15.97 -7.78 -16.16 -7.77 -16.29 -7.74C-16.43 -7.72 -16.51 -7.69 -16.53 -7.67C-16.55 -7.64 -16.56 -7.61 -16.56 -7.57C-16.56 -7.54 -16.54 -7.49 -16.5 -7.43C-16.37 -7.23 -16.26 -6.95 -16.19 -6.6C-16.12 -6.25 -16.08 -5.96 -16.08 -5.74C-16.08 -5.41 -16.12 -5.1 -16.19 -4.82C-16.26 -4.54 -16.34 -4.33 -16.43 -4.19C-16.51 -4.05 -16.59 -3.93 -16.66 -3.81C-16.73 -3.7 -16.77 -3.62 -16.77 -3.57C-16.77 -3.46 -16.71 -3.4 -16.59 -3.4C-16.45 -3.4 -16.22 -3.53 -15.91 -3.78C-15.6 -4.03 -15.37 -4.28 -15.21 -4.52C-14.79 -5.15 -14.59 -5.83 -14.59 -6.56C-14.59 -7.01 -14.67 -7.34 -14.83 -7.55C-14.96 -7.71 -15.26 -7.78 -15.71 -7.78ZM-15.97 5.18C-16.07 5.26 -16.12 5.34 -16.12 5.4C-16.12 5.5 -16.06 5.56 -15.93 5.56C-15.68 5.54 -15.41 5.46 -15.13 5.3C-14.84 5.14 -14.57 4.93 -14.32 4.67C-14.07 4.42 -13.86 4.09 -13.7 3.71C-13.53 3.32 -13.45 2.91 -13.45 2.48C-13.45 2.04 -13.5 1.65 -13.6 1.3C-13.71 0.95 -13.84 0.65 -14.01 0.42C-14.18 0.18 -14.4 -0.03 -14.67 -0.21C-14.94 -0.38 -15.22 -0.52 -15.5 -0.62C-15.79 -0.72 -16.12 -0.8 -16.5 -0.86C-16.89 -0.92 -17.25 -0.96 -17.59 -0.97C-17.93 -0.99 -18.33 -1 -18.77 -1C-19.12 -1 -19.41 -1 -19.62 -1.01C-19.84 -1.02 -20.06 -1.04 -20.27 -1.06C-20.48 -1.09 -20.64 -1.13 -20.75 -1.19C-20.86 -1.24 -20.95 -1.32 -21.02 -1.41C-21.09 -1.51 -21.12 -1.62 -21.12 -1.76C-21.12 -1.91 -21.09 -2.09 -21.01 -2.28C-20.94 -2.46 -20.9 -2.58 -20.9 -2.63C-20.9 -2.74 -20.96 -2.8 -21.07 -2.8C-21.3 -2.8 -21.56 -2.64 -21.87 -2.31C-22.17 -1.98 -22.32 -1.58 -22.32 -1.1C-22.32 -0.82 -22.28 -0.57 -22.2 -0.37C-22.12 -0.16 -21.98 0 -21.77 0.13C-21.57 0.26 -21.37 0.36 -21.19 0.43C-21.01 0.51 -20.74 0.56 -20.37 0.6C-20.01 0.64 -19.71 0.66 -19.48 0.66C-19.25 0.67 -18.9 0.68 -18.43 0.68C-17.26 0.7 -16.38 0.89 -15.8 1.26C-15.22 1.63 -14.93 2.28 -14.93 3.19C-14.93 3.57 -15.02 3.94 -15.2 4.3C-15.37 4.65 -15.63 4.95 -15.97 5.18ZM-14.27 -8.43C-14.06 -8.51 -13.85 -8.65 -13.64 -8.86C-13.43 -9.07 -13.33 -9.25 -13.33 -9.4C-13.33 -9.55 -13.43 -9.62 -13.64 -9.62L-15.5 -9.62C-15.8 -9.62 -16.14 -9.7 -16.52 -9.86C-17.21 -10.16 -17.93 -10.3 -18.67 -10.3C-18.93 -10.3 -19.19 -10.28 -19.46 -10.23C-19.72 -10.19 -20.01 -10.11 -20.34 -9.99C-20.66 -9.87 -20.98 -9.69 -21.29 -9.43C-21.6 -9.17 -21.88 -8.86 -22.13 -8.5C-22.3 -8.26 -22.38 -8.08 -22.38 -7.98C-22.38 -7.86 -22.33 -7.8 -22.23 -7.8C-22.18 -7.8 -22.03 -7.89 -21.77 -8.08C-21.31 -8.38 -20.85 -8.6 -20.41 -8.72C-19.97 -8.84 -19.61 -8.9 -19.33 -8.9C-18.81 -8.9 -18.21 -8.76 -17.53 -8.5C-17.15 -8.35 -16.57 -8.27 -15.78 -8.27C-15.05 -8.27 -14.54 -8.32 -14.27 -8.43ZM-22.65 3.4C-22.65 3.83 -22.54 4.21 -22.33 4.55C-22.12 4.88 -21.84 5.14 -21.5 5.33C-21.17 5.52 -20.82 5.66 -20.45 5.76C-20.09 5.85 -19.74 5.9 -19.38 5.9C-18.83 5.9 -18.32 5.83 -17.86 5.71C-17.39 5.58 -17.02 5.43 -16.75 5.24C-16.48 5.06 -16.27 4.88 -16.13 4.7C-15.98 4.52 -15.91 4.37 -15.91 4.24C-15.91 4.12 -15.97 4.06 -16.08 4.06C-16.09 4.06 -16.19 4.1 -16.39 4.17C-16.59 4.24 -16.86 4.31 -17.2 4.38C-17.54 4.46 -17.87 4.49 -18.2 4.49C-19.11 4.49 -19.83 4.32 -20.38 3.98C-20.92 3.64 -21.19 3.16 -21.19 2.56C-21.19 2.23 -21.16 1.92 -21.1 1.62C-21.04 1.32 -21.01 1.16 -21.01 1.14C-21.01 1.01 -21.07 0.95 -21.19 0.95C-21.45 0.95 -21.75 1.19 -22.11 1.68C-22.47 2.17 -22.65 2.74 -22.65 3.4Z M-7.85 -10.3C-9.21 -10.3 -10.33 -9.76 -11.21 -8.68C-11.41 -8.43 -11.51 -8.22 -11.51 -8.04C-11.51 -7.93 -11.46 -7.88 -11.37 -7.88C-11.28 -7.88 -11.1 -7.98 -10.81 -8.16C-10.09 -8.65 -9.28 -8.9 -8.4 -8.9C-6.87 -8.9 -6.11 -7.94 -6.11 -6.02L-6.11 -0.32C-6.11 -0.04 -6 0.1 -5.77 0.1C-5.65 0.1 -5.5 0.07 -5.34 0C-5.17 -0.06 -5.01 -0.14 -4.87 -0.25C-4.72 -0.36 -4.6 -0.48 -4.5 -0.62C-4.4 -0.77 -4.35 -0.92 -4.35 -1.08L-4.35 -6.38C-4.35 -7.08 -4.43 -7.68 -4.58 -8.18C-4.74 -8.68 -4.97 -9.08 -5.27 -9.4C-5.57 -9.72 -5.94 -9.94 -6.38 -10.09C-6.81 -10.23 -7.3 -10.3 -7.85 -10.3ZM-6.86 -0.55C-6.69 -0.7 -6.6 -0.93 -6.6 -1.23C-6.6 -1.47 -6.65 -1.59 -6.74 -1.59C-6.8 -1.59 -6.88 -1.56 -7 -1.48C-7.2 -1.37 -7.43 -1.27 -7.71 -1.21C-7.99 -1.14 -8.23 -1.1 -8.43 -1.1C-9.08 -1.1 -9.53 -1.27 -9.79 -1.61C-10.04 -1.94 -10.17 -2.48 -10.17 -3.22C-10.17 -3.33 -10.19 -3.4 -10.24 -3.46C-10.3 -3.51 -10.36 -3.54 -10.43 -3.54C-10.65 -3.54 -10.91 -3.42 -11.21 -3.18C-11.54 -2.93 -11.71 -2.56 -11.71 -2.08C-11.71 -1.41 -11.48 -0.84 -11.02 -0.39C-10.56 0.07 -9.9 0.3 -9.03 0.3C-8.66 0.3 -8.27 0.22 -7.87 0.06C-7.47 -0.1 -7.13 -0.3 -6.86 -0.55ZM-6.93 -5.82C-7.34 -6.02 -7.8 -6.12 -8.33 -6.12C-9.02 -6.12 -9.65 -5.97 -10.21 -5.67C-10.77 -5.37 -11.23 -4.93 -11.57 -4.35C-11.7 -4.13 -11.77 -3.93 -11.77 -3.75C-11.77 -3.63 -11.72 -3.57 -11.61 -3.57C-11.53 -3.57 -11.38 -3.67 -11.15 -3.85C-10.43 -4.43 -9.67 -4.72 -8.87 -4.72C-8.37 -4.72 -7.82 -4.58 -7.21 -4.32C-7.08 -4.26 -6.98 -4.23 -6.9 -4.23C-6.79 -4.23 -6.72 -4.29 -6.67 -4.4C-6.63 -4.51 -6.61 -4.7 -6.61 -4.96C-6.61 -5.25 -6.63 -5.45 -6.68 -5.56C-6.73 -5.67 -6.81 -5.76 -6.93 -5.82Z M-1.93 -0.32C-1.93 -0.04 -1.82 0.1 -1.59 0.1C-1.29 0.1 -0.98 -0.02 -0.66 -0.26C-0.34 -0.5 -0.18 -0.8 -0.18 -1.16L-0.18 -6.78C-0.18 -7.06 -0.28 -7.2 -0.48 -7.2C-0.62 -7.2 -0.8 -7.12 -1.04 -6.96C-1.29 -6.8 -1.49 -6.62 -1.67 -6.42C-1.85 -6.22 -1.93 -5.94 -1.93 -5.58ZM0.36 -9.47C0.2 -9.35 0.07 -9.29 -0.02 -9.29C-0.12 -9.29 -0.18 -9.4 -0.18 -9.64L-0.18 -9.88C-0.18 -10.16 -0.29 -10.3 -0.52 -10.3C-0.82 -10.3 -1.13 -10.18 -1.45 -9.94C-1.77 -9.69 -1.93 -9.39 -1.93 -9.04L-1.93 -7.49C-1.93 -7.27 -1.87 -7.16 -1.74 -7.16C-1.62 -7.16 -1.46 -7.24 -1.25 -7.4C0.05 -8.4 1.08 -8.9 1.83 -8.9C2.2 -8.9 2.52 -8.85 2.78 -8.77C3.05 -8.68 3.27 -8.53 3.43 -8.31C3.6 -8.09 3.73 -7.87 3.83 -7.66C3.93 -7.45 4 -7.13 4.04 -6.69C4.08 -6.25 4.11 -5.88 4.12 -5.57C4.13 -5.25 4.13 -4.79 4.13 -4.18L4.13 -0.32C4.13 -0.04 4.24 0.1 4.47 0.1C4.78 0.1 5.09 -0.02 5.41 -0.27C5.73 -0.51 5.89 -0.81 5.89 -1.16L5.89 -6.16C5.89 -7.65 5.63 -8.72 5.1 -9.35C4.57 -9.99 3.74 -10.3 2.61 -10.3C2.29 -10.3 1.93 -10.23 1.52 -10.09C1.12 -9.95 0.73 -9.75 0.36 -9.47Z M14.62 -9.44C14.47 -9.33 14.36 -9.28 14.28 -9.28C14.15 -9.28 14.08 -9.42 14.08 -9.7L14.12 -14.58C14.12 -14.86 14.01 -15 13.78 -15C13.49 -15 13.19 -14.88 12.86 -14.65C12.53 -14.41 12.36 -14.12 12.36 -13.78L12.36 -7.45C12.36 -7.26 12.43 -7.16 12.56 -7.16C12.68 -7.16 12.84 -7.24 13.05 -7.4C14.33 -8.4 15.37 -8.9 16.16 -8.9C16.52 -8.9 16.83 -8.85 17.08 -8.77C17.33 -8.68 17.54 -8.53 17.7 -8.31C17.86 -8.08 17.99 -7.86 18.08 -7.66C18.17 -7.45 18.23 -7.12 18.28 -6.68C18.32 -6.25 18.34 -5.87 18.35 -5.56C18.36 -5.25 18.37 -3.51 18.36 -0.32C18.36 -0.04 18.47 0.1 18.7 0.1C19 0.1 19.31 -0.02 19.63 -0.27C19.96 -0.51 20.12 -0.81 20.12 -1.16L20.12 -6.14C20.12 -7.61 19.87 -8.67 19.38 -9.32C18.9 -9.98 18.12 -10.3 17.06 -10.3C16.28 -10.3 15.47 -10.02 14.62 -9.44ZM12.36 -0.32C12.36 -0.04 12.48 0.1 12.71 0.1C12.99 0.1 13.29 -0.02 13.62 -0.24C13.96 -0.47 14.12 -0.76 14.12 -1.11L14.12 -6.76C14.12 -7.04 14.02 -7.18 13.82 -7.18C13.69 -7.18 13.5 -7.1 13.25 -6.93C13 -6.77 12.8 -6.59 12.63 -6.4C12.45 -6.2 12.36 -5.92 12.36 -5.56Z M24.01 -6.22C24.01 -6.32 24.05 -6.53 24.11 -6.83C24.18 -7.13 24.21 -7.32 24.21 -7.4C24.21 -7.6 24.13 -7.7 23.97 -7.7C23.81 -7.7 23.56 -7.6 23.23 -7.41C22.9 -7.22 22.63 -6.94 22.42 -6.58C22.21 -6.22 22.11 -5.67 22.11 -4.95C22.11 -4.68 22.26 -4.54 22.55 -4.52C23.14 -4.47 23.67 -4.44 24.14 -4.44C25.81 -4.44 27.13 -4.72 28.1 -5.27C29.07 -5.82 29.55 -6.6 29.55 -7.62C29.55 -8.09 29.47 -8.51 29.31 -8.86C29.14 -9.22 28.92 -9.5 28.62 -9.7C28.33 -9.91 27.99 -10.06 27.62 -10.16C27.24 -10.25 26.82 -10.3 26.35 -10.3C25.98 -10.3 25.62 -10.25 25.24 -10.16C24.87 -10.06 24.46 -9.87 24.01 -9.58C23.56 -9.29 23.16 -8.93 22.81 -8.48C22.62 -8.24 22.53 -8.04 22.53 -7.88C22.53 -7.76 22.58 -7.7 22.7 -7.7C22.76 -7.7 22.92 -7.79 23.17 -7.98C24.03 -8.59 24.94 -8.9 25.91 -8.9C26.53 -8.9 26.98 -8.77 27.26 -8.53C27.54 -8.29 27.68 -7.96 27.68 -7.56C27.68 -7.32 27.63 -7.11 27.53 -6.91C27.44 -6.72 27.29 -6.53 27.07 -6.36C26.86 -6.18 26.55 -6.04 26.14 -5.95C25.74 -5.85 25.25 -5.8 24.69 -5.8C24.47 -5.8 24.3 -5.83 24.18 -5.87C24.07 -5.92 24.01 -6.04 24.01 -6.22ZM22.19 -3.5C22.19 -2.38 22.51 -1.46 23.16 -0.76C23.81 -0.05 24.72 0.3 25.89 0.3C26.46 0.3 26.98 0.22 27.47 0.05C27.95 -0.11 28.33 -0.31 28.61 -0.54C28.89 -0.77 29.1 -1 29.25 -1.21C29.4 -1.43 29.47 -1.6 29.47 -1.74C29.47 -1.9 29.4 -1.98 29.25 -1.98C29.18 -1.98 29.06 -1.94 28.91 -1.85C28.76 -1.75 28.59 -1.65 28.41 -1.54C28.23 -1.43 27.98 -1.33 27.66 -1.24C27.33 -1.15 26.98 -1.1 26.61 -1.1C25.13 -1.1 24.27 -1.89 24.01 -3.48C23.97 -3.7 23.92 -3.84 23.85 -3.91C23.78 -3.97 23.67 -4 23.5 -4L22.66 -4C22.34 -4 22.19 -3.83 22.19 -3.5Z M31.53 -0.32C31.53 -0.04 31.65 0.1 31.88 0.1C32.18 0.1 32.49 -0.02 32.81 -0.25C33.13 -0.48 33.29 -0.77 33.29 -1.13L33.29 -6.46C33.29 -6.74 33.19 -6.88 32.99 -6.88C32.85 -6.88 32.66 -6.8 32.42 -6.64C32.18 -6.47 31.97 -6.29 31.8 -6.08C31.62 -5.89 31.53 -5.61 31.53 -5.24ZM35.73 -10.3C35.12 -10.3 34.47 -9.95 33.77 -9.26C33.61 -9.1 33.5 -9.02 33.43 -9.02C33.34 -9.02 33.29 -9.13 33.29 -9.34L33.29 -9.88C33.29 -10.16 33.18 -10.3 32.95 -10.3C32.65 -10.3 32.34 -10.19 32.02 -9.95C31.69 -9.72 31.53 -9.42 31.53 -9.07L31.53 -7.18C31.53 -6.94 31.6 -6.82 31.75 -6.82C31.85 -6.82 31.97 -6.88 32.11 -7C32.27 -7.15 32.5 -7.35 32.79 -7.62C33.08 -7.89 33.28 -8.08 33.4 -8.18C33.52 -8.28 33.68 -8.4 33.87 -8.54C34.06 -8.68 34.22 -8.77 34.37 -8.82C34.51 -8.87 34.66 -8.9 34.81 -8.9C35.06 -8.9 35.34 -8.82 35.63 -8.68C35.95 -8.52 36.2 -8.44 36.38 -8.44C36.59 -8.44 36.83 -8.55 37.1 -8.77C37.37 -9 37.51 -9.22 37.51 -9.42C37.51 -9.68 37.31 -9.9 36.9 -10.06C36.49 -10.22 36.1 -10.3 35.73 -10.3Z M40.31 -6.22C40.31 -6.32 40.35 -6.53 40.41 -6.83C40.48 -7.13 40.51 -7.32 40.51 -7.4C40.51 -7.6 40.43 -7.7 40.27 -7.7C40.1 -7.7 39.86 -7.6 39.53 -7.41C39.2 -7.22 38.93 -6.94 38.72 -6.58C38.51 -6.22 38.41 -5.67 38.41 -4.95C38.41 -4.68 38.55 -4.54 38.85 -4.52C39.44 -4.47 39.97 -4.44 40.44 -4.44C42.11 -4.44 43.43 -4.72 44.4 -5.27C45.37 -5.82 45.85 -6.6 45.85 -7.62C45.85 -8.09 45.77 -8.51 45.61 -8.86C45.44 -9.22 45.21 -9.5 44.92 -9.7C44.63 -9.91 44.29 -10.06 43.92 -10.16C43.54 -10.25 43.12 -10.3 42.65 -10.3C42.28 -10.3 41.91 -10.25 41.54 -10.16C41.17 -10.06 40.76 -9.87 40.31 -9.58C39.86 -9.29 39.46 -8.93 39.11 -8.48C38.92 -8.24 38.83 -8.04 38.83 -7.88C38.83 -7.76 38.88 -7.7 38.99 -7.7C39.06 -7.7 39.22 -7.79 39.47 -7.98C40.33 -8.59 41.24 -8.9 42.21 -8.9C42.83 -8.9 43.27 -8.77 43.55 -8.53C43.83 -8.29 43.97 -7.96 43.97 -7.56C43.97 -7.32 43.93 -7.11 43.83 -6.91C43.74 -6.72 43.58 -6.53 43.37 -6.36C43.15 -6.18 42.85 -6.04 42.44 -5.95C42.04 -5.85 41.55 -5.8 40.99 -5.8C40.76 -5.8 40.6 -5.83 40.48 -5.87C40.37 -5.92 40.31 -6.04 40.31 -6.22ZM38.49 -3.5C38.49 -2.38 38.81 -1.46 39.46 -0.76C40.11 -0.05 41.02 0.3 42.19 0.3C42.75 0.3 43.28 0.22 43.76 0.05C44.25 -0.11 44.63 -0.31 44.91 -0.54C45.18 -0.77 45.4 -1 45.55 -1.21C45.7 -1.43 45.77 -1.6 45.77 -1.74C45.77 -1.9 45.7 -1.98 45.55 -1.98C45.48 -1.98 45.36 -1.94 45.21 -1.85C45.06 -1.75 44.89 -1.65 44.71 -1.54C44.53 -1.43 44.28 -1.33 43.96 -1.24C43.63 -1.15 43.28 -1.1 42.91 -1.1C41.43 -1.1 40.57 -1.89 40.31 -3.48C40.27 -3.7 40.22 -3.84 40.15 -3.91C40.08 -3.97 39.96 -4 39.79 -4L38.96 -4C38.64 -4 38.49 -3.83 38.49 -3.5Z" fill="#FFFFFF"></path></g></g></svg>