<svg xmlns:xlink="http://www.w3.org/1999/xlink" xmlns="http://www.w3.org/2000/svg" width="300" height="62.58639144897461" preserveAspectRatio="xMidYMid meet" viewBox="0 0 300 62.58639144897461" overflow="visible"><defs id="SvgjsDefs1052"></defs><g id="SvgjsG1053" transform="scale(0.44825467559510285)" opacity="1"><g id="SvgjsG1054" class="HWd4yWdWp" transform="translate(0, 0) scale(1.396224)" light-content="false" non-strokable="false" fill="#FFFFFF"><path d="M0 0h100v100H0z" fill="#FFFFFF"></path></g><g id="SvgjsG1055" class="2Q7GaqYHA5" transform="translate(27.23415014992353, 27.240949389843742) scale(0.8513367721750286)" light-content="true" non-strokable="false" fill="#F18109"><path d="M83.484 72.887l-.719-4.758-.707-4.262-2.523-3.21-7.469-1.067-3.625-.46-2.45-3.985-5.913-7.156-2.887-4.047-1.543-4.297-.3-4.774-.7-5.324.113-9.656-.586-3.809-2.445-4.402-3.617-2.473-4.598-1.324-2.781-.593-2.582-1.895-.152.207-.133.04.031.105-.012.015.961 3.277-2.379 2.989-5.32 8.875 2.918 2.543 2.578-1.824 4.235-1.793 3.386-1.04-1.469 4.325-7.503 4.144-1.743 1.957-3.113-2.664-7.691-1.922-2.93-.449-2 1.629-1.688 2.637-1.3 4.23 4.894-2.687-.347-1.91 1.382-1.383 4.512 2.406-3.11 7.015 3.301 6.641 1.774-4.906-1.317-1.438-.66-1.25 2.563-3.855 4.969 9.265 3.316 3.22 2.36 4.566 4.195 5.132 5.047 4.805 4.566 3.77-.348 3.855.227 3.445 1.531 4.23a2662.56 2662.56 0 0 1 1.156 9.829c-.32.363-1.12 1.48-3.52 4.828l-2.527 2.207-2.699 4.152h10.328l-.691-2.66 4.664-7.328.906-3.832-.73-4.316 2.23-5.348 3.531-2.36 1.739-4.789 1.937-.562.801 2.852 4.602.617 1.683 4.937L80 73.238l5.196 6.223z" fill="#F18109"></path></g><g id="SvgjsG1056" class="text" transform="translate(426.4424073242188, 74.09119938964844) scale(1)" light-content="false" fill="#FFFFFF"><path d="M-230.82 0L-219.9 0L-219.9 -32.22L-206.88 -32.22L-207.9 -40.8L-242.82 -40.8L-242.82 -32.22L-230.82 -32.22Z M-171 -16.14C-171 -13.58 -171.69 -11.63 -173.07 -10.29C-174.45 -8.95 -176.22 -8.28 -178.38 -8.28C-180.54 -8.28 -182.31 -8.95 -183.69 -10.29C-185.07 -11.63 -185.76 -13.58 -185.76 -16.14L-185.76 -40.8L-196.68 -40.8L-196.68 -15.6C-196.68 -10.28 -194.99 -6.21 -191.61 -3.39C-188.23 -0.57 -183.82 0.84 -178.38 0.84C-172.94 0.84 -168.53 -0.57 -165.15 -3.39C-161.77 -6.21 -160.08 -10.28 -160.08 -15.6L-160.08 -40.8L-171 -40.8Z M-137.88 0L-126.96 0L-126.96 -32.22L-113.94 -32.22L-114.96 -40.8L-149.88 -40.8L-149.88 -32.22L-137.88 -32.22Z M-103.14 0L-92.22 0L-92.22 -40.8L-103.14 -40.8Z M-51.12 -30.84L-47.88 -38.22C-49.48 -39.3 -51.37 -40.13 -53.55 -40.71C-55.73 -41.29 -57.84 -41.58 -59.88 -41.58C-65.92 -41.58 -70.72 -39.59 -74.28 -35.61C-77.84 -31.63 -79.62 -26.5 -79.62 -20.22C-79.62 -14.06 -77.95 -9.02 -74.61 -5.1C-71.27 -1.18 -66.28 0.78 -59.64 0.78C-57.56 0.78 -55.41 0.52 -53.19 0C-50.97 -0.52 -49.06 -1.26 -47.46 -2.22L-51.6 -10.38C-52.64 -9.74 -53.82 -9.21 -55.14 -8.79C-56.46 -8.37 -57.86 -8.16 -59.34 -8.16C-61.9 -8.16 -64.04 -9.22 -65.76 -11.34C-67.48 -13.46 -68.34 -16.44 -68.34 -20.28C-68.34 -24 -67.52 -26.99 -65.88 -29.25C-64.24 -31.51 -62.2 -32.64 -59.76 -32.64C-58.4 -32.64 -57.16 -32.53 -56.04 -32.31C-54.92 -32.09 -53.28 -31.6 -51.12 -30.84Z M-37.26 -20.22C-37.26 -14.38 -35.58 -9.41 -32.22 -5.31C-28.86 -1.21 -23.92 0.84 -17.4 0.84C-11.16 0.84 -6.28 -1.16 -2.76 -5.16C0.76 -9.16 2.52 -14.32 2.52 -20.64C2.52 -26.48 0.86 -31.44 -2.46 -35.52C-5.78 -39.6 -10.76 -41.64 -17.4 -41.64C-23.52 -41.64 -28.36 -39.64 -31.92 -35.64C-35.48 -31.64 -37.26 -26.5 -37.26 -20.22ZM-26.04 -20.28C-26.04 -23.96 -25.26 -26.92 -23.7 -29.16C-22.14 -31.4 -20 -32.52 -17.28 -32.52C-14.24 -32.52 -12.05 -31.39 -10.71 -29.13C-9.37 -26.87 -8.7 -24.04 -8.7 -20.64C-8.7 -16.52 -9.46 -13.43 -10.98 -11.37C-12.5 -9.31 -14.66 -8.28 -17.46 -8.28C-20.54 -8.28 -22.74 -9.42 -24.06 -11.7C-25.38 -13.98 -26.04 -16.84 -26.04 -20.28Z M40.2 -16.14C40.2 -13.58 39.51 -11.63 38.13 -10.29C36.75 -8.95 34.98 -8.28 32.82 -8.28C30.66 -8.28 28.89 -8.95 27.51 -10.29C26.13 -11.63 25.44 -13.58 25.44 -16.14L25.44 -40.8L14.52 -40.8L14.52 -15.6C14.52 -10.28 16.21 -6.21 19.59 -3.39C22.97 -0.57 27.38 0.84 32.82 0.84C38.26 0.84 42.67 -0.57 46.05 -3.39C49.43 -6.21 51.12 -10.28 51.12 -15.6L51.12 -40.8L40.2 -40.8Z M64.92 0L75.84 0L75.84 -21.48L91.5 0L101.7 0L101.7 -40.8L90.78 -40.8L90.78 -18.66L75.06 -40.8L64.92 -40.8Z M124.5 0L135.42 0L135.42 -32.22L148.44 -32.22L147.42 -40.8L112.5 -40.8L112.5 -32.22L124.5 -32.22Z M176.04 -32.22C177.88 -32.22 179.32 -31.78 180.36 -30.9C181.4 -30.02 181.92 -28.68 181.92 -26.88C181.92 -25.28 181.38 -23.97 180.3 -22.95C179.22 -21.93 177.84 -21.42 176.16 -21.42L170.16 -21.42L170.16 -32.22ZM159.24 0L170.16 0L170.16 -12.84L177.42 -12.84L184.02 0L196.68 0L187.68 -16.08C189.32 -17.2 190.65 -18.66 191.67 -20.46C192.69 -22.26 193.2 -24.4 193.2 -26.88C193.2 -31.8 191.53 -35.35 188.19 -37.53C184.85 -39.71 180.92 -40.8 176.4 -40.8L159.24 -40.8Z M217.74 0L228.66 0L228.66 -15.96L242.82 -40.8L231.6 -40.8L223.14 -26.1L215.22 -40.8L203.88 -39.72L217.74 -16.08Z" fill="#FFFFFF"></path></g><g id="SvgjsG1057" class="text" transform="translate(235.45240183105471, 103.05119988555909) scale(1)" light-content="false" fill="#FFFFFF"><path d="M-45.51 -7.08L-44.73 -8.94C-45.22 -9.27 -45.8 -9.53 -46.45 -9.7C-47.1 -9.87 -47.64 -9.96 -48.05 -9.96C-49.21 -9.96 -50.13 -9.7 -50.81 -9.17C-51.49 -8.64 -51.83 -7.92 -51.83 -7C-51.83 -6.2 -51.49 -5.56 -50.8 -5.09C-50.11 -4.62 -49.38 -4.25 -48.61 -4C-48.06 -3.83 -47.66 -3.63 -47.41 -3.42C-47.16 -3.21 -47.03 -2.97 -47.03 -2.7C-47.03 -2.49 -47.16 -2.31 -47.41 -2.18C-47.66 -2.05 -48.03 -1.98 -48.51 -1.98C-48.87 -1.98 -49.27 -2.04 -49.7 -2.15C-50.13 -2.26 -50.58 -2.43 -51.05 -2.64L-51.83 -0.76C-51.38 -0.41 -50.81 -0.16 -50.12 0C-49.43 0.16 -48.88 0.24 -48.47 0.24C-47.15 0.24 -46.15 -0.03 -45.46 -0.56C-44.77 -1.09 -44.43 -1.84 -44.43 -2.8C-44.43 -3.64 -44.78 -4.32 -45.47 -4.85C-46.16 -5.38 -46.92 -5.79 -47.73 -6.08C-48.22 -6.25 -48.58 -6.41 -48.8 -6.56C-49.02 -6.71 -49.13 -6.86 -49.13 -7.02C-49.13 -7.25 -49.04 -7.42 -48.86 -7.55C-48.68 -7.68 -48.42 -7.74 -48.09 -7.74C-47.64 -7.74 -47.21 -7.68 -46.81 -7.57C-46.41 -7.46 -45.98 -7.29 -45.51 -7.08Z M-39.85 -14.12L-42.43 -13.9L-42.43 0L-39.85 0Z M-32.77 0.24C-31.2 0.24 -29.93 -0.21 -28.97 -1.11C-28.01 -2.01 -27.53 -3.23 -27.53 -4.78C-27.53 -6.33 -27.97 -7.58 -28.86 -8.53C-29.75 -9.48 -31 -9.96 -32.61 -9.96C-34.17 -9.96 -35.4 -9.5 -36.3 -8.58C-37.2 -7.66 -37.65 -6.43 -37.65 -4.88C-37.65 -3.32 -37.22 -2.08 -36.36 -1.15C-35.5 -0.22 -34.3 0.24 -32.77 0.24ZM-30.21 -4.78C-30.21 -3.81 -30.44 -3.1 -30.91 -2.65C-31.38 -2.2 -31.98 -1.98 -32.73 -1.98C-33.49 -1.98 -34.05 -2.23 -34.42 -2.72C-34.79 -3.21 -34.97 -3.94 -34.97 -4.9C-34.97 -5.86 -34.76 -6.57 -34.33 -7.04C-33.9 -7.51 -33.31 -7.74 -32.55 -7.74C-31.8 -7.74 -31.23 -7.48 -30.82 -6.95C-30.41 -6.42 -30.21 -5.7 -30.21 -4.78Z M-20.75 -7.86C-20.44 -7.86 -20.12 -7.79 -19.78 -7.66C-19.44 -7.53 -19.12 -7.36 -18.83 -7.16L-18.83 -2.68C-19.12 -2.49 -19.44 -2.33 -19.78 -2.19C-20.12 -2.05 -20.44 -1.98 -20.75 -1.98C-21.72 -1.98 -22.37 -2.28 -22.69 -2.88C-23.01 -3.48 -23.17 -4.16 -23.17 -4.92C-23.17 -5.6 -22.99 -6.26 -22.64 -6.9C-22.29 -7.54 -21.66 -7.86 -20.75 -7.86ZM-16.21 -9.7L-17.57 -9.7L-18.17 -8.9C-18.6 -9.27 -19.11 -9.56 -19.71 -9.77C-20.31 -9.98 -20.85 -10.08 -21.33 -10.08C-22.73 -10.08 -23.83 -9.59 -24.64 -8.6C-25.45 -7.61 -25.85 -6.39 -25.85 -4.92C-25.85 -3.45 -25.47 -2.23 -24.71 -1.24C-23.95 -0.25 -22.86 0.24 -21.45 0.24C-21.05 0.24 -20.62 0.17 -20.15 0.03C-19.68 -0.11 -19.24 -0.3 -18.83 -0.54L-18.83 -0.04C-18.83 0.6 -19.04 1.1 -19.45 1.47C-19.86 1.84 -20.46 2.02 -21.23 2.02C-21.72 2.02 -22.18 1.95 -22.61 1.82C-23.04 1.69 -23.55 1.47 -24.15 1.18L-24.93 3.02C-24.41 3.37 -23.76 3.64 -22.97 3.83C-22.18 4.02 -21.58 4.12 -21.17 4.12C-19.45 4.12 -18.19 3.72 -17.4 2.93C-16.61 2.14 -16.21 1.15 -16.21 -0.02Z M-11.67 -2.9C-11.67 -3.25 -11.55 -3.56 -11.3 -3.84C-11.05 -4.12 -10.7 -4.26 -10.25 -4.26L-8.29 -4.26L-8.29 -2.78C-8.62 -2.46 -8.97 -2.22 -9.34 -2.06C-9.71 -1.9 -10.07 -1.82 -10.43 -1.82C-10.8 -1.82 -11.1 -1.93 -11.33 -2.15C-11.56 -2.37 -11.67 -2.62 -11.67 -2.9ZM-10.39 0.24C-9.91 0.24 -9.43 0.13 -8.94 -0.08C-8.45 -0.29 -8.03 -0.54 -7.67 -0.82L-7.03 0L-5.69 0L-5.69 -6.38C-5.69 -7.42 -6.1 -8.28 -6.93 -8.95C-7.76 -9.62 -8.75 -9.96 -9.91 -9.96C-10.32 -9.96 -10.91 -9.88 -11.68 -9.71C-12.45 -9.54 -13.02 -9.33 -13.39 -9.08L-12.69 -6.92C-12.33 -7.09 -11.88 -7.24 -11.35 -7.37C-10.82 -7.5 -10.32 -7.56 -9.87 -7.56C-9.39 -7.56 -9.01 -7.42 -8.74 -7.15C-8.47 -6.88 -8.32 -6.49 -8.31 -6L-10.21 -6C-11.3 -6 -12.19 -5.73 -12.87 -5.2C-13.55 -4.67 -13.89 -3.9 -13.89 -2.9C-13.89 -1.97 -13.6 -1.21 -13.03 -0.63C-12.46 -0.05 -11.58 0.24 -10.39 0.24Z M-1.15 -8.66L-1.93 -9.7L-3.29 -9.7L-3.29 0L-0.69 0L-0.69 -6.9C-0.36 -7.15 0.01 -7.38 0.42 -7.57C0.83 -7.76 1.22 -7.86 1.59 -7.86C2.15 -7.86 2.58 -7.7 2.87 -7.37C3.16 -7.04 3.31 -6.57 3.31 -5.96L3.31 0L5.91 0L5.91 -6.08C5.91 -7.2 5.63 -8.15 5.08 -8.92C4.53 -9.69 3.59 -10.08 2.27 -10.08C1.75 -10.08 1.16 -9.95 0.5 -9.7C-0.16 -9.45 -0.71 -9.1 -1.15 -8.66Z M15.75 -9.06L15.75 -14.12L13.17 -13.9L13.17 0L15.75 0L15.75 -6.9C16.08 -7.15 16.45 -7.38 16.85 -7.57C17.25 -7.76 17.64 -7.86 18.01 -7.86C18.58 -7.86 19.02 -7.7 19.31 -7.37C19.6 -7.04 19.75 -6.57 19.75 -5.96L19.75 0L22.35 0L22.35 -6.08C22.35 -7.2 22.07 -8.15 21.52 -8.92C20.97 -9.69 20.03 -10.08 18.71 -10.08C18.27 -10.08 17.77 -9.99 17.22 -9.82C16.67 -9.65 16.18 -9.39 15.75 -9.06Z M29.75 0.24C30.16 0.24 30.69 0.16 31.34 0C31.99 -0.16 32.54 -0.41 32.99 -0.76L32.23 -2.64C31.76 -2.43 31.35 -2.26 31 -2.15C30.65 -2.04 30.25 -1.98 29.81 -1.98C29.05 -1.98 28.44 -2.17 27.97 -2.55C27.5 -2.93 27.21 -3.44 27.09 -4.08L33.63 -4.08L33.63 -4.88C33.63 -6.25 33.27 -7.44 32.56 -8.45C31.85 -9.46 30.73 -9.96 29.21 -9.96C27.7 -9.96 26.51 -9.49 25.64 -8.56C24.77 -7.63 24.33 -6.39 24.33 -4.84C24.33 -3.29 24.81 -2.06 25.78 -1.14C26.75 -0.22 28.07 0.24 29.75 0.24ZM31.17 -5.82L27.11 -5.82C27.22 -6.45 27.45 -6.92 27.81 -7.25C28.17 -7.58 28.62 -7.74 29.15 -7.74C29.67 -7.74 30.1 -7.58 30.45 -7.27C30.8 -6.96 31.04 -6.47 31.17 -5.82Z M40.95 -9.7C40.43 -9.7 39.88 -9.55 39.31 -9.25C38.74 -8.95 38.25 -8.63 37.85 -8.28L36.99 -9.7L35.63 -9.7L35.63 0L38.23 0L38.23 -6.12C38.79 -6.61 39.36 -6.99 39.94 -7.24C40.52 -7.49 41.03 -7.62 41.47 -7.62Z M47.81 0.24C48.22 0.24 48.75 0.16 49.4 0C50.05 -0.16 50.6 -0.41 51.05 -0.76L50.29 -2.64C49.82 -2.43 49.41 -2.26 49.06 -2.15C48.71 -2.04 48.31 -1.98 47.87 -1.98C47.11 -1.98 46.5 -2.17 46.03 -2.55C45.56 -2.93 45.27 -3.44 45.15 -4.08L51.69 -4.08L51.69 -4.88C51.69 -6.25 51.33 -7.44 50.62 -8.45C49.91 -9.46 48.79 -9.96 47.27 -9.96C45.76 -9.96 44.57 -9.49 43.7 -8.56C42.83 -7.63 42.39 -6.39 42.39 -4.84C42.39 -3.29 42.87 -2.06 43.84 -1.14C44.81 -0.22 46.13 0.24 47.81 0.24ZM49.23 -5.82L45.17 -5.82C45.28 -6.45 45.51 -6.92 45.87 -7.25C46.23 -7.58 46.68 -7.74 47.21 -7.74C47.73 -7.74 48.16 -7.58 48.51 -7.27C48.86 -6.96 49.1 -6.47 49.23 -5.82Z" fill="#FFFFFF"></path></g></g></svg>