<svg xmlns:xlink="http://www.w3.org/1999/xlink" xmlns="http://www.w3.org/2000/svg" viewBox="0 0 370.18518518518516 76.10333822900208" preserveAspectRatio="xMidYMid meet" class="css-88gl6m" id="fbefaccb" width="370.18518518518516"  height="76.10333822900208" ><defs id="SvgjsDefs1627"></defs><g id="SvgjsG1628" featurekey="odWo6G-0" transform="matrix(0.07607931269409733,0,0,0.07607931269409733,-5.62702614868956,0.01641800994269478)" fill="#111111"><g xmlns="http://www.w3.org/2000/svg" fill="#111111"><path d="M643.2,954c-14.7-20.9-36.8-27.2-59.3-32.5c-21.2-5-42.8-7.6-64.5-8.3c-34.1-1.1-67.9-4.1-101.3-11.2   c-68.2-14.5-132-39-187.9-81.8c-49-37.6-84.5-85.1-103.6-144.2c-5.6-17.2-9.3-34.9-11.7-52.9c-3.4-26-3.5-52-1.3-78.1   c3.2-38.3,11.3-75.4,26.4-110.8c12.5-29.4,29.1-56.3,50.2-80.4c22.9-26,49.5-47.4,80.6-62.9c9-4.5,18.7-7.8,28.1-11.6   c0.7-0.3,1.6-0.3,2.4-0.5c0.2,0.3,0.4,0.6,0.7,0.9c-0.7,0.4-1.5,0.8-2.2,1.3c-36.4,26.1-65.5,58.8-87.9,97.5   c-18.4,31.7-30.3,65.9-37,101.9c-6.6,35.6-7.3,71.3-4.7,107.3c2.6,34.8,10.7,68.1,26.5,99.3c17.3,34.3,42,62.6,72,86.3   c45.8,36.1,98,59.7,153.5,76.1c23.4,6.9,47.2,12.5,71.2,17c26.2,5,51.9,11.2,76.6,21.2c21,8.6,41.1,19,57.2,35.5   c7.9,8,13.7,17.3,16,28.4C643.1,952.2,643.1,952.8,643.2,954z" fill="#111111"></path><path d="M715.7,1000.1c-1.4-5.6-2.6-11-4-16.3c-13.6-50.7-43.8-88.1-90.3-112.3c-26.9-14-55.5-22.7-85.1-28.3   c-29.7-5.6-59.6-10.1-88.9-17.9c-41.9-11.1-81.9-26.5-118-51.1c-33.3-22.7-58.5-52.7-78.6-87.3c-13.1-22.6-23-46.4-29.5-71.7   c-5.6-22.1-8.8-44.6-8.5-67.4c0.4-36.4,7.4-71.4,21.3-105.2c14.3-35,33.6-66.9,59.3-94.8c6.3-6.8,13.2-13.1,19.9-19.6   c0.6-0.6,1.4-1,2.7-1.1c-0.7,1.5-1.4,3-2.2,4.4c-18.6,37.2-33.2,75.8-42.4,116.4c-7.2,31.9-10.4,64.2-7.8,96.9   c3.5,44,17.3,84.6,40.1,122.2c9.9,16.4,20.8,32,34.8,45.3c20.8,19.7,44.7,34.5,70.7,46.2c36.2,16.3,74.5,26.2,113,35.2   c37.4,8.7,73.3,21.6,106,42.3c31.5,20,56.9,45.6,72.9,79.7c8.2,17.6,13.3,36.1,14.4,55.5C716.1,980.7,715.7,990.2,715.7,1000.1z" fill="#111111"></path><path d="M486,158.8c34.9-2.4,69.4-2.4,103.4,6.8c16.6,4.5,16.4,4.7,24.8,19.8c6.9,12.5,14.2,24.7,21.4,37c0.6,1,1.4,2.1,2.4,2.7   c29.9,19.7,60.2,38.9,89.8,59c35.4,24,70.7,48.2,105.4,73.2c30.6,22,60.2,45.3,90.3,68c0.7,0.5,1.3,1.1,2.4,2.1   c-1.7,2.2-3.5,4.3-5.1,6.6c-9.4,13.2-13.6,27.4-6.8,43c2,4.7,5.3,8.9,8.2,13.7c-0.6,0.6-1.5,1.6-2.4,2.6   c-20.1,20-40.2,40-60.2,60.1c-2.8,2.9-5.7,3.9-9.5,3.7c-25.1-0.8-47.6-8.8-66.8-24.9c-7.7-6.5-14.2-14.6-21.3-21.9   c-1-1-2.5-2.1-3.8-2.3c-16.2-2.3-32.4-4.5-48.6-6.7c-17.2-2.3-34.4-4.7-51.6-7c-15.8-2.1-31.7-4.2-47.5-6.4   c-11.8-1.6-23.6-3.1-35.3-4.9c-3.8-0.6-6.3,0.1-9.2,2.9c-21.1,20.8-45,37.5-73.7,46.3c-23.8,7.3-47.3,6.6-70-4.2   c-17.6-8.3-29.7-22.1-38-39.4c-7.1-14.8-10.9-30.5-12.8-46.8c-1.9-15.7-2.2-31.4-1.3-47.2c0.3-5.8,1-11.7,2.1-17.5   c0.8,7.6,1.3,15.2,2.4,22.7c3.6,25.6,9.7,50.5,23.5,72.8c12.1,19.6,28.9,32.8,52.2,36.6c20,3.3,38.8-0.7,56.8-9.1   c22.4-10.4,41.2-25.7,57.8-43.8c1-1.1,3.3-2.1,4.7-1.8c26.1,4.5,52.2,9.2,78.3,13.7c26.5,4.6,52.9,9.2,79.4,13.8   c12.9,2.2,25.9,4.5,38.7,6.9c1.9,0.4,3.9,1.6,5.3,3c12.3,13.1,25.5,25.1,40.8,34.6c9,5.6,18.6,9.9,29.3,11.1   c5.8,0.7,10.6-0.2,14.9-5c12.8-14.2,26.2-27.9,39.4-41.7c1.6-1.6,1.2-2.8,0.4-4.5c-4-8.9-7-18-7-27.9c0-12.2,5.2-21.2,16.4-26.5   c0.4-0.2,0.9-0.5,1.3-0.7c0.1-0.1,0.2-0.2,0.4-0.5c-11-7.4-22.1-14.7-33.1-22.1c-51.6-34.3-103.1-68.8-154.9-102.8   c-17.5-11.5-36-21.4-54-32c-14.7-8.7-29.5-17.3-44.2-26c-1.2-0.7-2.1-2-2.7-3.3c-6-13.6-12-27.2-17.7-40.9   c-1.4-3.5-3.5-5.2-6.8-6.4c-28.2-10-56.4-20-84.6-30C501.5,164.4,493.8,161.6,486,158.8z" fill="#111111"></path><path d="M742.4,912.2c-4.4-9.2-8.5-18.7-13.4-27.6c-9.7-17.7-23.3-32.1-38.7-44.9c-31.1-25.8-66.5-44.4-102.8-61.6   c-41.6-19.8-84.4-37-127.2-54.1c-20.9-8.3-41.6-16.8-60.5-29.2c-36.1-23.5-62.7-54.8-78.1-95.1c-11.3-29.5-15.5-60.2-13.9-91.7   c2-38.8,10.9-75.9,27.2-111.2c0.4-0.9,0.9-1.8,1.4-2.6c0.1-0.2,0.3-0.3,0.8-0.9c-0.8,6.3-1.7,12.2-2.4,18.1   c-3.2,28.2-4.1,56.5-1.6,84.8c2.1,23.4,6.7,46.2,14.9,68.1c17.9,47.3,50.9,80.3,96.9,100.1c21.6,9.3,43.9,16.9,65.7,25.7   c46,18.6,90.4,40.1,131.3,68.4c26.9,18.6,51.6,39.6,71.2,66.1c12.6,16.9,22.1,35.4,26.5,56.1c2.2,10.3,2.4,21.1,3.5,31.7   C743,912.3,742.7,912.2,742.4,912.2z" fill="#111111"></path><path d="M752.1,852.1c-3.8-9.7-7.1-18.7-10.9-27.4c-7.4-16.8-17.3-32-28.8-46.3c-19.5-24.1-42.7-44.2-68-62.1   c-35.7-25.3-74.2-45.8-114.1-63.7c-21.1-9.5-42.7-18.1-63.2-28.7c-38-19.6-67.1-48.6-86.1-87.2c-0.7-1.5-1.4-3.1-1.8-4.7   c9.9,11.2,20.8,21,33.1,29.4c18.7,12.8,39.2,21.5,60.6,28.7c28.8,9.7,57.7,19.3,86.1,30.4c33.4,13,64.5,30.7,93,52.7   c17.1,13.2,32.9,27.9,47.1,44.4c13.6,15.8,25.3,32.7,34.6,51.3c10.4,20.6,16.5,42.4,18.2,65.4C752.5,839.9,752.1,845.6,752.1,852.1   z" fill="#111111"></path><path d="M317,213.2c-2.4,1.1-4.9,2.2-7.3,3.4c-40.3,19.5-77.3,44-110.9,73.7c-27.2,24.1-51.1,51.1-71,81.6   c-26.2,40.3-43,84.3-50,131.9c-0.7,4.8-1.2,9.6-2.2,14.4C75,512.8,74,507.4,74,502c0-15.3-0.3-30.6,0.8-45.8   c1.3-17.7,4.6-35.1,9.6-52.2c7.2-24.7,16.8-48.3,30.2-70.4c21.6-35.3,49.3-64.7,84.4-86.7c27.8-17.4,57.8-29.1,90.4-33.3   c9-1.2,18.2-1,27.3-1.4C316.9,212.5,316.9,212.9,317,213.2z" fill="#111111"></path><path d="M401.6,180.2c-14.3-10.4-22.8-23.6-27-39.6c-5.2-19.8-2.9-39.3,3.7-58.3c10.1-29.1,25.1-55.3,46.8-77.5   c6.9-7,11.9-6.8,17.7,1.4c16,22.8,28.5,47.2,32.2,75.2c3.4,25.6-1.5,50-11.4,73.7c-0.3-5.2-0.6-10.5-0.9-15.7   c-2.6-35.2-10.5-69.1-23.8-101.7c-0.4-1-0.9-2-1.5-3c-2.8-4.9-6.7-5.8-11-2.1c-2.8,2.4-5.2,5.4-7.4,8.3   c-11.6,15.5-17.6,33.3-20.4,52.2c-4.2,27.9-2.7,55.7,2.7,83.4C401.4,177.5,401.4,178.5,401.6,180.2z" fill="#111111"></path><path d="M141.7,245.8c43.9-78,148.8-96.1,204-67.2C271,180.2,204.8,207,141.7,245.8z" fill="#111111"></path></g></g><g id="SvgjsG1629" featurekey="VGK2BT-0" transform="matrix(2.9068414808886236,0,0,2.9068414808886236,82.78431602655849,-7.378016638460561)" fill="#111111"><path d="M11.135 6.441000000000001 c0.15254 0 0.27102 0.10169 0.27102 0.27119 l0 1.3051 c0 0.15254 -0.11864 0.27119 -0.27119 0.27119 l-4.0846 0 l0 11.424 c0 0.18644 -0.10169 0.28797 -0.27119 0.28797 l-0.98305 0 c-0.44068 0 -0.66102 -0.28797 -0.66102 -0.6778 l0 -11.034 l-4.0846 0 c-0.15254 0 -0.28814 -0.10169 -0.28814 -0.27119 l0 -1.288 c0 -0.16966 0.11864 -0.28831 0.28814 -0.28831 l10.085 0 z M19.44066440677966 11.6102 c0.15254 0 0.25424 0.11881 0.25424 0.28831 l0 7.8305 c0 0.15238 -0.10169 0.27102 -0.23729 0.27102 l-1.0508 0 c-0.28814 0 -0.52542 -0.42356 -0.54237 -0.71169 l0 -0.18644 c-0.66102 0.50847 -1.5593 0.99983 -2.7119 0.99983 c-1.7458 0 -3.4915 -1.1015 -3.4915 -3.2202 l0 -3.7458 c0 -0.45763 -0.033898 -0.81356 -0.084746 -1.1695 c-0.033898 -0.18644 0.016949 -0.35593 0.16949 -0.35593 l1.1017 0 c0.42373 0 0.66102 0.28814 0.66102 0.67797 l0 4.4237 c0 1.1186 0.76271 1.7458 1.8983 1.7458 c0.9661 0 1.7627 -0.54237 2.4576 -1.2373 l0 -5.322 c0 -0.16949 0.10169 -0.28831 0.25407 -0.28831 l1.3222 0 z M26.762518644067796 19.4578 c0.050847 0.13559 -0.050681 0.22 -0.16933 0.30475 c-0.28814 0.18644 -0.91525 0.32203 -1.5424 0.32203 c-1.8136 0 -2.4746 -0.9322 -2.4746 -3.1186 l0 -3.5763 l-1 0 c-0.15254 0 -0.27119 -0.10169 -0.27119 -0.27119 l0 -0.28814 c0 -0.13559 0.033898 -0.23712 0.13559 -0.33898 c0.98305 -0.79661 1.7627 -1.6269 2.4407 -3.339 c0.050847 -0.11864 0.10169 -0.18644 0.18644 -0.18644 l0.18644 0 c0.13559 0 0.18644 0.067797 0.18644 0.22034 l0 2.4237 l1.7797 0 c0.15254 0 0.28814 0.11881 0.28814 0.28831 l0 1.2203 c0 0.15254 -0.13559 0.27119 -0.28814 0.27119 l-1.4746 0 c-0.13559 0 -0.25424 -0.016949 -0.32203 -0.050847 l0 3.4576 c0 0.98305 0.11864 1.5424 0.94915 1.5424 c0.35593 0 0.59322 -0.050847 0.79661 -0.10169 s0.33898 0.033898 0.37288 0.22051 z M29.559132203389826 8.492 c-0.55915 0 -1.0168 -0.44068 -1.0168 -1.0169 c0 -0.55932 0.45763 -1.0169 1.0168 -1.0169 c0.55932 0 1.0169 0.45763 1.0169 1.0169 c0 0.57627 -0.45763 1.0169 -1.0169 1.0169 z M30.220132203389827 11.6102 l-1.3051 0 c-0.16949 0 -0.27119 0.11881 -0.27119 0.27119 l0 7.4407 c0 0.38983 0.23729 0.6778 0.64407 0.6778 l0.94915 0 c0.15254 0 0.25424 -0.10153 0.25424 -0.28797 l0 -7.8305 c0 -0.15238 -0.11864 -0.27119 -0.27119 -0.27119 z M44.423711864406776 17.5764 c0.13559 0.11864 0.13576 0.27136 -0.016784 0.42373 c-1.2542 1.3222 -2.9661 2.1186 -5 2.1186 c-3.7627 0 -6.8814 -3.0168 -6.8814 -6.8642 s3.1186 -6.9322 6.8814 -6.9322 c2 0 3.7625 0.79661 5.0337 2.1356 c0.15254 0.15238 0.15254 0.30492 0.016949 0.40661 l-1.0847 0.88119 c-0.13559 0.11881 -0.25424 0.11881 -0.38983 -0.016784 c-0.72881 -0.76271 -1.9831 -1.5593 -3.5085 -1.5593 c-3.0508 0 -5.0339 2.5424 -5.0339 5.0847 c0 2.5593 1.9831 5.0169 5.0339 5.0169 c1.5085 0 2.7288 -0.76271 3.4576 -1.5085 c0.13559 -0.15254 0.27119 -0.16933 0.40678 -0.067797 z M50.35578305084745 20.11864 c2.3729 0 4.339 -1.8812 4.339 -4.3049 c0 -2.4746 -1.9661 -4.322 -4.339 -4.322 s-4.339 1.8475 -4.339 4.322 c0 2.4237 1.9661 4.3049 4.339 4.3049 z M50.35578305084745 18.39 c-1.4576 0 -2.5424 -1.2034 -2.5424 -2.5593 c0 -1.4068 1.0847 -2.6102 2.5424 -2.6102 s2.5424 1.2034 2.5424 2.6102 c0 1.3559 -1.0847 2.5593 -2.5424 2.5593 z M64.01693559322034 11.6102 c0.15254 0 0.25424 0.11881 0.25424 0.28831 l0 7.8305 c0 0.15238 -0.10169 0.27102 -0.23729 0.27102 l-1.0508 0 c-0.28814 0 -0.52542 -0.42356 -0.54237 -0.71169 l0 -0.18644 c-0.66102 0.50847 -1.5593 0.99983 -2.7119 0.99983 c-1.7458 0 -3.4915 -1.1015 -3.4915 -3.2202 l0 -3.7458 c0 -0.45763 -0.033898 -0.81356 -0.084746 -1.1695 c-0.033898 -0.18644 0.016949 -0.35593 0.16949 -0.35593 l1.1017 0 c0.42373 0 0.66102 0.28814 0.66102 0.67797 l0 4.4237 c0 1.1186 0.76271 1.7458 1.8983 1.7458 c0.9661 0 1.7627 -0.54237 2.4576 -1.2373 l0 -5.322 c0 -0.16949 0.10169 -0.28831 0.25407 -0.28831 l1.3222 0 z M74.23714576271186 19.64424 c0.033898 0.18644 -0.016784 0.35576 -0.16916 0.35576 l-1.1017 0 c-0.44068 0 -0.66102 -0.28797 -0.66102 -0.6778 l0 -4.4068 c0 -1.1186 -0.77966 -1.7627 -1.8983 -1.7627 c-0.9661 0 -1.7797 0.45763 -2.4575 1.1186 l0 5.4578 c0 0.15238 -0.11864 0.27102 -0.27119 0.27102 l-1.3222 0 c-0.15238 0 -0.25407 -0.11864 -0.25407 -0.27102 l0 -7.8476 c0 -0.15238 0.10169 -0.27119 0.25407 -0.27119 l0.91525 0 c0.40678 0 0.66102 0.42373 0.67797 0.72881 l0 0.16949 c0.66102 -0.50864 1.5422 -1.0171 2.6947 -1.0171 c1.7458 0 3.4915 1.1019 3.4915 3.2205 l0 3.7627 c0.016784 0.47458 0.050681 0.83051 0.10153 1.1695 z M80.96590847457627 19.4578 c0.050847 0.13559 -0.050681 0.22 -0.16933 0.30475 c-0.28814 0.18644 -0.91525 0.32203 -1.5424 0.32203 c-1.8136 0 -2.4746 -0.9322 -2.4746 -3.1186 l0 -3.5763 l-1 0 c-0.15254 0 -0.27119 -0.10169 -0.27119 -0.27119 l0 -0.28814 c0 -0.13559 0.033898 -0.23712 0.13559 -0.33898 c0.98305 -0.79661 1.7627 -1.6269 2.4407 -3.339 c0.050847 -0.11864 0.10169 -0.18644 0.18644 -0.18644 l0.18644 0 c0.13559 0 0.18644 0.067797 0.18644 0.22034 l0 2.4237 l1.7797 0 c0.15254 0 0.28814 0.11881 0.28814 0.28831 l0 1.2203 c0 0.15254 -0.13559 0.27119 -0.28814 0.27119 l-1.4746 0 c-0.13559 0 -0.25424 -0.016949 -0.32203 -0.050847 l0 3.4576 c0 0.98305 0.11864 1.5424 0.94915 1.5424 c0.35593 0 0.59322 -0.050847 0.79661 -0.10169 s0.33898 0.033898 0.37288 0.22051 z M88.61001694915254 12.034099999999999 c0.18644 0.11864 0.23729 0.22017 0.11848 0.40661 l-0.69475 1.0169 c-0.084746 0.11864 -0.20339 0.15254 -0.35593 0.11864 c-0.35593 -0.16949 -0.66102 -0.32203 -1.2203 -0.32203 s-1.4407 0.23729 -1.9153 1.2881 l0 5.1866 c0 0.15238 -0.10169 0.27102 -0.25424 0.27102 l-1.339 0 c-0.15254 0 -0.25424 -0.11864 -0.25424 -0.27102 l0 -7.8476 c0 -0.15238 0.11864 -0.27119 0.25424 -0.27119 l0.9322 0 c0.40678 0 0.66102 0.42373 0.66102 0.72881 l0 0.11881 c0.59322 -0.54237 1.3051 -0.91525 2.2373 -0.91525 c0.86441 0 1.5085 0.27119 1.8305 0.49153 z M98.62707457627118 11.6102 c0.20339 0 0.30525 0.13543 0.20356 0.32203 l-3.3559 6.8983 c-1.678 3.4914 -3.1525 5.5083 -3.9492 6.288 c-0.15254 0.13559 -0.33898 0.067797 -0.50847 -0.10169 l-0.72881 -0.72881 c-0.18644 -0.16949 -0.15254 -0.33898 0.016949 -0.54237 c1.0339 -1.1695 2.3729 -3.1017 3.2373 -5.0507 l-3.5254 -6.7797 c-0.084746 -0.16949 0 -0.30508 0.18644 -0.30508 l1.4915 0 c0.15238 0 0.23712 0.067797 0.30492 0.18661 l2.4915 5.0846 l2.3729 -5.0678 c0.067797 -0.13559 0.16949 -0.20339 0.32203 -0.20339 l1.4407 0 z" fill="#111111"></path></g></svg>