<svg xmlns:xlink="http://www.w3.org/1999/xlink" id="SvgjsSvg1024" width="300" height="112.73851013183594" xmlns="http://www.w3.org/2000/svg" version="1.1" xlink="http://www.w3.org/1999/xlink" xmlns:svgjs="http://svgjs.com/svgjs" preserveAspectRatio="xMidYMid meet" viewBox="0 0 300 112.73851013183594" overflow="visible"><defs id="SvgjsDefs1025"></defs><g id="SvgjsG1026" transform="scale(0.89163645009808)" opacity="1"><g id="SvgjsG1027" class="dh00QoW5BH" transform="translate(0, 0) scale(1)" light-content="false" fill="#FA960A"><path d="M0 0 h 336.46 v 4 h -336.46 Z M0 0 h 4 v 126.44 h -4 Z M336.46 126.44 h -336.46 v -4 h 336.46 Z M336.46 126.44 h -4 v -126.44 h 4 Z" fill-rule="nonzero" fill="#FA960A"></path></g><g id="SvgjsG1028" class="text" transform="translate(170.0299984741211, 54.79999923706055) scale(1)" light-content="false" fill="#FA960A"><path d="M-65.1 0L-54.18 0L-54.18 -32.22L-41.16 -32.22L-42.18 -40.8L-77.1 -40.8L-77.1 -32.22L-65.1 -32.22Z M-5.28 -16.14C-5.28 -13.58 -5.97 -11.63 -7.35 -10.29C-8.73 -8.95 -10.5 -8.28 -12.66 -8.28C-14.82 -8.28 -16.59 -8.95 -17.97 -10.29C-19.35 -11.63 -20.04 -13.58 -20.04 -16.14L-20.04 -40.8L-30.96 -40.8L-30.96 -15.6C-30.96 -10.28 -29.27 -6.21 -25.89 -3.39C-22.51 -0.57 -18.1 0.84 -12.66 0.84C-7.22 0.84 -2.81 -0.57 0.57 -3.39C3.95 -6.21 5.64 -10.28 5.64 -15.6L5.64 -40.8L-5.28 -40.8Z M27.84 0L38.76 0L38.76 -32.22L51.78 -32.22L50.76 -40.8L15.84 -40.8L15.84 -32.22L27.84 -32.22Z M62.58 0L73.5 0L73.5 -40.8L62.58 -40.8Z" fill="#FA960A"></path></g><g id="SvgjsG1029" class="text" transform="translate(166.6699981689453, 111.5999983215332) scale(1)" light-content="false" fill="#FA960A"><path d="M-125.79 -33.42L-123.39 -39C-125.15 -39.96 -127.09 -40.64 -129.21 -41.04C-131.33 -41.44 -132.99 -41.64 -134.19 -41.64C-140.15 -41.64 -144.72 -39.64 -147.9 -35.64C-151.08 -31.64 -152.67 -26.5 -152.67 -20.22C-152.67 -14.34 -151.23 -9.36 -148.35 -5.28C-145.47 -1.2 -140.85 0.84 -134.49 0.84C-132.81 0.84 -130.87 0.6 -128.67 0.12C-126.47 -0.36 -124.59 -1 -123.03 -1.8L-125.97 -7.56C-127.21 -7.04 -128.58 -6.6 -130.08 -6.24C-131.58 -5.88 -133.19 -5.7 -134.91 -5.7C-138.39 -5.7 -140.87 -7.14 -142.35 -10.02C-143.83 -12.9 -144.57 -16.32 -144.57 -20.28C-144.57 -24.88 -143.69 -28.5 -141.93 -31.14C-140.17 -33.78 -137.67 -35.1 -134.43 -35.1C-132.83 -35.1 -131.47 -34.97 -130.35 -34.71C-129.23 -34.45 -127.71 -34.02 -125.79 -33.42Z M-111.09 -20.22C-111.09 -14.38 -109.55 -9.41 -106.47 -5.31C-103.39 -1.21 -98.67 0.84 -92.31 0.84C-86.35 0.84 -81.72 -1.16 -78.42 -5.16C-75.12 -9.16 -73.47 -14.32 -73.47 -20.64C-73.47 -26.48 -75.01 -31.46 -78.09 -35.58C-81.17 -39.7 -85.91 -41.76 -92.31 -41.76C-98.27 -41.64 -102.89 -39.59 -106.17 -35.61C-109.45 -31.63 -111.09 -26.5 -111.09 -20.22ZM-102.99 -20.28C-102.99 -24.84 -101.99 -28.46 -99.99 -31.14C-97.99 -33.82 -95.39 -35.16 -92.19 -35.16C-88.55 -35.16 -85.87 -33.8 -84.15 -31.08C-82.43 -28.36 -81.57 -24.88 -81.57 -20.64C-81.57 -15.56 -82.55 -11.8 -84.51 -9.36C-86.47 -6.92 -89.09 -5.7 -92.37 -5.7C-96.01 -5.7 -98.69 -7.06 -100.41 -9.78C-102.13 -12.5 -102.99 -16 -102.99 -20.28Z M-51.51 -40.8L-59.37 -40.8L-59.37 -14.82C-59.37 -10.42 -57.88 -6.74 -54.9 -3.78C-51.92 -0.82 -47.89 0.66 -42.81 0.66C-37.65 0.66 -33.56 -0.82 -30.54 -3.78C-27.52 -6.74 -26.01 -10.42 -26.01 -14.82L-26.01 -40.8L-33.87 -40.8L-33.87 -15.42C-33.87 -12.14 -34.68 -9.7 -36.3 -8.1C-37.92 -6.5 -40.05 -5.7 -42.69 -5.7C-45.29 -5.7 -47.41 -6.47 -49.05 -8.01C-50.69 -9.55 -51.51 -12.02 -51.51 -15.42Z M24.21 -40.8L16.41 -40.8L16.41 -13.56L-2.49 -40.8L-10.23 -40.8L-10.23 0L-2.49 0L-2.49 -27.3L16.41 0L24.21 0Z M35.61 -40.8L35.61 -34.68L48.03 -34.68L48.03 0L55.89 0L55.89 -34.68L69.87 -34.68L68.61 -40.8Z M93.75 -34.32C96.31 -34.32 98.31 -33.82 99.75 -32.82C101.19 -31.82 101.91 -30.18 101.91 -27.9C101.91 -25.74 101.15 -24.19 99.63 -23.25C98.11 -22.31 96.19 -21.84 93.87 -21.84L88.95 -21.84L88.95 -34.32ZM104.91 0L113.19 0L103.17 -17.52C105.21 -18.52 106.88 -19.93 108.18 -21.75C109.48 -23.57 110.13 -25.74 110.13 -28.26C110.13 -32.54 108.55 -35.7 105.39 -37.74C102.23 -39.78 98.43 -40.8 93.99 -40.8L81.21 -40.8L81.21 0L88.95 0L88.95 -15.48L93.45 -15.48C93.93 -15.48 94.41 -15.49 94.89 -15.51C95.37 -15.53 95.83 -15.56 96.27 -15.6Z M133.83 0L141.63 0L141.63 -15.6L155.79 -40.8L147.57 -40.8L137.67 -23.76L128.19 -40.8L120.15 -39.78L133.83 -15.9Z" fill="#FA960A"></path></g></g></svg>