<svg xmlns:xlink="http://www.w3.org/1999/xlink" xmlns="http://www.w3.org/2000/svg" viewBox="0 0 390.99999999999994 503.7" preserveAspectRatio="xMidYMid meet" class="css-1kc980z" id="acafhfgb" width="390.99999999999994"  height="503.7" ><defs id="SvgjsDefs1098"></defs><g id="SvgjsG1099" featurekey="rootContainer" transform="matrix(1.15,0,0,1.15,-5.75,0)" fill="url(&quot;#symbol-foil0.4&quot;)"><path xmlns="http://www.w3.org/2000/svg" fill-rule="evenodd" d="M5,65 L175,0 L345, 65 L175, 10 z M5,358 L175,438 L345,353 L175, 428 z" fill="#F7ED9C"></path></g><g id="SvgjsG1100" featurekey="symbolFeature-0" transform="matrix(1.9895125498663455,0,0,1.9895125498663455,96.52139556920682,99.27651244307282)" fill="url(&quot;#symbol-foil0.2&quot;)"><path xmlns="http://www.w3.org/2000/svg" d="M83.484,72.887l-0.717-4.756l-0.707-4.263l-2.525-3.21l-7.468-1.068l-3.626-0.46l-2.45-3.986l-5.915-7.155l-2.885-4.048  l-1.544-4.298l-0.301-4.773l-0.698-5.324l0.112-9.656l-0.585-3.81l-2.446-4.403l-3.618-2.472l-4.597-1.326l-2.783-0.594  l-2.582-1.895l-0.151,0.207l-0.134,0.038l0.03,0.105l-0.012,0.016l0.959,3.276l-2.377,2.988l-5.322,8.876l2.918,2.542l2.577-1.825  l4.236-1.793l3.386-1.039l-1.47,4.326l-7.505,4.145l-1.741,1.957l-3.115-2.663l-7.692-1.921l-2.928-0.449l-2.001,1.629l-1.689,2.637  l-1.301,4.229l4.894-2.686l-0.348-1.91l1.382-1.383l4.513,2.407l-3.108,7.015l3.302,6.642l1.772-4.908l-1.317-1.437l-0.659-1.251  l2.564-3.855l4.97,9.267l3.317,3.218l2.359,4.568l4.194,5.133l5.047,4.803l4.568,3.771l-0.349,3.857l0.227,3.444l1.533,4.231  c0.378,3.19,1.078,9.093,1.157,9.827c-0.322,0.363-1.122,1.479-3.52,4.83l-2.527,2.207l-2.701,4.151h10.328l-0.69-2.659l4.663-7.328  l0.906-3.832l-0.732-4.317l2.232-5.347l3.53-2.36l1.74-4.79l1.936-0.563l0.799,2.852l4.6,0.618l1.682,4.937l2.908,1.415l5.197,6.224  L83.484,72.887z" fill="#F7ED9C"></path></g><g id="SvgjsG1101" featurekey="nameFeature-0" transform="matrix(2.094804860930678,0,0,2.094804860930678,21,297.37060772136)" fill="url(&quot;#symbol-foil0.2&quot;)"><path d="M13.84 11.36 l0 3.84 l-4.76 0 l0 24.84 l-3.84 0 l0 -24.84 l-5.24 0 l0 -3.84 l13.84 0 z M23.747999999999998 40.08 c-3.24 0 -5.88 -2.64 -5.88 -5.88 l0 -22.72 l3.8 0 l0 22.72 c0 1.16 0.92 2.12 2.08 2.12 s2.08 -0.96 2.08 -2.12 l0 -22.72 l3.8 0 l0 22.72 c0 3.24 -2.64 5.88 -5.88 5.88 z M47.495999999999995 11.36 l0 3.84 l-4.76 0 l0 24.84 l-3.84 0 l0 -24.84 l-5.24 0 l0 -3.84 l13.84 0 z M54.844 11.36 l0 28.48 l-3.8 0 l0 -28.48 l3.8 0 z M64.232 39.92 c-2.96 0 -5.36 -2.4 -5.36 -5.36 l0 -17.76 c0 -2.96 2.4 -5.36 5.36 -5.36 s5.36 2.4 5.36 5.36 l0 1.6 l-3.8 0 l0 -1.6 c0 -0.84 -0.72 -1.56 -1.56 -1.56 s-1.56 0.72 -1.56 1.56 l0 17.76 c0 0.84 0.72 1.56 1.56 1.56 s1.56 -0.72 1.56 -1.56 l0 -2.56 l3.8 0 l0 2.56 c0 2.96 -2.4 5.36 -5.36 5.36 z M79.02000000000001 40.04 c-3 0 -5.4 -2.44 -5.4 -5.4 l0 -17.96 c0 -2.96 2.4 -5.36 5.4 -5.36 c2.96 0 5.36 2.4 5.36 5.36 l0 17.96 c0 2.96 -2.4 5.4 -5.36 5.4 z M79.02000000000001 15.120000000000001 c-0.88 0 -1.56 0.72 -1.56 1.56 l0 17.96 c0 0.88 0.68 1.56 1.56 1.56 c0.84 0 1.56 -0.68 1.56 -1.56 l0 -17.96 c0 -0.84 -0.72 -1.56 -1.56 -1.56 z M94.288 40.08 c-3.24 0 -5.88 -2.64 -5.88 -5.88 l0 -22.72 l3.8 0 l0 22.72 c0 1.16 0.92 2.12 2.08 2.12 s2.08 -0.96 2.08 -2.12 l0 -22.72 l3.8 0 l0 22.72 c0 3.24 -2.64 5.88 -5.88 5.88 z M113.476 33.44 l0.16 -22.16 l3.84 0 l-0.24 28.88 l-5.96 0 l-3.24 -22.36 l0 22.36 l-3.84 0 l0 -28.88 l6.2 0 z M135.344 11.36 l0 3.84 l-4.76 0 l0 24.84 l-3.84 0 l0 -24.84 l-5.24 0 l0 -3.84 l13.84 0 z M150.132 40.08 l-4.08 0 l-2.2 -6.04 l-0.88 0 l0 6.04 l-3.8 0 l0 -28.64 l5.96 0 c2.64 0 4.76 2.12 4.76 4.76 l0 13.08 c0 1.72 -0.88 3.2 -2.24 4.04 z M142.972 15.239999999999998 l0 15 l2.16 0 c0.52 0 0.96 -0.44 0.96 -0.96 l0 -13.08 c0 -0.52 -0.44 -0.96 -0.96 -0.96 l-2.16 0 z M167.07999999999998 11.440000000000001 l-5.36 17.36 l0 11.2 l-3.88 0 l0 -11.24 l-4.92 -17.32 l4 0 l2.92 10.28 l3.2 -10.28 l4.04 0 z" fill="#F7ED9C"></path></g></svg>