<svg xmlns:xlink="http://www.w3.org/1999/xlink" xmlns="http://www.w3.org/2000/svg" viewBox="0 0 349.99999999999994 220.70762896986918" height="220.70762896986918" width="349.99999999999994" style="width: 350px; height: 220.708px; position: absolute; top: 50%; left: 50%; z-index: 0; cursor: pointer; overflow: visible; transform: translate(-50%, -50%) scale(0.548571);"><defs id="SvgjsDefs1033"></defs><g id="SvgjsG1034" featurekey="symbolFeature-0" transform="matrix(1.5909090909090908,0,0,1.5909090909090908,95.45455152338201,-14.318473122336647)" fill="#0A0A0A"><g xmlns="http://www.w3.org/2000/svg" transform="translate(0,-952.36218)" fill="#0A0A0A"><path style="color:;enable-background:accumulate;" d="m 21.001393,961.36241 c 0.19887,1.1759 0.19887,2.4649 0,4.0676 -0.82131,-0.2509 -1.33331,-0.8839 -1.99996,-2.0338 -0.39773,1.5149 -0.28724,3.1498 0,5.069 -0.91157,1.0635 -1.96846,3.0763 -2.06246,4.0051 -1.86201,4.2904 -4.17728,6.9591 -3.93742,9.1992 0.0277,2.0054 2.04417,3.0154 2.99994,3.0665 0.99996,-0.051 2.02208,-1.0611 2.99994,-3.0665 2.03117,-0.9424 3.99996,-2.1086 5.99989,-4.0676 2.02102,0.046 2.94796,6.1652 1.99996,8.1354 -3.14132,5.0534 -4.99391,9.1366 -4.99991,15.26939 l -3.99992,0 c -3.96105,-1.0046 -7.53658,-1.56599 -8.9998298,2.0338 -0.96912,3.0245 -3.06944,6.998 -2.99994,9.1367 0.0521,1.0378 0.66667,2.7121 0.99998,4.0677 0.0417,2.7113 0.95833,5.1213 1.99996,5.1002 0.94788,0.064 1.9582698,-2.1132 1.9999598,-3.0663 -0.0417,-2.0547 -1.3333098,-2.7119 -1.9999598,-4.0678 0.37788,-4.9104 0.7337,-8.6421 4.9999098,-9.1367 5.75407,1.9391 9.69596,2.6681 14.46847,2.0965 2.62661,-0.953 4.04069,-2.5501 5.84364,-4.2554 0.49202,-0.4234 0.91185,-0.3325 1.24228,-0.071 0.43273,0.3761 0.59142,1.1469 0.13269,1.5419 -1.69732,1.6052 -3.26133,3.1367 -5.46864,4.1927 3.66077,4.0872 8.63716,7.065 14.87471,7.5723 -0.20239,-2.4502 0.4308,-4.4926 0.96873,-6.7586 0.10012,-0.4479 0.54188,-0.7934 0.99998,-0.7823 0.60796,-2e-4 1.12065,0.6621 0.96874,1.2515 -0.57443,2.4201 -1.31813,4.0736 -0.90624,6.6961 0.99531,4.1147 4.10117,8.002 6.87487,11.8902 l 0,2.0338 c -2.84145,1.0879 -4.97597,3.1136 -6.99986,5.1003 -3.12872,0.045 -6.58797,0.7699 -6.69052,2.9023 0.19792,0.7509 0.55521,0.7898 1.22187,1.134 -0.88572,0.9718 -1.00948,1.862 -0.81248,2.8788 1.00371,1.0556 3.96808,1.1762 5.28114,0.1877 0.58332,-0.4172 1.10415,-1.9609 1.65622,-2.9412 l 1.34373,-0.094 c 3.0201,-3.3609 5.974067,-6.0423 7.999837,-7.1341 1.99619,0.1983 3.5726,-0.7043 3.99993,-2.0339 0.37375,-1.3104 -0.66667,-2.712 -0.99998,-4.0676 -0.30936,-2.2358 -0.33146,-4.9443 0,-6.1016 4.9998,-5.0836 8.55789,-8.3583 8.55789,-16.4921 l 1.85091,1.2817 c 0,15.2511 8.59111,18.2761 23.59055,14.2091 -6.99974,-2.0335 -10.99984,-3.0672 -13.99974,-7.1341 1.99994,0 3.99999,1.0167 6.99987,0 -9.99962,-3.0502 -9.00006,-14.22099 -20.9996,-13.20429 -3.99984,-5.0836 -13.999857,-6.1175 -20.999597,-7.1342 0,-7.117 -1.00006,-10.1701 -4.9999,-14.2368 1.99992,0 3.33331,0.6937 4.9999,1.0325 -2.99988,-4.0668 -6.99992,-6.1019 -9.9998,-8.1354 l 4.06242,0.031 c -5.04943,-4.0834 -8.06399,-6.1222 -15.06221,-5.0377 -1.00147,-2.1013 -1.99999,-3.1135 -2.99995,-4.1302 z m -7.12486,44.77559 c -0.79563,4.698 -1.89484,6.6821 -1.87496,8.6047 0.0687,1.045 1.94962,2.9033 2.65619,3.8799 0.27428,1.9429 1.07887,3.9739 2.28121,4.0365 1.07041,0.073 1.16856,-2.9735 1.15623,-4.1616 -0.0754,-0.9036 -1.33332,-1.8778 -2.09371,-2.8474 -0.14439,-3.0764 0.0742,-6.5136 1.56247,-8.4796 -1.30813,-0.4004 -2.59423,-0.7508 -3.68743,-1.0325 z" fill="#0A0A0A" stroke="none" marker="none" visibility="visible" display="inline" overflow="visible"></path></g></g><g id="SvgjsG1035" featurekey="nameFeature-0" transform="matrix(1.2277685866894246,0,0,1.2277685866894246,-1.325989979953269,136.9365464996691)" fill="#0A0A0A"><path d="M13.44 40 l-5.36 0 l0 -23.2 l-7 0 l0 -5.28 l19.36 0 l0 5.28 l-7 0 l0 23.2 z M36.207 40.4 c-6.12 0 -11.08 -4.96 -11.08 -11.08 l0 -17.8 l5.32 0 l0 17.8 c0 3.2 2.6 5.84 5.76 5.84 c3.2 0 5.76 -2.64 5.76 -5.84 l0 -17.8 l5.36 0 l0 17.8 c0 2.96 -1.16 5.76 -3.24 7.84 c-2.12 2.08 -4.92 3.24 -7.88 3.24 z M64.374 40 l-5.36 0 l0 -23.2 l-7 0 l0 -5.28 l19.36 0 l0 5.28 l-7 0 l0 23.2 z M83.821 40 l-5.36 0 l0 -28.48 l5.36 0 l0 28.48 z M104.948 40.44 c-2 0 -3.96 -0.4 -5.8 -1.16 c-1.76 -0.76 -3.36 -1.84 -4.72 -3.2 c-1.4 -1.36 -2.48 -2.96 -3.2 -4.76 c-0.8 -1.84 -1.2 -3.76 -1.2 -5.8 c0 -8.2 6.72 -14.88 14.92 -14.88 c2.32 0 4.64 0.56 6.68 1.6 c2.04 1 3.88 2.56 5.24 4.4 l0.64 0.8 l-4.28 3.16 l-0.6 -0.8 c-1.8 -2.44 -4.6 -3.84 -7.68 -3.84 c-5.28 0 -9.6 4.28 -9.6 9.56 c0 5.32 4.32 9.64 9.6 9.64 c3.04 0 5.84 -1.4 7.68 -3.84 l0.6 -0.76 l4.24 3.12 l-0.64 0.8 c-1.4 1.88 -3.16 3.36 -5.24 4.4 c-2.04 1.04 -4.32 1.56 -6.64 1.56 z M136.035 40.4 c-8.2 0 -14.88 -6.64 -14.88 -14.84 c0 -8.24 6.68 -14.92 14.88 -14.92 c8.24 0 14.92 6.68 14.92 14.92 c0 8.2 -6.68 14.84 -14.92 14.84 z M136.035 15.96 c-5.24 0 -9.52 4.28 -9.52 9.6 c0 5.28 4.28 9.56 9.52 9.56 s9.52 -4.28 9.52 -9.56 c0 -5.32 -4.28 -9.6 -9.52 -9.6 z M166.522 40.4 c-6.12 0 -11.08 -4.96 -11.08 -11.08 l0 -17.8 l5.32 0 l0 17.8 c0 3.2 2.6 5.84 5.76 5.84 c3.2 0 5.76 -2.64 5.76 -5.84 l0 -17.8 l5.36 0 l0 17.8 c0 2.96 -1.16 5.76 -3.24 7.84 c-2.12 2.08 -4.92 3.24 -7.88 3.24 z M208.009 40 l-5.16 0 l-12.64 -18.68 l0 18.68 l-5.36 0 l0 -28.48 l5.2 0 l12.6 18.64 l0 -18.64 l5.36 0 l0 28.48 z M226.256 40 l-5.36 0 l0 -23.2 l-7 0 l0 -5.28 l19.36 0 l0 5.28 l-7 0 l0 23.2 z M261.663 40 l-6.32 0 l-10.12 -13.92 l-2.28 0 l0 13.92 l-5.2 0 l0 -28.48 l10.2 0 c1.92 0 3.72 0.76 5.12 2.16 s2.16 3.2 2.16 5.12 c0 2.84 -1.68 5.4 -4.16 6.6 z M242.943 20.88 l5 0 c1.12 0 2.08 -0.92 2.08 -2.08 s-0.96 -2.08 -2.08 -2.08 l-5 0 l0 4.16 z M275.87 40 l-5.4 0 l0 -14.08 l-10.28 -14.4 l6.56 0 l6.44 9 l6.44 -9 l6.52 0 l-10.28 14.4 l0 14.08 z" fill="#0A0A0A"></path></g><g id="SvgjsG1036" featurekey="sloganFeature-0" transform="matrix(1.5911157734639563,0,0,1.5911157734639563,51.5679958418176,188.63073218480832)" fill="#0A0A0A"><path d="M6.06 20.14 c-1.38 0 -2.7 -0.52 -3.56 -1.28 c-0.9 -0.78 -1.48 -1.82 -1.6 -2.84 l1.44 -0.4 c0.16 0.86 0.6 1.58 1.32 2.18 c0.7 0.6 1.5 0.9 2.4 0.9 c0.84 0 1.62 -0.2 2.24 -0.64 c0.62 -0.42 1.02 -1.14 1.02 -2.02 c0 -1.02 -0.54 -1.68 -1.22 -2.08 c-0.48 -0.28 -0.9 -0.4 -1.38 -0.5 l-1.92 -0.38 c-0.4 -0.08 -0.82 -0.22 -1.28 -0.42 c-0.46 -0.22 -0.86 -0.48 -1.2 -0.82 c-0.68 -0.66 -1.02 -1.5 -1.02 -2.52 c0 -0.8 0.22 -1.52 0.66 -2.14 c0.44 -0.64 1 -1.1 1.7 -1.44 c0.7 -0.32 1.44 -0.48 2.26 -0.48 c3.14 0 4.52 1.94 4.82 3.5 l-1.4 0.44 c-0.24 -1.04 -1.18 -2.52 -3.44 -2.52 c-1.56 -0.04 -3.08 1.06 -3.06 2.58 c0 1.12 0.7 2.02 2.12 2.3 l1.84 0.36 c1.24 0.24 2.2 0.66 2.84 1.28 c0.44 0.4 0.76 0.86 0.96 1.34 c0.2 0.5 0.3 0.94 0.3 1.34 c0.02 2.56 -2.14 4.32 -4.84 4.26 z M15.405999999999999 20 l0 -14.58 l1.54 0 l0 13.14 l6.92 0 l0 1.44 l-8.46 0 z M41.352000000000004 12.68 c0 1.38 -0.32 2.64 -0.94 3.78 c-0.64 1.14 -1.52 2.04 -2.64 2.7 c-1.14 0.66 -2.38 1 -3.78 1 c-1.02 0 -1.98 -0.2 -2.9 -0.58 c-0.9 -0.38 -1.68 -0.9 -2.32 -1.58 c-0.64 -0.64 -1.14 -1.42 -1.52 -2.34 c-0.36 -0.92 -0.56 -1.88 -0.56 -2.9 c0 -1.38 0.32 -2.64 0.96 -3.78 c0.62 -1.14 1.5 -2.06 2.64 -2.72 c1.12 -0.66 2.38 -0.98 3.76 -0.98 c1.02 0 1.98 0.18 2.9 0.56 c0.9 0.4 1.68 0.92 2.32 1.56 c0.64 0.68 1.16 1.46 1.52 2.36 c0.38 0.92 0.56 1.88 0.56 2.92 z M39.772 12.76 c0 -1.64 -0.6 -3.16 -1.6 -4.26 s-2.5 -1.8 -4.18 -1.8 c-1.08 0 -2.06 0.28 -2.94 0.8 c-0.88 0.56 -1.56 1.28 -2.04 2.18 c-0.48 0.92 -0.72 1.92 -0.72 3 c0 1.62 0.6 3.16 1.6 4.24 c1 1.1 2.5 1.8 4.16 1.8 c1.08 0 2.06 -0.28 2.94 -0.82 c0.9 -0.52 1.58 -1.26 2.06 -2.16 s0.72 -1.9 0.72 -2.98 z M58.578 9.6 l-1.46 0.52 c-0.18 -0.52 -0.42 -1.06 -1 -1.72 c-0.28 -0.3 -0.6 -0.6 -0.96 -0.84 c-0.72 -0.5 -1.84 -0.86 -3.06 -0.86 c-1.1 0 -2.08 0.26 -2.96 0.82 s-1.56 1.28 -2.04 2.2 c-0.48 0.9 -0.72 1.88 -0.72 2.96 c0 1.64 0.56 3.16 1.52 4.26 c0.98 1.1 2.5 1.78 4.22 1.78 c1.3 0 2.54 -0.42 3.48 -1.14 s1.58 -1.88 1.66 -3.22 l-6.08 0 l0 -1.42 l7.72 0 l0 0.56 c0 1.84 -0.66 3.5 -1.8 4.7 c-1.16 1.2 -2.94 1.94 -5 1.94 c-2.18 0 -4.08 -0.8 -5.32 -2.12 s-1.98 -3.2 -1.98 -5.26 c0 -1.38 0.32 -2.66 0.96 -3.8 s1.52 -2.04 2.64 -2.7 s2.38 -0.98 3.74 -0.98 c1.72 0 3.24 0.48 4.28 1.32 c1.06 0.82 1.76 1.82 2.16 3 z M73.96400000000001 20 l-1.6 -3.72 l-7.94 0 l-1.6 3.72 l-1.56 0 l6.28 -14.58 l1.74 0 l6.3 14.58 l-1.62 0 z M71.784 14.879999999999999 l-3.4 -7.88 l-3.38 7.88 l6.78 0 z M89.49000000000001 5.42 l1.5 0 l0 14.58 l-1.66 0 l-8.7 -12.4 l0 12.4 l-1.52 0 l0 -14.58 l1.78 0 l8.6 12.26 l0 -12.26 z M107.922 6.859999999999999 l0 13.14 l-1.52 0 l0 -13.14 l-4.88 0 l0 -1.44 l11.28 0 l0 1.44 l-4.88 0 z M116.66799999999999 20 l0 -14.58 l9.12 0 l0 1.42 l-7.58 0 l0 5.04 l6.94 0 l0 1.42 l-6.94 0 l0 5.28 l7.66 0 l0 1.42 l-9.2 0 z M139.834 20 l-4.74 -6.38 l-4.7 6.38 l-1.8 0 l5.6 -7.46 l-5.34 -7.12 l1.78 0 l4.5 6 l4.46 -6 l1.78 0 l-5.34 7.1 l5.58 7.48 l-1.78 0 z M150.00000000000003 6.859999999999999 l0 13.14 l-1.52 0 l0 -13.14 l-4.88 0 l0 -1.44 l11.28 0 l0 1.44 l-4.88 0 z" fill="#0A0A0A"></path></g></svg>