<svg xmlns:xlink="http://www.w3.org/1999/xlink" xmlns="http://www.w3.org/2000/svg" width="300" height="148" preserveAspectRatio="xMidYMid meet" viewBox="-0.0000016815415619930718 0 189.45843505859375 147" overflow="visible"><defs id="SvgjsDefs1111"></defs><g id="SvgjsG1112" transform="scale(0.4408060453400504)" opacity="1"><g id="SvgjsG1113" class="ZdSteC3fL" transform="translate(85.96000000000004, 0) scale(2.5787999999999993)" light-content="false" non-strokable="false" fill="#FFFFFF"><rect width="100" height="100" rx="10" fill="#FFFFFF"></rect></g><g id="SvgjsG1114" class="sq-bBqdVMy" transform="translate(136.2609734875083, 50.31353155835242) scale(1.572403330758505)" light-content="true" non-strokable="false" fill="#F39D1B"><path d="M83.484 72.887l-.719-4.758-.707-4.262-2.523-3.21-7.469-1.067-3.625-.46-2.45-3.985-5.913-7.156-2.887-4.047-1.543-4.297-.3-4.774-.7-5.324.113-9.656-.586-3.809-2.445-4.402-3.617-2.473-4.598-1.324-2.781-.593-2.582-1.895-.152.207-.133.04.031.105-.012.015.961 3.277-2.379 2.989-5.32 8.875 2.918 2.543 2.578-1.824 4.235-1.793 3.386-1.04-1.469 4.325-7.503 4.144-1.743 1.957-3.113-2.664-7.691-1.922-2.93-.449-2 1.629-1.688 2.637-1.3 4.23 4.894-2.687-.347-1.91 1.382-1.383 4.512 2.406-3.11 7.015 3.301 6.641 1.774-4.906-1.317-1.438-.66-1.25 2.563-3.855 4.969 9.265 3.316 3.22 2.36 4.566 4.195 5.132 5.047 4.805 4.566 3.77-.348 3.855.227 3.445 1.531 4.23a2662.56 2662.56 0 0 1 1.156 9.829c-.32.363-1.12 1.48-3.52 4.828l-2.527 2.207-2.699 4.152h10.328l-.691-2.66 4.664-7.328.906-3.832-.73-4.316 2.23-5.348 3.531-2.36 1.739-4.789 1.937-.562.801 2.852 4.602.617 1.683 4.937L80 73.238l5.196 6.223z" fill="#F39D1B"></path></g><g id="SvgjsG1115" class="text" transform="translate(63.72999954223633, 332.61000152587883) scale(1)" light-content="false" fill="#FFFFFF"><path d="M-50.53 0L-47.02 0L-47.02 -41.16L-33.83 -41.16L-33.83 -44.4L-63.73 -44.4L-63.73 -41.16L-50.53 -41.16Z M-17.23 -1.15C-15.18 -0.02 -12.52 0.54 -9.28 0.54C-6.04 0.54 -3.4 -0.02 -1.37 -1.15C0.67 -2.29 2.18 -4.01 3.15 -6.33C4.12 -8.65 4.6 -11.63 4.6 -15.27L4.6 -44.4L1.18 -44.4L1.18 -14.82C1.18 -10.62 0.36 -7.53 -1.29 -5.56C-2.94 -3.6 -5.6 -2.61 -9.28 -2.61C-12.96 -2.61 -15.63 -3.6 -17.28 -5.56C-18.93 -7.53 -19.75 -10.62 -19.75 -14.82L-19.75 -44.4L-23.26 -44.4L-23.26 -15.27C-23.26 -11.63 -22.78 -8.65 -21.79 -6.33C-20.81 -4.01 -19.29 -2.29 -17.23 -1.15Z M28.37 0L31.87 0L31.87 -41.16L45.08 -41.16L45.08 -44.4L15.16 -44.4L15.16 -41.16L28.37 -41.16Z M55.87 0L59.36 0L59.36 -44.4L55.87 -44.4Z" fill="#FFFFFF"></path></g><g id="SvgjsG1116" class="text" transform="translate(281.4100073242188, 332.87999999999994) scale(1)" light-content="false" fill="#FFFFFF"><path d="M-139.53 -4.81C-136 -1.2 -130.86 0.6 -124.09 0.6C-122.53 0.6 -120.95 0.47 -119.35 0.2C-117.76 -0.07 -116.38 -0.43 -115.24 -0.87L-115.24 -9.63C-118.1 -8.69 -120.55 -8.22 -122.59 -8.22C-125.23 -8.22 -127.37 -8.64 -129.01 -9.49C-130.65 -10.35 -131.88 -11.79 -132.7 -13.83C-133.53 -15.87 -133.93 -18.66 -133.93 -22.2C-133.93 -25.64 -133.51 -28.39 -132.67 -30.43C-131.84 -32.49 -130.59 -33.96 -128.92 -34.84C-127.27 -35.73 -125.14 -36.18 -122.56 -36.18C-120.19 -36.18 -117.75 -35.88 -115.24 -35.28L-115.24 -44.04C-117.8 -44.68 -120.55 -45 -123.46 -45C-130.32 -45 -135.6 -43.11 -139.29 -39.31C-142.98 -35.52 -144.82 -29.78 -144.82 -22.08C-144.82 -14.18 -143.06 -8.42 -139.53 -4.81Z M-98.56 -1.78C-95.79 -0.19 -92.5 0.6 -88.69 0.6C-84.89 0.6 -81.61 -0.19 -78.82 -1.78C-76.05 -3.37 -73.89 -5.86 -72.34 -9.25C-70.8 -12.64 -70.03 -16.96 -70.03 -22.2C-70.03 -27.44 -70.8 -31.75 -72.34 -35.14C-73.89 -38.53 -76.05 -41.02 -78.82 -42.61C-81.6 -44.2 -84.89 -45 -88.69 -45C-92.5 -45 -95.79 -44.2 -98.56 -42.61C-101.34 -41.02 -103.51 -38.53 -105.04 -35.14C-106.58 -31.75 -107.35 -27.44 -107.35 -22.2C-107.36 -16.96 -106.59 -12.65 -105.04 -9.25C-103.51 -5.86 -101.35 -3.37 -98.56 -1.78ZM-84.34 -9.4C-85.51 -8.52 -86.95 -8.07 -88.69 -8.07C-90.43 -8.07 -91.88 -8.52 -93.04 -9.43C-94.2 -10.35 -95.09 -11.85 -95.7 -13.95C-96.31 -16.05 -96.61 -18.87 -96.61 -22.41C-96.61 -25.81 -96.31 -28.53 -95.7 -30.58C-95.09 -32.64 -94.2 -34.11 -93.04 -34.99C-91.88 -35.88 -90.43 -36.33 -88.69 -36.33C-86.95 -36.33 -85.51 -35.88 -84.34 -34.96C-83.18 -34.05 -82.3 -32.55 -81.69 -30.45C-81.08 -28.35 -80.77 -25.53 -80.77 -21.99C-80.77 -18.59 -81.08 -15.86 -81.69 -13.81C-82.3 -11.76 -83.18 -10.29 -84.34 -9.4Z M-51.91 -1.27C-49.4 -0.02 -46.2 0.6 -42.31 0.6C-38.47 0.6 -35.32 -0.02 -32.83 -1.27C-30.36 -2.53 -28.51 -4.49 -27.28 -7.17C-26.07 -9.85 -25.45 -13.35 -25.45 -17.67L-25.45 -44.4L-35.65 -44.4L-35.65 -16.47C-35.65 -13.51 -36.2 -11.38 -37.3 -10.09C-38.41 -8.8 -40.08 -8.16 -42.31 -8.16C-44.55 -8.16 -46.24 -8.8 -47.37 -10.09C-48.5 -11.38 -49.06 -13.51 -49.06 -16.47L-49.06 -44.4L-59.47 -44.4L-59.47 -17.67C-59.47 -13.37 -58.84 -9.87 -57.58 -7.18C-56.32 -4.5 -54.43 -2.53 -51.91 -1.27Z M11.51 -44.4L11.51 -17.4L-3.32 -44.4L-13.69 -44.4L-13.69 0L-3.97 0L-3.97 -27L10.85 0L21.23 0L21.23 -44.4Z M42.32 0L52.79 0L52.79 -35.19L64.79 -35.19L64.79 -44.4L30.35 -44.4L30.35 -35.19L42.32 -35.19Z M97.24 0L108.32 0L97.34 -17.58C99.82 -18.72 101.73 -20.37 103.08 -22.53C104.43 -24.69 105.09 -27.29 105.07 -30.33C105.07 -35.23 103.55 -38.89 100.5 -41.32C97.45 -43.75 92.86 -44.97 86.72 -44.97C82.5 -44.97 78.22 -44.5 73.88 -43.56L73.88 0L84.14 0L84.14 -15.75C84.8 -15.75 85.29 -15.74 85.64 -15.72L87.68 -15.69ZM84.14 -24.03L84.14 -36.57C85.34 -36.79 86.66 -36.9 88.13 -36.9C92.87 -36.9 95.24 -34.71 95.24 -30.33C95.24 -28.03 94.61 -26.38 93.36 -25.36C92.11 -24.35 90.22 -23.85 87.68 -23.85C86.52 -23.85 85.34 -23.91 84.14 -24.03Z M148.39 -44.4L138.37 -44.4L129.61 -28.02L120.88 -44.4L109.96 -44.4L124.09 -18.51L124.09 0L134.51 0L134.51 -18.57Z" fill="#FFFFFF"></path></g></g></svg>