<svg xmlns:xlink="http://www.w3.org/1999/xlink" xmlns="http://www.w3.org/2000/svg" width="300" height="148" preserveAspectRatio="xMidYMid meet" viewBox="0 -1.7480006420100835e-7 229.83131408691406 146.99998474121094" overflow="visible"><defs id="SvgjsDefs1043"></defs><g id="SvgjsG1044" transform="scale(0.5481701890722198)" opacity="1"><g id="SvgjsG1045" class="lHcifg9nu" transform="translate(120.23986463297486, -9.643413214859358) scale(1.7874739151608041)" light-content="false" non-strokable="false" fill="#FFFFFF"><path d="M83.484 72.887l-.719-4.758-.707-4.262-2.523-3.21-7.469-1.067-3.625-.46-2.45-3.985-5.913-7.156-2.887-4.047-1.543-4.297-.3-4.774-.7-5.324.113-9.656-.586-3.809-2.445-4.402-3.617-2.473-4.598-1.324-2.781-.593-2.582-1.895-.152.207-.133.04.031.105-.012.015.961 3.277-2.379 2.989-5.32 8.875 2.918 2.543 2.578-1.824 4.235-1.793 3.386-1.04-1.469 4.325-7.503 4.144-1.743 1.957-3.113-2.664-7.691-1.922-2.93-.449-2 1.629-1.688 2.637-1.3 4.23 4.894-2.687-.347-1.91 1.382-1.383 4.512 2.406-3.11 7.015 3.301 6.641 1.774-4.906-1.317-1.438-.66-1.25 2.563-3.855 4.969 9.265 3.316 3.22 2.36 4.566 4.195 5.132 5.047 4.805 4.566 3.77-.348 3.855.227 3.445 1.531 4.23a2662.56 2662.56 0 0 1 1.156 9.829c-.32.363-1.12 1.48-3.52 4.828l-2.527 2.207-2.699 4.152h10.328l-.691-2.66 4.664-7.328.906-3.832-.73-4.316 2.23-5.348 3.531-2.36 1.739-4.789 1.937-.562.801 2.852 4.602.617 1.683 4.937L80 73.238l5.196 6.223z" fill="#FFFFFF"></path></g><g id="SvgjsG1046" class="text" transform="translate(206.97999572753906, 219.70489236283657) scale(1)" light-content="false" fill="#FFFFFF"><path d="M-200.74 -5.04L-201.88 0L-187.5 0L-186.36 -5.04L-190.52 -5.04L-182.61 -39.61L-171.83 -39.61L-173.38 -32.7L-167.4 -32.7L-164.68 -44.41L-204.29 -44.41L-206.98 -32.7L-200.98 -32.7L-199.42 -39.61L-188.67 -39.61L-196.64 -5.04Z M-145.03 -30.35L-146.23 -25.31L-142.24 -25.31L-146.11 -8.73C-146.6 -7.97 -147.2 -7.25 -147.91 -6.56C-148.62 -5.88 -149.42 -5.35 -150.28 -4.97C-151.15 -4.58 -152.15 -4.39 -153.29 -4.39C-155.85 -4.39 -157.52 -5.24 -158.31 -6.94C-159.1 -8.64 -159.07 -11.31 -158.21 -14.94L-154.61 -30.35L-164.57 -30.35L-165.77 -25.31L-161.67 -25.31L-164.45 -13.21C-164.82 -11.61 -165.02 -10.21 -165.04 -8.99C-165.05 -7.78 -164.95 -6.72 -164.71 -5.8C-164.48 -4.88 -164.15 -4.1 -163.73 -3.44C-163.31 -2.79 -162.86 -2.22 -162.37 -1.73C-161.57 -0.99 -160.58 -0.42 -159.4 -0.04C-158.21 0.34 -156.96 0.53 -155.63 0.53C-155.01 0.53 -154.33 0.46 -153.59 0.32C-152.86 0.19 -152.12 -0.02 -151.37 -0.31C-150.62 -0.59 -149.88 -0.96 -149.16 -1.42C-148.43 -1.88 -147.76 -2.43 -147.13 -3.08L-147.84 0L-137.64 0L-136.5 -5.04L-141.04 -5.04L-135.18 -30.35Z M-120.48 -30.35L-121.68 -25.31L-116.67 -25.31L-120.89 -8.09C-121.26 -6.45 -121.34 -5.06 -121.12 -3.94C-120.91 -2.82 -120.47 -1.91 -119.81 -1.22C-119.14 -0.52 -118.3 -0.02 -117.29 0.28C-116.27 0.58 -115.15 0.73 -113.92 0.73C-112.75 0.73 -111.68 0.59 -110.72 0.31C-109.77 0.02 -108.77 -0.36 -107.74 -0.85L-108.23 -5.04C-109.8 -4.39 -111.13 -4.07 -112.25 -4.07C-113.28 -4.07 -114.04 -4.25 -114.52 -4.61C-115 -4.98 -115.24 -5.6 -115.24 -6.47C-115.24 -6.92 -115.19 -7.35 -115.1 -7.75C-115.02 -8.15 -114.92 -8.54 -114.83 -8.94L-110.96 -25.31L-104.57 -25.31L-103.37 -30.35L-109.76 -30.35L-107.44 -40.14L-113.62 -37.62L-115.41 -30.35Z M-91.28 -30.35L-92.48 -25.31L-87.03 -25.31L-92.89 0L-82.08 0L-80.94 -5.04L-85.8 -5.04L-79.94 -30.35ZM-85.68 -41.04C-85.68 -40.52 -85.58 -40.01 -85.37 -39.54C-85.17 -39.06 -84.89 -38.64 -84.54 -38.28C-84.19 -37.92 -83.78 -37.63 -83.31 -37.41C-82.84 -37.2 -82.33 -37.09 -81.79 -37.09C-81.26 -37.09 -80.76 -37.2 -80.29 -37.41C-79.82 -37.63 -79.42 -37.92 -79.08 -38.28C-78.73 -38.64 -78.46 -39.06 -78.25 -39.54C-78.05 -40.01 -77.95 -40.52 -77.95 -41.04C-77.95 -41.57 -78.05 -42.07 -78.25 -42.54C-78.46 -43.01 -78.73 -43.41 -79.08 -43.75C-79.42 -44.1 -79.82 -44.37 -80.29 -44.58C-80.76 -44.78 -81.26 -44.88 -81.79 -44.88C-82.33 -44.88 -82.84 -44.78 -83.31 -44.58C-83.78 -44.37 -84.19 -44.1 -84.54 -43.75C-84.89 -43.41 -85.17 -43.01 -85.37 -42.54C-85.58 -42.07 -85.68 -41.57 -85.68 -41.04Z M-29.06 -9.43L-34.68 -12.42C-36.38 -9.98 -38.35 -8.15 -40.58 -6.93C-42.82 -5.71 -45.41 -5.1 -48.36 -5.1C-50.04 -5.1 -51.65 -5.43 -53.2 -6.11C-54.74 -6.78 -56.1 -7.75 -57.27 -9.01C-58.44 -10.27 -59.38 -11.8 -60.08 -13.61C-60.79 -15.42 -61.14 -17.44 -61.14 -19.69C-61.14 -22.38 -60.69 -24.93 -59.79 -27.32C-58.89 -29.71 -57.64 -31.81 -56.04 -33.6C-54.44 -35.4 -52.54 -36.82 -50.36 -37.87C-48.17 -38.91 -45.79 -39.43 -43.21 -39.43C-41.86 -39.43 -40.6 -39.27 -39.43 -38.94C-38.26 -38.6 -37.2 -38.14 -36.25 -37.54C-35.3 -36.95 -34.47 -36.23 -33.76 -35.39C-33.05 -34.55 -32.47 -33.63 -32.04 -32.64L-23.96 -32.64L-22.76 -37.68L-27.33 -37.68C-28.99 -40.04 -31.11 -41.89 -33.7 -43.23C-36.29 -44.57 -39.24 -45.23 -42.56 -45.23C-44.96 -45.23 -47.25 -44.93 -49.43 -44.33C-51.61 -43.72 -53.63 -42.86 -55.5 -41.75C-57.36 -40.63 -59.05 -39.29 -60.55 -37.72C-62.05 -36.15 -63.33 -34.4 -64.39 -32.48C-65.44 -30.55 -66.26 -28.47 -66.83 -26.22C-67.41 -23.97 -67.7 -21.63 -67.7 -19.19C-67.7 -16.34 -67.23 -13.7 -66.28 -11.26C-65.33 -8.83 -64.03 -6.73 -62.37 -4.95C-60.71 -3.17 -58.74 -1.78 -56.46 -0.78C-54.19 0.23 -51.71 0.73 -49.04 0.73C-46.81 0.73 -44.73 0.5 -42.8 0.04C-40.86 -0.42 -39.07 -1.08 -37.41 -1.95C-35.75 -2.82 -34.22 -3.88 -32.84 -5.14C-31.45 -6.4 -30.19 -7.83 -29.06 -9.43Z M-18.69 -13.15C-18.69 -11.2 -18.34 -9.38 -17.65 -7.69C-16.96 -6 -15.99 -4.53 -14.74 -3.28C-13.49 -2.03 -12.01 -1.05 -10.31 -0.34C-8.61 0.38 -6.75 0.73 -4.72 0.73C-3.1 0.73 -1.53 0.52 -0.03 0.09C1.47 -0.34 2.89 -0.95 4.2 -1.73C5.52 -2.51 6.72 -3.46 7.79 -4.57C8.87 -5.68 9.79 -6.91 10.56 -8.26C11.33 -9.61 11.93 -11.06 12.36 -12.63C12.79 -14.19 13.01 -15.82 13.01 -17.52C13.01 -19.43 12.65 -21.23 11.94 -22.9C11.23 -24.57 10.24 -26.02 8.99 -27.26C7.74 -28.5 6.26 -29.48 4.54 -30.19C2.82 -30.9 0.96 -31.26 -1.05 -31.26C-2.66 -31.26 -4.2 -31.04 -5.7 -30.62C-7.19 -30.19 -8.59 -29.58 -9.9 -28.8C-11.21 -28.02 -12.41 -27.08 -13.49 -25.99C-14.58 -24.89 -15.5 -23.67 -16.27 -22.32C-17.05 -20.98 -17.64 -19.53 -18.06 -17.99C-18.48 -16.45 -18.69 -14.83 -18.69 -13.15ZM-12.57 -13.56C-12.57 -15.4 -12.26 -17.09 -11.63 -18.63C-11.01 -20.18 -10.18 -21.5 -9.14 -22.6C-8.11 -23.71 -6.92 -24.57 -5.58 -25.18C-4.24 -25.8 -2.85 -26.1 -1.41 -26.1C-0.21 -26.1 0.88 -25.89 1.89 -25.47C2.9 -25.05 3.77 -24.45 4.51 -23.67C5.25 -22.89 5.83 -21.95 6.25 -20.86C6.67 -19.77 6.88 -18.54 6.88 -17.17C6.88 -15.29 6.57 -13.57 5.93 -12.01C5.3 -10.45 4.46 -9.11 3.43 -8C2.39 -6.88 1.2 -6.02 -0.16 -5.39C-1.52 -4.77 -2.91 -4.45 -4.34 -4.45C-5.55 -4.45 -6.66 -4.67 -7.68 -5.11C-8.69 -5.55 -9.56 -6.17 -10.28 -6.96C-11.01 -7.75 -11.57 -8.71 -11.97 -9.83C-12.37 -10.95 -12.57 -12.2 -12.57 -13.56Z M45.99 -30.35L44.79 -25.31L48.77 -25.31L44.91 -8.73C44.42 -7.97 43.82 -7.25 43.1 -6.56C42.39 -5.88 41.6 -5.35 40.73 -4.97C39.86 -4.58 38.86 -4.39 37.73 -4.39C35.17 -4.39 33.5 -5.24 32.7 -6.94C31.91 -8.64 31.95 -11.31 32.81 -14.94L36.41 -30.35L26.45 -30.35L25.25 -25.31L29.35 -25.31L26.57 -13.21C26.2 -11.61 26 -10.21 25.98 -8.99C25.96 -7.78 26.07 -6.72 26.3 -5.8C26.54 -4.88 26.86 -4.1 27.28 -3.44C27.7 -2.79 28.16 -2.22 28.65 -1.73C29.45 -0.99 30.44 -0.42 31.62 -0.04C32.8 0.34 34.06 0.53 35.38 0.53C36.01 0.53 36.69 0.46 37.42 0.32C38.15 0.19 38.9 -0.02 39.65 -0.31C40.4 -0.59 41.14 -0.96 41.86 -1.42C42.58 -1.88 43.26 -2.43 43.88 -3.08L43.18 0L53.37 0L54.52 -5.04L49.97 -5.04L55.83 -30.35Z M70.59 -30.35L69.39 -25.31L75.19 -25.31L69.33 0L75.28 0L80.35 -22.03C81.58 -23.2 82.88 -24.12 84.25 -24.77C85.61 -25.42 87.06 -25.75 88.58 -25.75C90.73 -25.75 92.25 -25.17 93.15 -23.99C94.05 -22.82 94.23 -21.08 93.68 -18.78L89.31 0L99.57 0L100.71 -5.04L96.4 -5.04L99.74 -19.51C100.17 -21.41 100.26 -23.07 100.01 -24.49C99.75 -25.92 99.23 -27.11 98.43 -28.07C97.62 -29.02 96.59 -29.74 95.33 -30.21C94.08 -30.67 92.66 -30.91 91.1 -30.91C89.27 -30.91 87.52 -30.59 85.87 -29.94C84.22 -29.3 82.7 -28.4 81.32 -27.25L82.05 -30.35Z M116.61 -30.35L115.41 -25.31L120.42 -25.31L116.2 -8.09C115.83 -6.45 115.75 -5.06 115.97 -3.94C116.18 -2.82 116.62 -1.91 117.29 -1.22C117.95 -0.52 118.79 -0.02 119.81 0.28C120.82 0.58 121.95 0.73 123.18 0.73C124.35 0.73 125.41 0.59 126.37 0.31C127.33 0.02 128.32 -0.36 129.36 -0.85L128.86 -5.04C127.3 -4.39 125.96 -4.07 124.85 -4.07C123.81 -4.07 123.05 -4.25 122.58 -4.61C122.1 -4.98 121.86 -5.6 121.86 -6.47C121.86 -6.92 121.9 -7.35 121.99 -7.75C122.08 -8.15 122.17 -8.54 122.27 -8.94L126.13 -25.31L132.52 -25.31L133.72 -30.35L127.34 -30.35L129.65 -40.14L123.47 -37.62L121.68 -30.35Z M168.02 -21.97L169.96 -30.18C168.94 -30.31 168.15 -30.4 167.57 -30.45C166.99 -30.5 166.45 -30.54 165.94 -30.56C165.44 -30.58 164.83 -30.59 164.13 -30.59C163.37 -30.59 162.61 -30.47 161.86 -30.25C161.1 -30.02 160.38 -29.72 159.69 -29.33C159 -28.94 158.34 -28.47 157.71 -27.93C157.09 -27.4 156.5 -26.82 155.95 -26.19L156.92 -30.35L145.46 -30.35L144.26 -25.31L150.06 -25.31L144.21 0L155.19 0L156.33 -5.04L151.29 -5.04L154.81 -20.27C155.67 -21.86 156.76 -23.13 158.09 -24.1C159.42 -25.06 161.03 -25.55 162.93 -25.55L162.08 -21.97Z M181.14 -30.35L179.94 -25.31L182.81 -25.31L186.15 0.26L180.73 8.76L177.77 8.76L176.51 13.8L188.53 13.8L189.79 8.76L186.83 8.76L208.54 -25.31L211.08 -25.31L212.29 -30.35L201.18 -30.35L199.98 -25.31L202.47 -25.31L190.52 -6.59L188.73 -25.31L191.04 -25.31L192.25 -30.35Z" fill="#FFFFFF"></path></g><g id="SvgjsG1047" class="text" transform="translate(209.9800016784668, 263.7048926298654) scale(1)" light-content="false" fill="#FFFFFF"><path d="M-50.42 -8.1C-50.29 -7.91 -50.22 -7.68 -50.22 -7.4L-48.22 -7.4L-48.22 -9.08L-49.17 -9.08C-49.56 -9.57 -50 -9.92 -50.49 -10.12C-50.98 -10.32 -51.58 -10.42 -52.3 -10.42C-52.86 -10.42 -53.36 -10.35 -53.8 -10.2C-54.24 -10.05 -54.6 -9.84 -54.91 -9.58C-55.21 -9.31 -55.44 -9 -55.6 -8.63C-55.76 -8.27 -55.84 -7.87 -55.84 -7.44C-55.84 -6.79 -55.65 -6.25 -55.27 -5.82C-54.89 -5.38 -54.3 -5.03 -53.52 -4.75L-51.58 -4.02C-51.07 -3.84 -50.71 -3.64 -50.5 -3.41C-50.29 -3.18 -50.19 -2.9 -50.19 -2.58C-50.19 -2.36 -50.24 -2.17 -50.34 -2C-50.45 -1.83 -50.59 -1.69 -50.77 -1.57C-50.95 -1.45 -51.15 -1.36 -51.39 -1.29C-51.62 -1.23 -51.87 -1.2 -52.12 -1.2C-52.38 -1.2 -52.64 -1.23 -52.89 -1.29C-53.14 -1.35 -53.36 -1.44 -53.56 -1.56C-53.76 -1.69 -53.92 -1.85 -54.04 -2.05C-54.16 -2.24 -54.22 -2.48 -54.22 -2.76L-56.24 -2.76L-56.24 -1.08L-55.22 -1.08C-54.96 -0.67 -54.58 -0.33 -54.08 -0.08C-53.59 0.18 -52.95 0.3 -52.16 0.3C-51.59 0.3 -51.08 0.23 -50.62 0.08C-50.15 -0.06 -49.76 -0.27 -49.43 -0.53C-49.1 -0.8 -48.85 -1.11 -48.67 -1.49C-48.49 -1.86 -48.4 -2.28 -48.4 -2.72C-48.4 -3.4 -48.59 -3.97 -48.97 -4.45C-49.36 -4.93 -49.97 -5.32 -50.8 -5.6L-52.74 -6.28C-53.23 -6.45 -53.57 -6.63 -53.77 -6.83C-53.98 -7.03 -54.08 -7.3 -54.08 -7.64C-54.08 -7.83 -54.04 -8.01 -53.95 -8.17C-53.86 -8.33 -53.74 -8.46 -53.58 -8.57C-53.43 -8.68 -53.24 -8.77 -53.02 -8.83C-52.8 -8.89 -52.57 -8.92 -52.3 -8.92C-52.07 -8.92 -51.83 -8.89 -51.58 -8.83C-51.33 -8.78 -51.11 -8.69 -50.91 -8.57C-50.71 -8.45 -50.54 -8.29 -50.42 -8.1Z M-46.45 -15.2L-46.45 -13.52L-44.98 -13.52L-44.98 -1.68L-46.45 -1.68L-46.45 0L-41.64 0L-41.64 -1.68L-43.16 -1.68L-43.16 -15.2Z M-40 -5.06C-39.99 -4.26 -39.87 -3.54 -39.62 -2.88C-39.37 -2.22 -39.03 -1.66 -38.58 -1.19C-38.14 -0.71 -37.61 -0.35 -36.99 -0.09C-36.37 0.17 -35.68 0.3 -34.92 0.3C-34.17 0.3 -33.49 0.17 -32.87 -0.09C-32.24 -0.36 -31.71 -0.73 -31.27 -1.2C-30.83 -1.68 -30.48 -2.24 -30.23 -2.91C-29.99 -3.57 -29.86 -4.29 -29.86 -5.08C-29.86 -5.88 -29.99 -6.61 -30.23 -7.27C-30.48 -7.92 -30.83 -8.48 -31.27 -8.95C-31.71 -9.42 -32.24 -9.78 -32.87 -10.03C-33.49 -10.28 -34.17 -10.41 -34.92 -10.41C-35.66 -10.41 -36.34 -10.28 -36.96 -10.03C-37.58 -9.78 -38.12 -9.41 -38.56 -8.94C-39.01 -8.47 -39.36 -7.9 -39.61 -7.25C-39.86 -6.59 -39.99 -5.86 -40 -5.06ZM-38.08 -5.06C-38.08 -5.67 -37.99 -6.21 -37.83 -6.69C-37.66 -7.16 -37.43 -7.56 -37.14 -7.88C-36.85 -8.2 -36.52 -8.44 -36.14 -8.6C-35.76 -8.77 -35.35 -8.85 -34.92 -8.85C-34.47 -8.85 -34.05 -8.77 -33.66 -8.6C-33.27 -8.44 -32.93 -8.2 -32.65 -7.88C-32.37 -7.56 -32.15 -7.16 -31.98 -6.69C-31.82 -6.21 -31.74 -5.67 -31.74 -5.06C-31.74 -4.47 -31.82 -3.95 -31.98 -3.48C-32.15 -3.01 -32.37 -2.61 -32.66 -2.28C-32.94 -1.95 -33.28 -1.7 -33.67 -1.52C-34.05 -1.35 -34.47 -1.26 -34.92 -1.26C-35.35 -1.26 -35.76 -1.35 -36.14 -1.53C-36.52 -1.71 -36.85 -1.96 -37.14 -2.29C-37.43 -2.62 -37.66 -3.02 -37.83 -3.49C-37.99 -3.96 -38.08 -4.48 -38.08 -5.06Z M-20.5 -0.89L-20.5 -0.74C-20.5 -0.05 -20.56 0.52 -20.67 0.97C-20.79 1.42 -20.97 1.77 -21.21 2.04C-21.44 2.3 -21.75 2.48 -22.11 2.59C-22.48 2.69 -22.92 2.74 -23.42 2.74C-23.72 2.74 -24.03 2.71 -24.34 2.66C-24.64 2.6 -24.94 2.52 -25.22 2.42C-25.51 2.32 -25.78 2.19 -26.03 2.05C-26.28 1.91 -26.5 1.75 -26.7 1.58L-27.68 3.06C-27.38 3.31 -27.05 3.53 -26.69 3.7C-26.34 3.88 -25.97 4.02 -25.6 4.14C-25.23 4.25 -24.85 4.33 -24.46 4.38C-24.08 4.44 -23.71 4.46 -23.36 4.46C-21.76 4.46 -20.58 4.05 -19.82 3.23C-19.06 2.41 -18.68 1.2 -18.68 -0.4L-18.68 -10.12L-20.5 -10.12L-20.5 -9.6C-20.88 -9.88 -21.28 -10.08 -21.68 -10.19C-22.09 -10.3 -22.55 -10.36 -23.06 -10.36C-23.8 -10.36 -24.47 -10.24 -25.08 -9.99C-25.68 -9.73 -26.2 -9.38 -26.63 -8.93C-27.06 -8.48 -27.39 -7.93 -27.63 -7.29C-27.86 -6.65 -27.98 -5.94 -27.98 -5.16C-27.98 -4.3 -27.86 -3.53 -27.61 -2.87C-27.37 -2.2 -27.03 -1.64 -26.6 -1.18C-26.16 -0.72 -25.65 -0.37 -25.06 -0.13C-24.47 0.11 -23.84 0.22 -23.15 0.22C-22.59 0.22 -22.09 0.13 -21.66 -0.07C-21.22 -0.26 -20.83 -0.54 -20.5 -0.89ZM-22.92 -1.36C-23.38 -1.36 -23.81 -1.44 -24.2 -1.6C-24.59 -1.76 -24.93 -2.01 -25.21 -2.33C-25.49 -2.65 -25.7 -3.05 -25.86 -3.53C-26.02 -4 -26.09 -4.55 -26.09 -5.18C-26.09 -5.75 -26.01 -6.26 -25.85 -6.7C-25.69 -7.14 -25.46 -7.52 -25.18 -7.82C-24.9 -8.13 -24.57 -8.36 -24.19 -8.52C-23.81 -8.68 -23.41 -8.76 -22.98 -8.76C-22.52 -8.76 -22.08 -8.69 -21.65 -8.56C-21.21 -8.43 -20.83 -8.22 -20.5 -7.93L-20.5 -2.39C-20.61 -2.26 -20.74 -2.13 -20.89 -2C-21.05 -1.88 -21.22 -1.77 -21.43 -1.67C-21.63 -1.58 -21.85 -1.5 -22.1 -1.45C-22.35 -1.39 -22.62 -1.36 -22.92 -1.36Z M-10.23 -0.94L-10.23 0L-7.29 0L-7.29 -1.68L-8.42 -1.68L-8.41 -6.74C-8.41 -7.37 -8.5 -7.91 -8.67 -8.36C-8.85 -8.82 -9.1 -9.19 -9.42 -9.48C-9.75 -9.78 -10.15 -9.99 -10.62 -10.13C-11.08 -10.27 -11.61 -10.34 -12.2 -10.34C-12.52 -10.34 -12.84 -10.31 -13.17 -10.26C-13.5 -10.2 -13.82 -10.13 -14.14 -10.03C-14.45 -9.94 -14.75 -9.83 -15.04 -9.69C-15.33 -9.56 -15.59 -9.41 -15.83 -9.26L-15.23 -8C-15.09 -8.1 -14.92 -8.19 -14.71 -8.28C-14.51 -8.36 -14.28 -8.44 -14.04 -8.51C-13.79 -8.58 -13.53 -8.63 -13.25 -8.68C-12.97 -8.72 -12.68 -8.74 -12.37 -8.74C-12.05 -8.74 -11.75 -8.7 -11.49 -8.61C-11.23 -8.53 -11 -8.4 -10.81 -8.23C-10.62 -8.06 -10.48 -7.84 -10.37 -7.57C-10.27 -7.31 -10.21 -7 -10.21 -6.64L-10.22 -5.81C-10.49 -5.86 -10.77 -5.9 -11.09 -5.93C-11.41 -5.96 -11.81 -5.98 -12.28 -5.98C-12.57 -5.98 -12.88 -5.96 -13.2 -5.91C-13.52 -5.87 -13.84 -5.8 -14.15 -5.7C-14.45 -5.6 -14.75 -5.46 -15.03 -5.3C-15.32 -5.13 -15.56 -4.93 -15.78 -4.68C-15.99 -4.44 -16.16 -4.15 -16.28 -3.82C-16.41 -3.49 -16.47 -3.11 -16.47 -2.68C-16.47 -2.27 -16.39 -1.89 -16.23 -1.53C-16.06 -1.18 -15.83 -0.86 -15.53 -0.59C-15.23 -0.32 -14.87 -0.11 -14.46 0.05C-14.04 0.21 -13.59 0.28 -13.1 0.28C-12.5 0.28 -11.97 0.17 -11.51 -0.06C-11.04 -0.29 -10.62 -0.58 -10.23 -0.94ZM-12.7 -1.24C-12.99 -1.24 -13.27 -1.27 -13.52 -1.34C-13.76 -1.41 -13.98 -1.51 -14.16 -1.65C-14.33 -1.78 -14.47 -1.94 -14.57 -2.14C-14.67 -2.34 -14.72 -2.57 -14.72 -2.84C-14.72 -3.13 -14.66 -3.38 -14.54 -3.6C-14.42 -3.82 -14.26 -4.01 -14.05 -4.16C-13.84 -4.31 -13.59 -4.42 -13.3 -4.5C-13.01 -4.58 -12.69 -4.62 -12.33 -4.62L-10.22 -4.62L-10.23 -2.33C-10.36 -2.19 -10.51 -2.05 -10.69 -1.92C-10.88 -1.79 -11.07 -1.67 -11.29 -1.57C-11.5 -1.47 -11.73 -1.39 -11.97 -1.33C-12.21 -1.27 -12.45 -1.24 -12.7 -1.24Z M1.42 -1.68L1.42 0L6.14 0L6.14 -1.68L4.74 -1.68L4.74 -6.52C4.74 -7.17 4.65 -7.74 4.49 -8.22C4.32 -8.7 4.09 -9.09 3.78 -9.39C3.47 -9.7 3.1 -9.93 2.67 -10.08C2.23 -10.23 1.74 -10.3 1.2 -10.3C0.88 -10.3 0.58 -10.27 0.29 -10.2C0 -10.12 -0.28 -10.03 -0.55 -9.9C-0.81 -9.78 -1.07 -9.63 -1.31 -9.46C-1.56 -9.29 -1.79 -9.11 -2 -8.93L-2.02 -8.93L-2.02 -10.12L-5.24 -10.12L-5.24 -8.44L-3.84 -8.44L-3.84 -1.68L-5.24 -1.68L-5.24 0L-0.52 0L-0.52 -1.68L-1.94 -1.68L-1.94 -7.61C-1.56 -7.91 -1.15 -8.16 -0.72 -8.36C-0.29 -8.56 0.13 -8.66 0.56 -8.66C1.29 -8.66 1.86 -8.46 2.25 -8.06C2.64 -7.66 2.84 -7.07 2.84 -6.3L2.84 -1.68Z M7.12 0Z M12.61 -15.2L12.61 -13.52L13.99 -13.52L13.99 -1.68L12.47 -1.68L12.47 0L17.28 0L17.28 -1.68L15.81 -1.68L15.81 -7.62C16.19 -7.92 16.59 -8.17 17.02 -8.36C17.45 -8.56 17.87 -8.66 18.29 -8.66C19.03 -8.66 19.59 -8.46 19.99 -8.06C20.38 -7.66 20.58 -7.07 20.58 -6.3L20.58 -1.68L19.19 -1.68L19.19 0L23.99 0L23.99 -1.68L22.47 -1.68L22.47 -6.52C22.47 -7.17 22.39 -7.74 22.22 -8.22C22.06 -8.7 21.82 -9.09 21.51 -9.39C21.21 -9.7 20.84 -9.93 20.4 -10.08C19.96 -10.23 19.48 -10.3 18.94 -10.3C18.63 -10.3 18.34 -10.27 18.06 -10.21C17.78 -10.14 17.51 -10.05 17.25 -9.93C16.99 -9.81 16.74 -9.68 16.5 -9.52C16.26 -9.36 16.05 -9.19 15.87 -9L15.81 -9L15.81 -15.2Z M27.41 -4.82L34.7 -4.82C34.7 -5.07 34.69 -5.31 34.68 -5.57C34.67 -5.82 34.65 -6.07 34.62 -6.32C34.55 -6.83 34.44 -7.32 34.27 -7.81C34.11 -8.3 33.86 -8.74 33.54 -9.12C33.22 -9.5 32.8 -9.8 32.29 -10.03C31.78 -10.27 31.14 -10.38 30.38 -10.38C29.59 -10.38 28.9 -10.24 28.31 -9.96C27.72 -9.68 27.22 -9.3 26.82 -8.82C26.42 -8.34 26.12 -7.78 25.92 -7.14C25.72 -6.5 25.62 -5.82 25.62 -5.1C25.62 -4.21 25.73 -3.42 25.97 -2.75C26.21 -2.08 26.54 -1.52 26.96 -1.07C27.38 -0.62 27.88 -0.29 28.46 -0.06C29.04 0.17 29.68 0.28 30.36 0.28C31.08 0.28 31.78 0.17 32.45 -0.05C33.12 -0.27 33.79 -0.61 34.45 -1.06L33.72 -2.3C33.17 -1.99 32.65 -1.76 32.15 -1.62C31.66 -1.47 31.14 -1.4 30.62 -1.4C29.94 -1.4 29.34 -1.56 28.81 -1.89C28.28 -2.22 27.9 -2.71 27.66 -3.36C27.58 -3.57 27.52 -3.8 27.48 -4.04C27.43 -4.28 27.41 -4.54 27.41 -4.82ZM30.25 -8.86C30.7 -8.86 31.08 -8.79 31.39 -8.66C31.69 -8.53 31.94 -8.35 32.14 -8.12C32.33 -7.88 32.48 -7.6 32.57 -7.29C32.67 -6.97 32.73 -6.62 32.75 -6.24L27.51 -6.24C27.57 -6.64 27.67 -7.01 27.81 -7.33C27.94 -7.66 28.12 -7.93 28.34 -8.16C28.56 -8.38 28.83 -8.56 29.15 -8.68C29.46 -8.8 29.83 -8.86 30.25 -8.86Z M44.44 -7.98L44.44 -10.18C44.14 -10.19 43.84 -10.2 43.54 -10.2L42.59 -10.2C42.33 -10.2 42.1 -10.16 41.88 -10.08C41.66 -10.01 41.46 -9.9 41.28 -9.77C41.11 -9.64 40.94 -9.48 40.8 -9.3C40.65 -9.12 40.52 -8.93 40.4 -8.72L40.4 -10.12L37.17 -10.12L37.17 -8.44L38.57 -8.44L38.56 -1.68L37.17 -1.68L37.17 0L42.19 0L42.19 -1.68L40.47 -1.68L40.47 -6.56C40.53 -6.91 40.64 -7.22 40.79 -7.48C40.93 -7.73 41.1 -7.94 41.3 -8.11C41.49 -8.28 41.7 -8.4 41.93 -8.48C42.15 -8.56 42.37 -8.6 42.59 -8.6L42.59 -7.98Z M48.26 -4.82L55.55 -4.82C55.55 -5.07 55.54 -5.31 55.53 -5.57C55.52 -5.82 55.5 -6.07 55.47 -6.32C55.4 -6.83 55.29 -7.32 55.12 -7.81C54.96 -8.3 54.71 -8.74 54.39 -9.12C54.07 -9.5 53.65 -9.8 53.14 -10.03C52.63 -10.27 51.99 -10.38 51.23 -10.38C50.44 -10.38 49.75 -10.24 49.16 -9.96C48.57 -9.68 48.07 -9.3 47.67 -8.82C47.27 -8.34 46.97 -7.78 46.77 -7.14C46.57 -6.5 46.46 -5.82 46.46 -5.1C46.46 -4.21 46.58 -3.42 46.82 -2.75C47.06 -2.08 47.39 -1.52 47.81 -1.07C48.23 -0.62 48.73 -0.29 49.31 -0.06C49.89 0.17 50.53 0.28 51.21 0.28C51.93 0.28 52.63 0.17 53.3 -0.05C53.97 -0.27 54.64 -0.61 55.3 -1.06L54.57 -2.3C54.02 -1.99 53.5 -1.76 53 -1.62C52.5 -1.47 51.99 -1.4 51.46 -1.4C50.79 -1.4 50.19 -1.56 49.66 -1.89C49.13 -2.22 48.75 -2.71 48.51 -3.36C48.43 -3.57 48.37 -3.8 48.33 -4.04C48.28 -4.28 48.26 -4.54 48.26 -4.82ZM51.1 -8.86C51.55 -8.86 51.93 -8.79 52.24 -8.66C52.54 -8.53 52.79 -8.35 52.99 -8.12C53.18 -7.88 53.33 -7.6 53.42 -7.29C53.52 -6.97 53.58 -6.62 53.6 -6.24L48.36 -6.24C48.42 -6.64 48.52 -7.01 48.66 -7.33C48.79 -7.66 48.97 -7.93 49.19 -8.16C49.41 -8.38 49.68 -8.56 50 -8.68C50.31 -8.8 50.68 -8.86 51.1 -8.86Z" fill="#FFFFFF"></path></g></g></svg>