<svg xmlns="http://www.w3.org/2000/svg" width="340.7" height="230.94"><defs><style>.cls-1{fill:#fff}</style></defs><g id="Camada_2" data-name="Camada 2"><g id="Camada_2-2" data-name="Camada 2"><path class="cls-1" d="M125.31 61.77h20.48v51.72a38.82 38.82 0 0 1-3.18 15.62 41.46 41.46 0 0 1-8.55 12.79 39.75 39.75 0 0 1-12.69 8.65 40.26 40.26 0 0 1-32.17-.35 41.51 41.51 0 0 1-13.2-9.71 41.51 41.51 0 0 1-13.22 9.71 38.78 38.78 0 0 1-16.57 3.53 38.73 38.73 0 0 1-15.6-3.18 39.75 39.75 0 0 1-12.71-8.65 40.42 40.42 0 0 1-11.55-28.41V61.77h20.48v51.84a19.38 19.38 0 0 0 5.65 13.81 20.49 20.49 0 0 0 6.17 4.24 18.7 18.7 0 0 0 15.09 0 20.35 20.35 0 0 0 6.26-4.24 20.73 20.73 0 0 0 4.23-6.2 18.34 18.34 0 0 0 1.59-7.61V61.77h20.84v51.84a20.45 20.45 0 0 0 5.82 14.16 18.25 18.25 0 0 0 13.42 5.48 17.85 17.85 0 0 0 7.41-1.59 20.35 20.35 0 0 0 10.41-10.44 18.34 18.34 0 0 0 1.59-7.61zm40.24-22.41a12.69 12.69 0 0 1 3.71-9.36 12.25 12.25 0 0 1 9-3.7 12.66 12.66 0 0 1 13.06 13.06 12.25 12.25 0 0 1-3.7 9 12.7 12.7 0 0 1-9.36 3.7 12.65 12.65 0 0 1-12.71-12.7zM168 61.77h20.5V150H168zM270.75 98a19 19 0 0 0-1.5-7.41 19.7 19.7 0 0 0-4.15-6.18 20.82 20.82 0 0 0-6.18-4.23 18.28 18.28 0 0 0-7.59-1.59 17.41 17.41 0 0 0-7.59 1.68 22.28 22.28 0 0 0-6.18 4.32 20.82 20.82 0 0 0-4.23 6.18 17.41 17.41 0 0 0-1.59 7.23l.18 52.07h-20.65v-88.3h20.47v5.12a23.36 23.36 0 0 1 8.47-6.71 28.22 28.22 0 0 1 11.12-2.47 38.35 38.35 0 0 1 15.44 3.18 42 42 0 0 1 12.89 8.65 40.21 40.21 0 0 1 8.73 12.79A38.82 38.82 0 0 1 291.57 98l.18 52.07h-20.83zM6.63 42.93a5.42 5.42 0 0 1 .44-2.21 5.79 5.79 0 0 1 1.22-1.8 6.16 6.16 0 0 1 1.8-1.2 5.7 5.7 0 0 1 4.44 0 5.86 5.86 0 0 1 1.79 1.2 5.76 5.76 0 0 1 1.21 1.8 5.42 5.42 0 0 1 .47 2.21v5.23h-2.44v-.58a5.48 5.48 0 0 1-3.25 1 6.06 6.06 0 0 1-2.31-.42A5.22 5.22 0 0 1 8.18 47 5.43 5.43 0 0 1 7 45.15a6 6 0 0 1-.37-2.22zm2.41 0a3.12 3.12 0 0 0 .26 1.26 3.59 3.59 0 0 0 .7 1 3.37 3.37 0 0 0 1 .69 3 3 0 0 0 1.26.26 3.38 3.38 0 0 0 1.27-.24 3.1 3.1 0 0 0 1-.67 3.19 3.19 0 0 0 .7-1 3.29 3.29 0 0 0 .25-1.31 3.19 3.19 0 0 0-.26-1.26 3.48 3.48 0 0 0-.7-1 3.33 3.33 0 0 0-1-.69 3 3 0 0 0-1.27-.26A3 3 0 0 0 11 40a3.37 3.37 0 0 0-1 .69 3.68 3.68 0 0 0-.7 1 3.19 3.19 0 0 0-.3 1.24zm16.44-5.66a5.53 5.53 0 0 1 1.72.27 6.39 6.39 0 0 1 1.53.75v-.54h2.41v8.89a5.67 5.67 0 0 1-.44 2.22 5.77 5.77 0 0 1-1.21 1.79 5.83 5.83 0 0 1-1.79 1.21 5.51 5.51 0 0 1-2.22.45 5.59 5.59 0 0 1-3.06-.88 6.68 6.68 0 0 1-2-2l1.46-1.52a5.92 5.92 0 0 0 1.77 1.57 4.23 4.23 0 0 0 1.86.41 3.08 3.08 0 0 0 1.89-.62 3.28 3.28 0 0 0 1.17-1.57 6.08 6.08 0 0 1-1.44.66 5.65 5.65 0 0 1-3.29 0 6.41 6.41 0 0 1-1.95-1.08 5.91 5.91 0 0 1-1.4-1.67 5.55 5.55 0 0 1-.65-2.67 5.42 5.42 0 0 1 .45-2.21 5.6 5.6 0 0 1 3-3 5.51 5.51 0 0 1 2.19-.46zm-3.25 5.66a3 3 0 0 0 .26 1.26 3.23 3.23 0 0 0 1.73 1.73 3 3 0 0 0 1.26.26 3.63 3.63 0 0 0 1.25-.26 3.07 3.07 0 0 0 1.05-.68 3.26 3.26 0 0 0 .7-1.07 3.77 3.77 0 0 0 .25-1.38 2.89 2.89 0 0 0-.21-1.11 3.67 3.67 0 0 0-1.22-1.43 3 3 0 0 0-1.82-.56 3 3 0 0 0-1.26.26 3.21 3.21 0 0 0-1 .69 3.3 3.3 0 0 0-.7 1 3 3 0 0 0-.29 1.29zM36 43.1a3 3 0 0 0 .29 1.21 3.28 3.28 0 0 0 .71 1 3 3 0 0 0 1 .65 3.17 3.17 0 0 0 1.23.24 3.13 3.13 0 0 0 1.85-.53 3 3 0 0 0 1.12-1.42h2.65a7.13 7.13 0 0 1-.94 2 5.51 5.51 0 0 1-1.31 1.35 5.22 5.22 0 0 1-1.62.76 6.39 6.39 0 0 1-1.73.24 5.44 5.44 0 0 1-2.25-.45 5.76 5.76 0 0 1-1.8-1.21 5.72 5.72 0 0 1-1.2-6.22 5.76 5.76 0 0 1 1.21-1.8 5.91 5.91 0 0 1 1.8-1.2 5.44 5.44 0 0 1 2.22-.45 5.58 5.58 0 0 1 2.35.48A5.44 5.44 0 0 1 43.37 39a5.92 5.92 0 0 1 1.14 1.85 6.34 6.34 0 0 1 .42 2.22zm4.35-10.18l2.5 3.54h-2.77l-.83-1.17-.88 1.17h-2.75l2.48-3.54zM42 41a3 3 0 0 0-2.75-1.36A3.14 3.14 0 0 0 36.48 41zm12.39 1a2.2 2.2 0 0 0-.18-.88 2.4 2.4 0 0 0-.49-.73 2.7 2.7 0 0 0-.73-.5 2.18 2.18 0 0 0-.89-.18 2.11 2.11 0 0 0-.9.19 2.76 2.76 0 0 0-.73.52 2.44 2.44 0 0 0-.5.72 2.18 2.18 0 0 0-.18.86v6.14h-2.42V37.75h2.42v.6a2.64 2.64 0 0 1 1-.79 3.19 3.19 0 0 1 1.31-.29 4.52 4.52 0 0 1 1.82.37 5 5 0 0 1 1.52 1 4.88 4.88 0 0 1 1 1.51 4.64 4.64 0 0 1 .41 1.85v6.14h-2.44zm7.21.93a3 3 0 0 0 .26 1.26 3.15 3.15 0 0 0 1.73 1.73 3 3 0 0 0 1.26.26 3.59 3.59 0 0 0 1.48-.3 2.65 2.65 0 0 0 1.08-.88h2.71a6.76 6.76 0 0 1-1 1.62 5.34 5.34 0 0 1-1.26 1.13 5.41 5.41 0 0 1-1.46.64 6 6 0 0 1-1.58.21 5.44 5.44 0 0 1-2.22-.45 5.76 5.76 0 0 1-1.8-1.21 5.72 5.72 0 0 1-1.21-6.22 5.76 5.76 0 0 1 1.21-1.8 5.91 5.91 0 0 1 1.8-1.2 5.44 5.44 0 0 1 2.22-.45 5.94 5.94 0 0 1 1.55.2 5.2 5.2 0 0 1 1.48.63 5.82 5.82 0 0 1 1.28 1.12 6 6 0 0 1 1 1.63h-2.72a2.63 2.63 0 0 0-1.13-.85 3.75 3.75 0 0 0-1.43-.27 3 3 0 0 0-1.26.26 3.37 3.37 0 0 0-1 .69 3.45 3.45 0 0 0-.69 1 3 3 0 0 0-.3 1.25zm10.62-7.83a1.5 1.5 0 0 1 .44-1.1 1.44 1.44 0 0 1 1.06-.44 1.5 1.5 0 0 1 1.1.44 1.46 1.46 0 0 1 .44 1.1 1.4 1.4 0 0 1-.44 1.06 1.46 1.46 0 0 1-1.1.44 1.4 1.4 0 0 1-1.06-.44 1.44 1.44 0 0 1-.44-1.06zm.29 2.65h2.42v10.41h-2.42zm4.96 5.18a5.42 5.42 0 0 1 .45-2.21 5.62 5.62 0 0 1 1.22-1.8 5.91 5.91 0 0 1 1.8-1.2 5.68 5.68 0 0 1 4.43 0 5.91 5.91 0 0 1 1.8 1.2 5.73 5.73 0 0 1 1.2 1.8 5.42 5.42 0 0 1 .45 2.21v5.23h-2.41v-.58a5.5 5.5 0 0 1-3.25 1 6.08 6.08 0 0 1-2.35-.44A5.22 5.22 0 0 1 79 47a5.56 5.56 0 0 1-1.14-1.81 5.77 5.77 0 0 1-.39-2.26zm2.42 0a3 3 0 0 0 .26 1.26 3.23 3.23 0 0 0 1.73 1.73 3 3 0 0 0 1.27.26 3.36 3.36 0 0 0 1.26-.24 3 3 0 0 0 1-.67 3 3 0 0 0 .7-1 3.29 3.29 0 0 0 .26-1.31 3 3 0 0 0-.27-1.26 3.3 3.3 0 0 0-.7-1 3.21 3.21 0 0 0-1-.69 3.21 3.21 0 0 0-2.53 0 3.21 3.21 0 0 0-1 .69 3.3 3.3 0 0 0-.7 1 3 3 0 0 0-.28 1.23zm33.43-5.18h2.41v6.1a4.55 4.55 0 0 1-.37 1.84 5.11 5.11 0 0 1-1 1.52 4.64 4.64 0 0 1-1.5 1 4.55 4.55 0 0 1-1.84.37 4.49 4.49 0 0 1-2-.42A4.76 4.76 0 0 1 107.5 47a5 5 0 0 1-1.56 1.14 4.77 4.77 0 0 1-3.8 0 4.64 4.64 0 0 1-1.5-1 4.9 4.9 0 0 1-1-1.52 4.72 4.72 0 0 1-.36-1.84v-6.1h2.41v6.12a2.18 2.18 0 0 0 .18.89 2.33 2.33 0 0 0 .49.74 2.7 2.7 0 0 0 .73.5 2.26 2.26 0 0 0 .9.18 2.23 2.23 0 0 0 .88-.18 2.6 2.6 0 0 0 .74-.5 2.36 2.36 0 0 0 .5-.74 2 2 0 0 0 .19-.89v-6.05h2.46v6.12a2.37 2.37 0 0 0 .68 1.67 2.16 2.16 0 0 0 1.59.64 2.19 2.19 0 0 0 .87-.18 2.7 2.7 0 0 0 .73-.5 2.36 2.36 0 0 0 .5-.74 2 2 0 0 0 .19-.89zm7.29 5.35a3 3 0 0 0 .29 1.21 3.47 3.47 0 0 0 .71 1 3 3 0 0 0 1 .65 3.21 3.21 0 0 0 1.23.24 3.13 3.13 0 0 0 1.85-.53 3 3 0 0 0 1.13-1.42h2.64a6.86 6.86 0 0 1-.94 2 5.34 5.34 0 0 1-1.33 1.35 5.28 5.28 0 0 1-1.61.76 6.52 6.52 0 0 1-1.74.24 5.51 5.51 0 0 1-2.22-.45 5.76 5.76 0 0 1-1.8-1.21 5.68 5.68 0 0 1-1.2-6.22 5.57 5.57 0 0 1 1.2-1.8 5.91 5.91 0 0 1 1.8-1.2 5.85 5.85 0 0 1 4.57 0A5.23 5.23 0 0 1 128 39a5.74 5.74 0 0 1 1.14 1.85 6.34 6.34 0 0 1 .42 2.22zm6-2.1a3 3 0 0 0-2.75-1.36 3.16 3.16 0 0 0-2.77 1.36zm5.39-7.42h2.42v4.92a3.29 3.29 0 0 1 .65-.47 5 5 0 0 1 .8-.39 6.41 6.41 0 0 1 .88-.27 4.12 4.12 0 0 1 .92-.1 5.51 5.51 0 0 1 2.22.45 5.86 5.86 0 0 1 1.79 1.2 5.76 5.76 0 0 1 1.21 1.8 5.68 5.68 0 0 1 0 4.43 5.6 5.6 0 0 1-1.21 1.79 5.71 5.71 0 0 1-1.79 1.21 5.51 5.51 0 0 1-2.22.45 5.73 5.73 0 0 1-4-1.63 5.59 5.59 0 0 1-1.21-1.8 5.67 5.67 0 0 1-.44-2.24zm2.42 9.35a3.12 3.12 0 0 0 .26 1.26 3.4 3.4 0 0 0 .7 1 3.21 3.21 0 0 0 1 .69 3.18 3.18 0 0 0 2.52 0 3.21 3.21 0 0 0 1-.69 3.4 3.4 0 0 0 .7-1 3.12 3.12 0 0 0 .26-1.26 3.19 3.19 0 0 0-.26-1.26 3.48 3.48 0 0 0-.7-1 3.21 3.21 0 0 0-1-.69 3.18 3.18 0 0 0-2.52 0 3.21 3.21 0 0 0-1 .69 3.48 3.48 0 0 0-.7 1 3.19 3.19 0 0 0-.22 1.26zM48.94 229c.12-3.49-1.07-6-3.57-7.49a43.34 43.34 0 0 0-11.06-4.18 91.42 91.42 0 0 1-9.58-3 35 35 0 0 1-8.62-4.62 25 25 0 0 1-6.53-7.14 25.33 25.33 0 0 1-3.31-10.54A24.46 24.46 0 0 1 8 180.42a26.79 26.79 0 0 1 6.63-9.42 33.47 33.47 0 0 1 22.64-8.7 28.33 28.33 0 0 1 10.46 1.91 33.86 33.86 0 0 1 8.7 5A28.38 28.38 0 0 1 62.7 176a23.58 23.58 0 0 1 3.31 7.4H45.64q-1.76-3.3-9.06-3.31a12.73 12.73 0 0 0-7.84 2.61q-3.48 2.63-2.44 7.49c.46 2 2.18 3.55 5.14 4.71s7.4 2.73 13.32 4.7a61.91 61.91 0 0 1 9.76 4.18 32.52 32.52 0 0 1 7.92 5.92 24.87 24.87 0 0 1 5.32 8.3 31 31 0 0 1 1.91 11.32 24.87 24.87 0 0 1-2.67 11.8 26.84 26.84 0 0 1-7.23 8.71 33.28 33.28 0 0 1-10.45 5.49 40.13 40.13 0 0 1-12.36 1.91 33 33 0 0 1-11.59-2.17A35.08 35.08 0 0 1 14.89 249a31.54 31.54 0 0 1-7.57-9.58 26.36 26.36 0 0 1-3-12.45h20.24a12.26 12.26 0 0 0 3.59 8.27 12 12 0 0 0 9 3.57 11.39 11.39 0 0 0 8.42-3.14 10 10 0 0 0 3.37-6.67z" transform="translate(-4.35 -26.3)"/><path class="cls-1" d="M87.09 144.19a12.52 12.52 0 0 1 3.66-9.19 12.09 12.09 0 0 1 8.88-3.66 12.52 12.52 0 0 1 12.89 12.89 12.08 12.08 0 0 1-3.66 8.88 12.52 12.52 0 0 1-9.23 3.66 12.5 12.5 0 0 1-12.54-12.54zm2.44 22.12h20.2v87.09h-20.2zm40.93 20.21v-20.21h8v-31.18h20.21v31.18h20.38v20.21h-20.37v66.88h-20.21v-66.88zm86.74 24.56a24.77 24.77 0 0 0 2.44 10.1 27.9 27.9 0 0 0 5.92 8.18 27 27 0 0 0 8.54 5.49 28.5 28.5 0 0 0 25.77-2.44 25.52 25.52 0 0 0 9.41-11.93h22.12a58.62 58.62 0 0 1-7.84 16.9 45 45 0 0 1-11.14 11.32 44.51 44.51 0 0 1-13.5 6.36 54.48 54.48 0 0 1-14.55 2 46 46 0 0 1-18.55-3.75 48.2 48.2 0 0 1-15-10.1 47.16 47.16 0 0 1-10.1-15 48.23 48.23 0 0 1 0-37.1 47.16 47.16 0 0 1 10.1-15 48.54 48.54 0 0 1 15-10.1 46 46 0 0 1 18.55-3.74 46.54 46.54 0 0 1 19.68 4A45.39 45.39 0 0 1 278.86 177a49.16 49.16 0 0 1 9.49 15.51 53.43 53.43 0 0 1 3.57 18.55zm50.34-17.6q-6.63-11.14-23-11.32-16.73.53-23.34 11.32zm77.51 45.82a17.35 17.35 0 0 1-5.18 12.75 17.69 17.69 0 0 1-13 5.19 17.72 17.72 0 0 1-17.94-17.94 17.69 17.69 0 0 1 5.19-13 17.33 17.33 0 0 1 12.75-5.18 17.71 17.71 0 0 1 18.22 18.22zm-1.68-26.92h-32.52V61h32.52z" transform="translate(-4.35 -26.3)"/></g></g></svg>
