<svg xmlns="http://www.w3.org/2000/svg" fill="#a71126" width="45" height="45" viewBox="0 0 490 490">
    <path d="M457.7 394.35H20.2v-273c0-5.4-4.7-10.1-10.1-10.1S0 115.95 0 121.35v283.1c0 5.4 4.7 10.1 10.1 10.1h447.6c5.4 0 10.1-4.7 10.1-10.1 0-5.4-4.2-10.1-10.1-10.1z"/>
    <path d="M42.4 75.45v283.1H490V75.45H42.4zm236.8 217.8v9c0 7.2-5.8 13-13 13s-13-5.8-13-13v-9.1c-7.6-2.3-14.6-6.5-20.2-12.4-4.9-5.2-4.7-13.5.6-18.4 5.2-4.9 13.5-4.7 18.4.6 3.7 4 8.8 6.1 14.2 6.1 10.8 0 19.5-8.8 19.5-19.5 0-10.8-8.8-19.5-19.5-19.5-25.1 0-45.6-20.4-45.6-45.6 0-20.6 13.7-38 32.5-43.7v-9c0-7.2 5.8-13 13-13s13 5.8 13 13v9.1c7.6 2.3 14.6 6.5 20.2 12.4 4.9 5.2 4.7 13.5-.6 18.4-5.2 4.9-13.5 4.7-18.4-.6-3.7-4-8.8-6.1-14.2-6.1-10.8 0-19.5 8.8-19.5 19.5 0 10.8 8.8 19.5 19.5 19.5 25.1 0 45.6 20.4 45.6 45.6.1 20.7-13.7 38.1-32.5 43.7z"/>
</svg>
