<svg xmlns="http://www.w3.org/2000/svg" fill="#a71126" width="45" height="45" viewBox="0 0 533.333 533.334">
    <path d="M0 66.667h66.667V400H0V66.667zm100 0h33.333V400H100V66.667zm66.667 0H200V400h-33.333V66.667zm100 0H300V400h-33.333V66.667zm133.333 0h33.334V400H400V66.667zm100 0h33.334V400H500V66.667zm-166.667 0H350V400h-16.666V66.667zm-100 0H250V400h-16.667V66.667zm216.667 0h16.667V400H450V66.667zM0 433.333h33.333v33.334H0v-33.334zm100 0h33.333v33.334H100v-33.334zm66.667 0H200v33.334h-33.333v-33.334zm166.666 0h33.333v33.334h-33.333v-33.334zm166.667 0h33.334v33.334H500v-33.334zm-100 0h66.667v33.334H400v-33.334zm-166.667 0H300v33.334h-66.667v-33.334z"/>
</svg>
